<mxfile host="app.diagrams.net" modified="2023-09-07T07:09:13.257Z" agent="Mozilla/5.0 (Windows NT 10.0; Win64; x64) AppleWebKit/537.36 (KHTML, like Gecko) Chrome/116.0.0.0 Safari/537.36 Edg/116.0.1938.69" etag="9pun2BT4tn8RNccg2638" version="21.7.2" type="github">
  <diagram name="08-配置活动状态" id="tJ3ikO2dKvk7oqWaMvYE">
    <mxGraphModel dx="1192" dy="577" grid="1" gridSize="10" guides="1" tooltips="1" connect="1" arrows="1" fold="1" page="1" pageScale="1" pageWidth="827" pageHeight="1169" math="0" shadow="0">
      <root>
        <mxCell id="0" />
        <mxCell id="1" parent="0" />
        <mxCell id="EXXxjvqBuax8S38SZ-jd-1" value="&lt;div style=&quot;background-color:#282c34;color:#bbbbbb;font-family:&#39;JetBrains Mono&#39;,monospace;font-size:9.8pt;&quot;&gt;&lt;pre&gt;ActivityConfigReq&lt;/pre&gt;&lt;/div&gt;" style="rounded=1;whiteSpace=wrap;html=1;" vertex="1" parent="1">
          <mxGeometry x="200" y="140" width="120" height="60" as="geometry" />
        </mxCell>
        <mxCell id="EXXxjvqBuax8S38SZ-jd-2" value="活动配置信息" style="text;html=1;align=center;verticalAlign=middle;resizable=0;points=[];autosize=1;strokeColor=none;fillColor=none;" vertex="1" parent="1">
          <mxGeometry x="210" y="90" width="100" height="30" as="geometry" />
        </mxCell>
        <mxCell id="EXXxjvqBuax8S38SZ-jd-3" value="&lt;div style=&quot;background-color:#282c34;color:#bbbbbb;font-family:&#39;JetBrains Mono&#39;,monospace;font-size:9.8pt;&quot;&gt;&lt;pre&gt;ActivityConfigRich&lt;/pre&gt;&lt;/div&gt;" style="rounded=1;whiteSpace=wrap;html=1;" vertex="1" parent="1">
          <mxGeometry x="120" y="280" width="120" height="60" as="geometry" />
        </mxCell>
        <mxCell id="EXXxjvqBuax8S38SZ-jd-4" value="" style="endArrow=classic;html=1;rounded=0;exitX=0.25;exitY=1;exitDx=0;exitDy=0;entryX=0.422;entryY=-0.06;entryDx=0;entryDy=0;entryPerimeter=0;" edge="1" parent="1" source="EXXxjvqBuax8S38SZ-jd-1" target="EXXxjvqBuax8S38SZ-jd-3">
          <mxGeometry width="50" height="50" relative="1" as="geometry">
            <mxPoint x="390" y="330" as="sourcePoint" />
            <mxPoint x="440" y="280" as="targetPoint" />
          </mxGeometry>
        </mxCell>
        <mxCell id="EXXxjvqBuax8S38SZ-jd-5" value="&lt;div style=&quot;background-color:#282c34;color:#bbbbbb;font-family:&#39;JetBrains Mono&#39;,monospace;font-size:9.8pt;&quot;&gt;&lt;pre&gt;StrategyVO&lt;/pre&gt;&lt;/div&gt;" style="rounded=1;whiteSpace=wrap;html=1;" vertex="1" parent="1">
          <mxGeometry x="70" y="410" width="120" height="60" as="geometry" />
        </mxCell>
        <mxCell id="EXXxjvqBuax8S38SZ-jd-6" value="" style="endArrow=classic;html=1;rounded=0;exitX=0.442;exitY=1.007;exitDx=0;exitDy=0;exitPerimeter=0;entryX=0.5;entryY=0;entryDx=0;entryDy=0;" edge="1" parent="1" source="EXXxjvqBuax8S38SZ-jd-3" target="EXXxjvqBuax8S38SZ-jd-5">
          <mxGeometry width="50" height="50" relative="1" as="geometry">
            <mxPoint x="270" y="420" as="sourcePoint" />
            <mxPoint x="320" y="370" as="targetPoint" />
          </mxGeometry>
        </mxCell>
        <mxCell id="EXXxjvqBuax8S38SZ-jd-7" value="活动配置聚合信息" style="text;html=1;align=center;verticalAlign=middle;resizable=0;points=[];autosize=1;strokeColor=none;fillColor=none;" vertex="1" parent="1">
          <mxGeometry x="30" y="250" width="120" height="30" as="geometry" />
        </mxCell>
        <mxCell id="EXXxjvqBuax8S38SZ-jd-8" value="&lt;div style=&quot;background-color:#282c34;color:#bbbbbb;font-family:&#39;JetBrains Mono&#39;,monospace;font-size:9.8pt;&quot;&gt;&lt;pre&gt;List&lt;span style=&quot;color:#e8ba36;&quot;&gt;&amp;lt;&lt;/span&gt;&lt;span style=&quot;color:#e5c07b;&quot;&gt;StrategyDetailVO&lt;/span&gt;&lt;span style=&quot;color:#e8ba36;&quot;&gt;&amp;gt;&lt;/span&gt;&lt;/pre&gt;&lt;/div&gt;" style="rounded=1;whiteSpace=wrap;html=1;" vertex="1" parent="1">
          <mxGeometry x="5" y="540" width="170" height="60" as="geometry" />
        </mxCell>
        <mxCell id="EXXxjvqBuax8S38SZ-jd-9" value="" style="endArrow=classic;html=1;rounded=0;exitX=0.448;exitY=1.04;exitDx=0;exitDy=0;exitPerimeter=0;entryX=0.448;entryY=-0.073;entryDx=0;entryDy=0;entryPerimeter=0;" edge="1" parent="1" source="EXXxjvqBuax8S38SZ-jd-5" target="EXXxjvqBuax8S38SZ-jd-8">
          <mxGeometry width="50" height="50" relative="1" as="geometry">
            <mxPoint x="180" y="540" as="sourcePoint" />
            <mxPoint x="230" y="490" as="targetPoint" />
          </mxGeometry>
        </mxCell>
        <mxCell id="EXXxjvqBuax8S38SZ-jd-10" value="aactivityId" style="rounded=1;whiteSpace=wrap;html=1;" vertex="1" parent="1">
          <mxGeometry x="310" y="280" width="120" height="60" as="geometry" />
        </mxCell>
        <mxCell id="EXXxjvqBuax8S38SZ-jd-11" value="" style="endArrow=classic;html=1;rounded=0;exitX=0.75;exitY=1;exitDx=0;exitDy=0;" edge="1" parent="1" source="EXXxjvqBuax8S38SZ-jd-1">
          <mxGeometry width="50" height="50" relative="1" as="geometry">
            <mxPoint x="390" y="420" as="sourcePoint" />
            <mxPoint x="370" y="280" as="targetPoint" />
          </mxGeometry>
        </mxCell>
        <mxCell id="EXXxjvqBuax8S38SZ-jd-12" value="" style="shape=image;verticalLabelPosition=bottom;labelBackgroundColor=default;verticalAlign=top;aspect=fixed;imageAspect=0;image=data:image/png,iVBORw0KGgoAAAANSUhEUgAAAlAAAAHECAYAAAD2/RSNAAAgAElEQVR4Aey957sdxZX27b9mnhmbLAFCRCEJlHPOATBJZLCJCmQUScaAsUA2YAsbECYpHZHB5OA4NthjjMnRnnnneb7Ue92r6q5eVV2d9u59dAT6UFd1qK6urq5z1m/fa1X1t8ZPX2z6K02YvthMmIG0pFGaOGOJ8WnmUjNRpUkzl5pJs5hOMJNmVaWlBtewDraFfTBu2mIzbtoiMxZp6kIzhmnKQjNa0gIzespASwvNmCkVic/hcjxbmPC8LvH5py2SvkB/5BP6abEZN90m9p/OZy06PTe27Bho9v75juTaivEq7XHvkG2271K9T9dXXb/PyQvMaJdGTV5gsjTfjJpckCbNN6MmzTfHF6Z55vhJ88zxE+eZ47pMqEPqQn0+Fd8b7QpS0TM0Pq77Jtxm/31T8myMhP1gjxeMmcb9XbOe+H0X7BeP1eKxlL9GjUGMyy7Htv7bGDlxnpE0YZ4ZKWmuGTmheRoxYa45duwsc8zoGWbYmBlm+LjZBsdYF/aHjZkp548ZNd1IGj1Drhkxfo6U1eV5Xa/zKbNPNPOXniEJ//Ma32/iXDOyIh03ca4pSrgf+gZ9d+zYmdJH6Kcw2T5Fvw5D/7qEvpaE/kwd5/mBmI+abr6lDV6vty08tQtQAKGeQZQAxZ4AURXwBGCIAAr73QEUoKoZQHUFTynoLoGpvSAVAlhTmIIB7A1Mwbin4MEe+yaAVNnzF4J3LyAqfscF+3kYagJOumzvIApAFYJUBj5VQAHoETgScJrpgYjXAY4IVjE4DR+XgRPqqUqss818yuyTzLwlZ8iP3DbrDepKARaed/wcB08zzbFjbEqCk4IjD08OQrHvQWoP2+43gMrUp+YARQWiVIVKKFGTZ51gmHLKlAOvSiXqawxRIUABqPIKFNQbKjn5vCFAdaA+8t1X5gUwRYWMbRc1StTF3ipSAIHMUJYoAs5oFRspZ3Ra/MUuMJVTp7Shy28HMIU2t2rQdV+F219noMrGR/jM7fZtybsqBSaMuwyii8dnfqyUl+1PiIIiVQ5SVJVgxAEAAAJeY8HJqU5acRoz06tTVcBU5zzv11UOgKx41jbPZ+BkVSf0XQhO2C9WnfZUaCL8Mf9aAxSgiQCFvBOIoisPsEEVx7p+4NIbWK681tx4yoXXKkCJC7dD911KgSo6loCpMpDie2X/tenaIwBYY1ltzNLGJzQ62n3RxnZenSo3ir2FKfRRDBThPvv065AXP2vJWGkLXhUg8Z1i/GFM2THRC4DC2Mp+FBDm2xjHuo4qNcrC0SzvSgJIacAgWFFxEsAaO8uDE8rWgaNuyuj2DKRt9l1acSJIZW46woZWmVLH9PnduY22Fd0/bne/AFSoPnUWBwUFokiBKnPjaYDidgBSKh5q4oylNjZLGWC4qXIQ5eOhBl5cFCGgNFcw2LUK1SAGqnUXXhFAqeOxW/rrBFIwPtpodLtNY+YNHA1dYbxWZmBpgCVvy8D7ekKA0tDxdYAoPIN+pnC7xyCVgihRJ/PvNg335bCdvib8QeDHXcuxUfx7iOOiPBw5lx2AgIBCOKABlViosbNEmRoxvlzNYh0DJRd4c7FZbbQJfYO+k1inpLtOqU6Ry873ZwmcsMxAywlNKbDqP4DyAeQEqOauvDKAEogqCCYXcJqdqVEBQEGZSkLUEh8ADfePdW/ZuCFRLAKI+vorUXSB5fNiN14cRN4NQPl370C60qWnIApl64NUpjQCQrtWo6BSqmBzvV3qqnGGLW2A8r/iaSzaygOj5kEKhq/YYAYQRcPsIahNECgGDt2/e+J2CE98zjb7LqqL76lmXvb+m53rb4iy8To+lsm57EYqePJgNWq6KFMoq+GqWwihGtVtPXWux9/i1LnfNXMXn27mLD7dA2Kda/Nl5pgRBKexDeOcFDARRAYaIBW1h+1lnirXc4ASowl4SgJUhxA1c4mfRccYploqlIKonBqlIMob50CJqoKogeXSK1WgoqDyQhUKMVHKnZeHp/JA8hxANYyBiqFJ7/t3FIFS6fHpeyBIAUBKYSp0h7QFULqeTmAKxpTtDvKeABWggLCRz/eCVARN+h0UvaeC480gqRi2bT39A1EAAoEjGHMHR9gnKFg4cLPrErFQLNdGTohqmte9N+qFQMBZeTPmn+yfs24dulysOuXjnJzLrkBxAnQQQJCnIGR3HdPt0W1MbRe1sacAFcBTIUDVhygxoAJPAKg8RIWz8bC0gY17IixNBkAxqfgolvNKFF15SrmA68e68mzwscREBdPhBxZAIT6rFYhqFaDqxz9pWLLb2dITGpqD7QYwNT6CKXHtqeUP9Lum4tiaIlWgSpUqUjR6hQpQaIw0ALW9LUAVqFK8d7HBDCCKxpnP1JM8D1IasvYUqNJtttslMNRNP/KdVOTtApRSUuPx1JI7z7rksqUHdKC4PWeXLRBD74LDNUB0tl0e0N0UnsrKx+1DWTsrb5nB/zjsx2Xq7I+YoNx1WJ4gGSSuXHZqeQLCRhMQ4TX9lafaVnSsrE39C1CFEFXPsIYAlTaopRBFeIpzHWBOJSoFUYQJzlZDLJF387Tk7mk1ML1ieQMVCwVIKFSi3HOnFahiFSqvQNV7z1CRAoDiO+kgL1WkAFwdg1RLbtuEe29PASmAWScwVapOwYB3AwKl1xZD1UAGqjxE4Tla7qcKcNIAvCdAFCABKhONH5QTKE2Eh+FuvScqUnDX8Vw3Ofpm3pJlZvLsE0vhpQyK2jiHZ+gEnuTeOtapal0niSPLVCbf30p5wjHCCc/vjpxtqJvXaWP/A1QSouoZVm9UE+oTlYiOAApAlYAobXwZQwOI8NP9HXQMXIiqAKi6rjyCY+GSBuk4qDxA1VMb/XsGSHUATblr6sRNdQxSLSmPSZCqYSjrKFKT2g02L1O0WgUqGvW2YcHXVwxUgJaBBlU9Byn2d428e4iCaqkVS6qYUd5YibKxTgAmGm4NRzbOKXMlYeHHkRPm2IUkO1RrNHDhmeg+m7XwVLfAZ7EK1AYsNalDtzXeDtx1yVgnNcNOKU4AEsJGCk70OW73Z55qU9mxJm3bPQAFiPIgVQ+e8qpE2rgKQAVrQkWuvFh9kv0TrWuvBkT5lcq1CjWV6pPOW1IoulSkxvSzK4+giTwHUPLOq9+3B6g24EnXoZQtDcfBdk2Qan3pA77nhOGu7boJDBKNU94glQFQm+c6hSkYIa145LY9ALWswki95VA1EMCKIKUBr1VFqqr/k+OM461eznFGI8795JipCVGoa/i40CVH1Qk5oQoGUhQpBJC7max22YNi0GE76+R4FzPmnyLB23MWnSahH2XXNQGgnpVtqjolVKUiKGkCJG2UZTvkPat28nhZ3vT+PQOoXPwToUnn3QYVa+OotuuoUGfe3Gc2b7rBLJq11GApfEiuEh9VBlHOuNKVpZWovArVkjJBwzplgSyxIP801bF6a1FlYId25lKpK08pbqWuPKtCVQNUuQp1xk14L9ebhW2pT2pcBMpUFUyVgFQWH7XIrg2m+rTe+6gJ10mYqgENhQZOwVTNJRBOuaHPbL5rnZk5AZ9yqFayysonjaPEvlQb3RxEaSPfIlCdiufdtN7MmjRPucnKoUqDTH9ul4FU+jlqjB32pe7fgu1QQap+h7o8xhIUDywTIIaOi1O6WXE4H4wX7ifH4Fxxz2njh5gdqE1I2OY5GE8cS41lrh3FMTxDzdArA6BTrrd/I3XLF9XVJhzxHpV1CjjZldbRT23EOrGv5b0qdUof7+V2GSDlzjklrdP29ASgasFTtwqUGNhQhVp41YPmvod2BWnzlgfNZSdbFYrB5JNmnWOWbwoBykJUFmTOwHIxuioeijEz9SCqpqGsAUQAvKlzTupi8c76EFUUC3X6jX1m85Y7zelTFwark489cYO5fUufuf3Ks+TbeISomQsvNJein29a4ZcRsMpjsQrVbwClwcrBVKBEMSBdzcTEc+lg8wyk3NIHwaSC9t59yijHisOsyx+QcX/b5Wdkhr8OSJW490ZOWGYuuqs+QDUpHxjHOIB40nwzc5V9Hv33vHnLA+aixYDAzFgXghVBoGHeDDzqg9VpDsxmT5rXumswpYo1e44CsCoAJ93n+l0037bB1hpwaHQRowTACkAqgiiOkVuXn+IBSa4HCPC7bM6Aw3DSlZeCJx7DGL7Qjfk6QDRifLPyBJuyvBJ6ShbxxFqGmHkHe4Yfyngu3CtZp1adCoPEldvOqTmEjRyMKLWHZcpyXJ86r+vV51len9fbKKv3c9uR21Gf1/dpsr2bAarYkKaMmXftUD2IYqEAUFQvqEJNPPl686MtfWbzzatkVp5AVOTGw2Bj8rP0Zmcrl8cQJYZUz9hy7jzO1spWKm9HhQLQwK8OaOtO4aiAqNKYqEVmzDl3GhixS04MAWruFdbYbd60wcydtsjD0swzfiBgtea87NiABKhaMBV+dNuClP3Mze4FqQXm+ElnmIs29ZnrbtiYUE+ccVTQERo6q0qNnHipuW5Ln7nurHpKEw1OVT5yQr16Y6CCcdy8aZ2ZOXGuB6aRi9eb2/C3fMNl/lj4LCWuv5og1T14pKGK9fYCoADYsRpFYAuVtAJQquqbCpCK30HV/siJl7mxZscexhBUoZThAlwBAFCGYwTbAJ3v39Vnrt1wh9l852ozhR+jHWM/yUJlS4yq1GFhTI/XsrFJNUo+stswNmrEeDfmz8wW6CwDpqJzGnrGwea5wHR9nNsT55xkxs9YmgalGKC06lQn1kmBh/RnAajoc9xGnkqAFx7XIFO03aRsUR1yHM8SPQ/rLstZZ1ymdYCqrz41gycNVAFIKYhKAdSkWZitt8qs3dJnfnTVOdmnXQogyrrynDsPZZxLj+4ftsNCVPadOC60qd1jGUh1p0agTXMXL+sSnvJt0G0NtpVLT6tRY6YsN6uhNF1xpvj1bUD9meaSTX1mzRVQoe40yxBo7lSbmRf9RIDr0pM6AKjpobrI/i/LffwbPzBdkpfVI+cKVamBB1Kjzt5oNm/ZaE5dYgHjurO1+ykymgUgpQEKK5FrQ9PNdpmRKqs3BKjM9ch23rbqjEKI0gZcqyW57QQ4EHRaAQ9f/wIT1psBT0o9SimOdY8RpAhQGthi1bLj/QRQ6T6v2g4ByqmJJRAlq4G7GXQYM1Cmjll2h9m85Q5z4tzV5tYtfebaZdOzb7Ep1QmxT0XjrM7Y7ASk2gIorRxNmnOiWXz6BWbSnJNykIRjcg6AhZXH3erjhKsgdx9GRgyYqHSlypONFSOMEiJ2V0546fj+HYAT7sn78f46/xbdK+OmrTBrnBuGLhjkyyQmZYOZp5SFcSdZlw3ldSgP/vy0s7zbZsGVmQwP188Z0xa54HELT+Onr5R7ZvVcbxaoQOPxJ10vCkZ8PgAoGDqnIGiAwjHAE5Oc23KXOXPmUoEiHQMF1WnSrHPFrefvtWWTOXPWUhUXtdRMOP+uwD14+5UrBB4237hc1CFA1Glwc21ab05zLhVsz54Mg3aGuXhTn78eBu+0yfM8FMl1N15mZrvr0A5eS4VHjqnrWCfL1VenrBIVQJOK45HjCYgaM8XCEt73HMxAlBmJy80aUaWQ95k152YAdd4t6As1NgBWubETvnPvwpu+2L/XCTNWCgD7dxPHSH3Xqow8j3ztBUv8u8cYkPd980qDccByVCuDYxgjakxhvbEJqXGo/h4EpuHec7MUbb+Eq9ajT1tZ1Tx2905eYMRY3nCZGTXJjjEoNCnjePwk+8s/e/71ZubEeUl32W2rlsk3yxgPghgova2Nkj6ut+li4f2Qo15dpqgeASgXeyXKAxQI5+qTc1s2mlPkmDXAVKd4L/xN4NlozOWeiG1yKpYvJ/2WKVch6Fj4PN6BKa9BriE1dQ36Xx/X24Ac2b/hMkPXK+pEmwFuwTH8vSu3nwejqE1451qJ4v00QBHCODZS44HgyOtPVf/HeC7uD2n3xHk+8H/kRKuIsr/wv47vKj0mLAxjLAybt0aAyF8bqEvW6MOgnbihz2zecKE5etTJ5ntwuW24SAwdjRvddYQkX58bU+l2LBPY0uNTb6N99rMw84yOe9LbM1be7/+/8J63rVwWlNeKk75WH09tA5SWnH6BmTznJL/kArZxDIAFL8qsBacazP6DK0/Xgc/QSDzYWBtMLwBVCk92jScNEASJ3ZXz3Ta6PxWnDuGJ9yzKGwPUuPOsG4eqwjgCEw2l28fgQUwMFKnxDs4AaxNc4Pj48yyM3H7l2fb7c1i08qTrzaXn2SBjnIe76NKT3P70sy2YbbIGN4CoIoBSEDXx5BvMj1w8FFSlGKAWXX2XWX7KCTag3MEUg8wBWDSya893wDZjicAlnpMABQOKOCEey4zmQjP78o3m4qUWmFLgA4DCdYhhAQiNWmrVBFvXZfbY5MtEAdp8I/edwXSQVh+gMjWqKUTNueIBHwcFUBhz7p0CSXOnLjTLbrTqlP1+4AqzPgLybOyk3ynUPQIUQBoQTGi9/aqzM6D67vXmMvceeB7vJXbb/uiqsz1E4X2jL3mMrl3p35tX2s/5OFDbfNPK7F7nYxw+aC47ya5NNT4ahzK+VZwUZ2mKOieAGcZHZWMiewedvDdew3Gy+mwbWwMAx9/NxUvsvlUk5pvjz97ox5c3oEvWm4ugVkGVCtwqWYyRBQ/rSht5FpQuxCFlbr6Ri9eJW42uv7zBybvwkvVErj4NUBqyAFP2nrYdgCpdH4CJBlxDFNol71qBFaFLgNOpKgSHWQ4Ijj/L9psGJgIE483Qt9IvSzLlj3DC63y9Ljgd+2iPr0MBkQVguGYt8HKf4MXnmD15kYUmd62GqPB++SUZoFrq+2NM4LlkPDj4k/tEMB4/K93HGqJmrdroY9VS7yKpQOG9yfi633xvrnXvCBzd2Re46GDIjo5Up6nL7zebt+C66RIEjc+zCOy4dwdo5xjC2LnIuakJVxy7LKPHsB5bPO/H/JmYtRfCFKAlpUCNOBNj5H5z4aLMrZcqp6Enta0hSm+jbfBS4LMt+D/Ka0V90rFOwaKYVJgY56RypeI1Ahal2PTiOoJM7boVOOEaXl+Ws+6yMjzXCKAISzqmRX59i6oA2IFLyylQmzaYBVScpi82UKNEhRJj42DoppUenugaQ04jtcbBFM9ZRSqDKg9RZQDlIIoGc+0FaQUKkMQ4KOSTL9hkNosKBXXqcu8ChJGm4sV2xgCF5zxtcrYSeMqVN+oc63ahCkXlCmoVjaMcU4oTjqfKsXyneSFEpVSoE9aLKrj6HKtASWC5U+CglEkcFGLCTtpg7tiyRcaEjBE3LjB2+D7lXYu6k71TDVATZpxtLpMg9Axo2PcCVw54BIoULENxyhRHq0RZYL7eLJyZKVNyTFTJ6JhTuHh/D83u3VtFKmuzPI+CKPu8SpGSGLnegJQFpkzNHOWMqYC4m8UHZQoxUtYQRy4952aisb7urEy1AYxYgLJqzsiJy6QeUafcbCivBrk4FW188E89ZaQYbB4YNjGeG80prp4igJI6FbSxLhhBKlQCVVKGQefz7HMoJYTKlG+/U6v4vAAoQiXchbH7DyqRuE1FFbP9SxgSGKFbVQETFSacDwHHvhM5BlesmgEYlnPKlfxPgKK5xCmNC0S1YnsIWtn9MpehqFRKqbSqVX5MpNpCWCIUahC/DWANgEy59/huXR+nAIqghfEHAKKBsrBk4YjHpggw3WFOcnFPBKrbVpwmoCSQzQkQN1zq4YkAxDw1NnFOj2GOLz1W/ZiRjwvXBCgXbA41ysONQNVGc0rN2X68juAUq1E8zxyuPKs6zfJB9cEsO8KOVqIGKDgRajQE6WPBNlUn93wcN3VyXU+d8s0AKnK/4BeKTjCOHqCgNqklCyxA3WXOgKFxLpEYkGhYeV7Xrbd5XRVAwciGqkQ2Iy9WoABQVCl4LwDUWYiBOgXqVZ8BfMnsPBrSGQTBFYbKA1QYQMRsBVAEFKpMWf2Z4RMwcsoSQSgFS2Iwu1CcWHecs425PIIouvEQB8WYqNXn2qByOxvPBpkLTG35icREZZBtf3Xz+XXOdxoAlBsnMcAQoiY4151Wn+iynXiBU45OBhw5xdFNJOAMS46BhQJfAGUHXgAoxNadHLqQdXuxvTYC/Bikeh1oPipSJPFOvbqpXD+EKqpUVKVoAMXgO7UjMI4RQAE6xHiIijPXaKCiUdLGB8eKjJQGpEIjVbB8glagqAbE74b7BCsLRmFQuqhVXlWz4EiAgvuPChWhUsMBlCmrxllomCVB79YFR9DQQBWCkAOoSN2Jy+C9CKipZRVYZvbkJWb01KU+eDxUhspjrqigcTzQtadhiveh207GiFLJ2L8612MH1+tzAndO1UsCVORa1ddiGzFOMGhHj7rQXIuJBBsu9JA1bMypduacALIFaY6LWF3iOC0bm/EYrhqrLD9Dgs0Ro5UOIod7D0uCYHYfZ+9poCL4VOVVAFWuOoUqkwADAGoPACcNN7ltKk0RPOXKERq7zAlXHQFUrEDBQDK1CVA0qgSrOBeAKggip5EViKJhdDFQ3qC6daAmzVolCtNmnJ/l3HhagVIAxaByGNuJSiGh6kCAmqNiikZPtsHX+CdCxSmpQO1GgILxzcETn8FBFAPKRXXatN7MOcEGjmNZgyweCnFQ1p23+QdX+4Byxs1lYyc9iYAAtRDw3QpAWegVWKoEKOuqhesWUJWpltY9qMdUsM0lD1TOvwcZF7n4KPs9Rc7aRL93Eh+FMRQbGr2/+hznMnbu4NhgapDyClQUgO4NKdUDZ+hEKZDtzJUG5YfGhOtGFQFUHoJC16A2WtroYVvOwVjCYCk1Ki7HfSgSvl0yqy+Lp8pcNNUARdUqBi9xgfq+mGeOV9uEVN+PWpHqBqCmAKBOcABlXbSZG7EeQAF4NDxxG22O26sBSoMSn485x1GmhrFtG82pdIsm3MUxrB43cW6w8CUN1tHL7igd8wTmOuOiaGz6seLUUF2XHrccXywvAIUgd7qjo1l4IxbB3W3deHq7Cpj0ecY8ISdI6Zgoqk5eedLqUmo7BU6EEOZdwkavIEbqZRv9s2VB323dl2MvlSuAyoK/9T9/HUReFGiuy2uAwnFRoWbQhecUKBc8ruOfNBwxuLzoPMvWBaiJM20QMuNfAoCC+uDUiuWn2KBxuPAWX/2gc+HBADsX3tXnqqDyEwzrRcwMY2HYX4gJooEc7ab/X7w0i3uJXS+7W4GyihQNefFim4AoLmew+kbrsvMB5dMWSRzU5hvvlIDy9ReeYtdNEoDIT1LAmlp8l8wDgJpu35uOf9LgwuDy7L2mJw34990UoPzszSyWSt8/3M4/C54p+NtoEaS80pRQI+NzVKq0W4/GkjkNX2wcc4Z0UqaeCMhESwqIMeHyAyUKlFadUrCUOgaDRaNHl0q8T6MW59IuB136XNBeAqC0f56hUpKa8echjmDpAqdR1qtRKrDa96M7JvudAhR+iE1ZKgA1esoiceP5+jWgeeUqc+EBmvmurUKWneNYQB7XJwDlVEqtrBGcmIdKmHUNanen1KMAiqpeqq/xiRVttOKYKASK412Ky9a5l7n0RTZbc5ksf6DfObc5dmKVikDEHwEoL8duuNTCe+QWjMt7gDorXNlcq05ajdKAVLat4YnlCFGT3Ay86pl1SoECfGg44j6hRJ8bCNtF7ZLjVkULnqelNusxGG97gMI/ejH+bio69hH0i1+0eibVPDezLlMSFhtRF9xiiTmAckHj2oUHw8IZelplQuA495PnoUiouCkLUFlMksS9RDO0GGQMyKF7BzndN4scQOE5JT4KSxc4xcnGQAGqTrTltzxoBLJm2eUN6PKToGP5MG02axHrIUmQNT7zco7tx9XnWJWHgb9akeoEoGJDGbvlOtu3EJVUoxwUjnbLGaDPZEkDxPi45x17rhszWx4wK08/xbo2nUKZHzt24oB+pxqgACi54H0XWE63nj+vZt3Bfcf3GbjrGgIUrs3qd+5bKI9YW0wFmocgtTQHhdUg1XzGHscQVab4XVuF8wE/cQHAjj7R5RFITFVq1CQ7QSE2jklD6oKmb8PaUyUxU9awWXcGgYfGC7moP3dtNNfdlV9/KgVQKI9n2BwZMJTFcW0IRSlQ5WDk4mtZn77OG0OnVOm6qUBl11nVSh/fvGmjua6kXxic7gFKxQyl+jrlwpPnuHGVANSYqUv9BAENv7ouApOOgUO90meiOFqIAvxQldLXE46Qh9dZQBKXoINB1JHVawPTZe0uFdvF9shYU88P8JRr3ZgCJByDgHHnrmOsE915mF4PpSrofzfJAWMveHcALTfm+L4JUPHY9GPAKVB+rG55wNyWGKtxeV2vXwbBrSUlweQc85FCRShK5Zhlx9l2+jzcdRNnnWgWnXa+mTBzSbaUg4YNbAMmYtDQxwkb+joeGyg526aeA0CDGYW9ACfWGUOT3g8AivCDQYyEWXNUVPwyBdMXGxpCX44z8OQXdqZkccYdgQkuMsRAYV+MipuJ5+tRcMRreE7a42bg8XpMMdfGi8YuuMZNSw/WCIoACm65RcH09hvMYuXCQ3wUIOosN5OL9a+94Bwb5HyzDXJGu3R/yWw0Bx00YPY51pvZqSDyhi683gAUVLISiHKLbQL48CyAQv9JG8zKc6uSA7pPmAeAQlxc9pmX/NipsYxBtHyEniUnQf3xebX6fB2AAkRjDHAcyOxLHxeVQRTfu3XxucBzlFMTC7LxmFKkMle3/EDRi7EWztjLVEsNSQLcyiWsz2GbqhNnbMqxyOXnzzHY3Bk/PCfViZQhpQH0QcrOCMKQiTFRM91wjMAh9brlEcQoOVcHfkgweJyARePHPkeeKldUPv78DI3cKdEK5zSmrIfltPqg22/bod2W2YxFqijSTqdM0bjH/SL7Tr2jCuP7WilXXs0KlKUN5rQrsuU40CYNTwAdX5cKctcAJbwtEF4AACAASURBVEqQet/yXEoR09drgNIQhWvkukjpImT5c1FAfXxvD+2T5ot6x3rl+rvW+EUyZekCrP3kgsdhyLBiOd6djDOnbAGwAVAC8A66WaecU5+D0e+WIJUcAxyribi8ZHl1X9QrIDUhi4+SMdIgeHz8jCXisgM8+bWextlPsAAgAE/47imNfq1cA0nKlTcQwIltFFAiBHL2YKSgufYKVKm2x/tVfaMBCWX1frwdAJR2N3S7reGJwNN2HgNUZrwyVUof8xDl14eyRpPG04KShaVgRp5fdNOutcFyk2a6T8KIsmHviWfUfSfT2ZU7j8pObPDa3bcxSZ3XWQ1QcE8yJsoDlFKi8NwzFpzq10bi4pq6b7BtXbwp2LDLBsQqo36f2M6/UypF2UryhCjm/n07aCraZ/nqPGtH3D6sxxKP+7gPLGQ6FS85Yy8NUZ2/35L6Et/fg0tHx0vFBjXYVzBFeMjnkdtFKUUEmbbzlJHr9h5QNGioxVjTjSQGPAOr/PPXP0e4Ym7BZoOZPWWpGTP1BJcQTJ6fSdf/xzhOmHfYJjWGilYopyE7duxMD1D5fg7fj35X8u4USHU7FqqupxI1gp+Kuf5SPxtPK0pl23F8kygvAAwFCx1tt1FHt20oup4A5XO4IB1IuWs4Fgg7HfVBVBfrrMp7AlD9Ak+y2GGoQOWMV0IZEIOrAEobRzGkDpbSAJV9Kw8QNUnWluLsPEKbgwEHBzCWNsA6dNP0xPjhg8PTl5jZi04Tg9fdPbqHqACglAoVA0TReBF4Cha1ZB/bPA1P7QFUCqz0eAm3XfxVYszJuKwAqXoz9krAJ15gs9v9ApBqE6Zs4LBWc6ybpcoYdXK+FwAVt0MHGAfG2qkh9lh9eMoDARU+BVDTTjBjp7lgcuUO6394imGJEMU8Pl9vH3FQNIwpY4Zp+XgPqb7Kjg0ckBrhlte4cDFmsSKmL4yTivdHTLAri/ug8LGzMjddEXREx9lv3YBFv19LqCMsSc74rTw09scz4h5xP7QOUPGv7V7sZ8HjACim0LiWwVQGUaFKERhMrAXllacTzKKrHzQ/uvocf2ySCzCO3TnWWIaKSn9BFO6Nb+bhY5LdwRMMtQUo5FTNcrlT1jIlCpCYxUOFABW68jREVapQBVDSCUAF77hCgaoqGwIUx1IVSIVjgx+nZn8MOJACiJXCVD1DSAUFOQ2bQE0QhB4ZOhhGl2JYabrfHwBlnydcd4jt93kAU/p5s35h/6RyuQeWSYEC5eAJAIVYKN3Hye1+V6kITzqvOV5cW2U2XokbBQbtuAlZHFSqz8Jjus/VthprfFdNx1id8qkxEkMT90Vxko8iYx0nwkP9eB8afOax8R+w+0XQRKhKgMzuepbWAKrMCLYNUWmAqg9SGUAVqxUanrjNoHHvT4+CkmVpAxp7NaUdCgsMo1Wi7BR2mc0mkNKeqgAjPHP+KQI83QOUhqiCJQ7omgzceRlETdMuPPeZEx0PRWhAXqpCsU+jvBOAAvRUgVHT841BCqpaMD4it6/EEtqFOH1wvutjzuwEzLbzjhuOvwKYqu3iQyCyi0NCDJX+3Epo6AAUysBhuwuY6iVAMV4rjrsqM6h8Fp/HzxrsZ3BlAep6M2fqUlGeAE9MdoZdVpb9mYQpqlU9hyoNT/F2NUyhf+CqosIQ5zCcAA79jHzu6jwaX+zzCKbK3mPdc3XGCJ6D8U3Dx7nFL/HNuh5O0d9d4JG7r4YjD1DNoTFXb49hq5WPCRcZv7bBifVlqhOhKc7L1ai04aWCYHMxolSgYqMbHc8MqFUfqH6xvcgBCRIPJcHCgCi3FlDbhhAGrlv3TcH1OQXKBZSLUQ8gyj4fAAoAwBgfn6t1w0KIitQZBxrszzhPv8diKOZ7KgUkvtuyPB4Pap/3yPISRSqCKI4T9klOjXKB5oRvvo9eve/SehMgZSGKRrLaOHo3E425Uqfyxi8ydsrI1TVie0I5D1R8Php15hOxthd+jGXgJNvTT5Rj+X7LAxXKaODIbfcEqjguUnnxWEF/CECUGEIBKLQ58Vz1+iMaW6qv9fvo1fghOMFNh6B4qE14ZqZezzLrb+jI3c8DE4PEFThpsCoZA7k6+6ls1wClIaE/tq36VARIBKmi89nxYuObGWAqT97gwqjCWNK4OsMZG0tv6CMDGUCUBym6yHoHPqWGsACWUtdY1YPtjfKcO2+RmTbfAlQeorJZeYQF5vEYkvddEAeVfochCGfvRoGxAh7/bvV75futmyfqi+/LJTT82NBqWjROuKYY+4Sr3IcAnq0zZkFqN46ffoepYnUKBq9Xhm5310tjjrWfMoA60YwFPLmEc93EWqUgRI61AlUpeOKxNETVASi48DyMs50dw1RibAGoCLRtji+Jf5pjRpSB0wAHCAnojmFFt5lwxDJ6n9uisBGeOMOuvqtyd8ET7tsxQPWny04b1XKAygApaai00dIzuLgdBZd7WKKBLAWo/HR23W5sC0A5JcobQ0z9B3z4mKPdaAhrwVQETjpGKoIoASgXE+XVJ69IpSEqNa7K3rlAlH9vGfzmAaYCoOrCUlU5jhV8AiiZrCKVHJ8lIGXVKPV9PQ3gbvzsdpDC+BkIMKUM3u6Gnl7cf9RkzLLNoInwhHzc9BNdjFmBqiLqSlqVKlJrklBFUGk1B0yFIAVwqVJgECcVX5fb7xioon5UIIW2dfp+RXUaN9t9o26WV5syd10/AEQKdPQxQo/O4/MeglyAtd4v3dYqU7ydD9benZBUdu/GAJUycDEo9HI/UySgNjUDpri8VzDqApQzjjCMgKvMQBa4aSKD6BUFBVEEKUKUNYI9im9pxb1XMjvPARSeBW6mafNPDoLK60BU0fgqWrLCv0MPUfq9ZNDEdxUoTgp2vKpYBUh1z+fGSNyupWbKd6830y582iy84sUsXf5rsyBK81c9b5jmrXrezFv5nKS5K58zc1fYNGfFs0bS8mfNnOXPmlnLn9n96dJnzKwozbz0GZOlp83MSxukS542My952syoTE+ZGZdE6eKnzIyLnzLTvwZp5iXPmLmrXg7SvFUvG6Y5K1/0zzlr+fNmzopfS5/j2dEHub7xfVWnb20ZvIdcavIua5ZFeyedv8NMOHd7MuEcnqeTcaTbXz2m8NxR37E/a46pqRc9aZCmfP8JM/mCnWbSBTvk2fAM8ox4TknpZy3qg46Pn/OIGfPdO8yxY2dnSwPEgKThCduEIn2cxxrnMThhf8+Bp8YKVH/HOsUg5uHJx8bUd9nF8KT3y4wwDS4NsM3twovZsXoAhf7zEKUWURSImuqUKKUmpNxoXR/rR4iyAJUFleddeYv8t/LYL8jj9859/c64Xfbu+H74DgvzulDUSTkFaWwP8sknrTFLNnxolqy3afH6D02Q1n1gFqm0cO37RqcFa943C9b8Q9L8Nf8w81cjvWfmMV33npkr6e9m7nUDIF37dzM3keZc+3eTpXfNnGtrpmveNXOuedfMrpX+ZmZfE6Wr/2ZmX/03M2sPTHjm+Ws/lrRg7ccmldCneDacW7juE7No3Sdm/poPcs+MPghS3E+yX93PeBfJVPd9FpTDM0xd9WczdWU6Tb/8HXvfgutrjadE26vHVXo8FY2pmVf+1Uy7/B2X3jbTVoVp6qq3jaSC5yx6/q6Ou34dd/rP7fR8AhDhqAhmUuV4rDDXsKTcdD5Avh8UNz5Xi3ktBapIFaBh6688B1ABSHWuRnkjDCXKKxnYjlUD7sfn6gLUEv/NPIBCPrbFxbUoiOqJa68liKJalsudEhUAlATN2yUOQiWqwJUXqXcYY0WuPHl//r3xHWV5ITgBZGpBEZa0KEsV9SiIQlswrqacfrtZsuEjlwpAat2HAUQBqAKIWptBFGBqjwApwFwCpHAsAyls1wQplusGqBRE7ClAlYImObYOwASo+sgB1EcCTwAomz6Wfq56zgCq0D85sOoQqvi+auYCUCVQMe3yt82sq/5LntW3+Zq/dQ5VLcIU2j7zqv8yM674iwHoAaAAg4QnD02Ap5Jn7PW5cct+ka1vRADSkIFj8T7LVeZOVdKglNuO6tf3GuDb3xo2apIpSseOnmSOHT3Z2Jzb2N89afjoyaY0jZlihneQRoyZYoI0dooZUZZQXs5PNSPGIrn91L1zfZX19zHHTzLHHD/Rp6OPn2iOPm6COYpp5ARzlEpHjhxvBk6aYI5UbdPtZPvHTJktz3P0cXgul9Tz+mdPjMFjR+XHm3/3UT/Lu+M7kPfB92LzkWOnmiCNc/vIa6VpZuS4JilRb64NM8yEM+43i9f+NYMop0gFShSUKaVEUZUqAqkMopQidd17Zt5AU6RKQIqA1QZQ1VepAAQRKAxglQqApCEK0BSmT8y81e+budf9IwOo9Z+YxS5BnayCqPi8B5QOgKpTdQpwVBcgCCaAKkAL4AXvtDGMx3DXEKo0OMWqk6hpTn3yALWb4Gny8t+Z8efuMkNGzDAHHzEyS0eONAcj6WPc5nGWKcyPMwcfWSOx3j00/9ZBhx5lBg0Ztjft7YO9Y2DvGNg7BvaOgb1jYO8Y2DsGao6BCKCONoOGDNw0eMjRpjQddowZ3GI6+LBjDBPqPXioSzw+dJg5WJI9HtzbtVX3J2BVpwMPPcoceMiRQTrgkCPNAQcfEaT9Dz7CSBp8hNl/8BFmv8GHt5cGdVsX2mPbhbb5xDYHz4JnO9LIM0bPfeAhRxn0h+4fC/cA/HBMBv3s3jffk31HfC82P2ToMOPT4cPMIY3SseaQw/Pp0MOPNWXJXlNxL9cuO4Z0m7NxlnvWqC8GHXp00Gd6TLGfpc/5PtQ7anUcdTomMf46SPsOOtxkaajZd1DDdNBQs69L+xw01NRLh5l9DorSgYeZ77Scvn3gYSaXDjjMfBtJzg0xBxxytDloyLG5NGjIcKPTgYcOk7KDDxtufBo6whzs0qDDjm29/eiPfZiC/irvZ74PyQcNlXb92z6DzL99p7v0f/YZbL59wBD7vpuOk6ryfgzh/Rxq/n2/Q8z/2fdglwYb3Jvp3/YZbHzq8pka94nuR2wzxe0IyrG9rv95Tq7luU7yGu+T7dN53NYBsP+tQUO0AhUaqthwDYT9/gQoGi8YZ2znAaqBoYPhSwCCgEMEEzFEeYCCEeyFAaQB69QIqjbp9gXt9iDVDKLQZ/G4kzEQgXJ3AKUBSUOPPm63U9CUAqzwmK4z2lZw1wSk4j6Jx5YeV3Y8ZWAewnjLQN7pGOIY7CDPQIpQ1RCmYCQVUGG7HlCxnIKqtmGK4HTAEIEAgADSfoOPdPA03BwUQZMGKEATfuAMIkApeDrk8BHmkMNHmsE9gqgYLJtAFd4BgKQxKBQYVUAN2tMYtMsAyo2T7xwwxPzHfoeYfy8ApxxAFbSxrWcN6glgR4GTBpPKbQVJaHtQpzqnAbFou86zsz3+XjWAq069PSjzLfuPmC68gQ9QaG8SoiKDSvhpKw8MNIHKKVG5e8QqAfdTAFWoQmUGj4qUBxIFLPjn2LWSoI1WRwawQIViO536weewiohVokIFDopcSoXKj8tCiKJKKHmm6pQrUHlQCgGoXG1KQRWPxfUUql81QKrOONMKnlWjMpVTg1Q8lloZRx2NnYQCqsdjB9shUHUAU10BlYIpqC8tAJVXoxREAfA0KOW2CUyHWUUK73ewgicoUIAnpEMRfzJ0eE+UqBii4v08VDkoPfAwUXMCGOjGAO4zyHx7/0NbAyj0v4DT/hqcoDxlihPAyStOst3PIJC7P9pDAGqaq2fxYKOOJe+lz7v7Vb1D3b6qsgPg/B6nQOV+eQOoDkNq132Xqo9KVOqcHFNwl2qnHEtBVKRAASq0scvAw7nyIiUKqk+rEAWj1dgYNoGoChUq4c6L+9MCVP69e5WwCKAAKjkXXghQhJ+28xCmEu2ogqgUsBPOVV4JUeImtoCu1ahWxlHjcVMy1jqAp9gdGMIUFKoOgapjqFJA5dxaMUTU3dcghWty0AQlSoGTd9kdBpVqmBk8dLh33RGeCFBDjhxpDjtypEAU71O3XW2WI1BBZRP4iI3kPoPEJdYJWEEhAvh0MwYEnA4cYv5j/9hdVwZPNeEhftZO9ysVIsITAYf7qRxlcJxlXY62pY7H5VCm6jlcPYBPD3hV1wyQ83ukApUzpv0AT4XQpO+tAAoGPm6n3c8rLDpuRSsyXqnx7i8bGxWrB3SbNYeeyHjFBquxMQxdjGyX5CUqFGBRP3c6Hirfn1aJDMFZlEKvQiUUKEJKAFEZQLUNTUX1FcIU2+fypFtPjzluJ8ZbJUghHs29Fw1SXY+jxuMmGofx9fG47GJ/oAFVN/BRBEsanGLV6WDntiNAQX1COuyo48xRx44yRxxzvIUopXZZt6GKwXKxWN20vfTaA4ZIDFHK8Nr4osHVRjlhYOFmY3xVY4iC4oT4swMOjdx1eXAKXXYONBLtST1f18cERmLgifcjGBLoIRDpnOV4jPuu/3OwpM6zzrLndjCMdwq4tZBWA7jK6uznc3s8QNUCGxqZXucOoNLglAGANmzcDgHCAkWmQhW48+giU3lXxi9lmGJjVrlfF6KcClUUVJ5Q6lL9OnhIAqB8vNrABKgQnjJ4C5QxBVJJiBoaPrdVQI/JQTvHF/Jil54CqbbGUuU4qYCm+PrU2Gzh2J4MVIOGHJsFhmvlaejwnLvOuuxCt92QI0YaSUceZw4/+nhz1LGjzdHDR5uhR40M4q0Yd1WeK8BqwW0J2BEXGA3iPoNF9SlUpliuJP+P/TsDqACc9rPGniBHWNJ5ptY48ChpU9fAxLoDcIqBJ96PQSfer1ke9y6EKFcH2xfl6C9Ak48bQz0s45/FwRT2eW6A5ZUAdezxE80169YN4LTeXLMuS1det9qsuPLyfnHpxfBWu6/WrjPXJNLVa9eZ8rTWXL02S1etXWuuWrMHJbRXtb/8WW1f5PopORaz94+xcC3S+iZpg7l2ffN01XWrzcorryidjVekQPF4BlMJlx5UsjIlCkpb6kdBrEbVnqmXBqmZS5eaFWvW7560er1Z0Y9p+er1ZvemdWb56ixdtnqdKUor1mwwq9bdUCtdvu5G49P6G83lKl2x4UZz1fU3+XT1DTeby9fdYM66dLlZ9r1LOoCpMOBdZg/6GYT1Zy0ClmRWmzO2VK1ErWhqSB2AiYuQEwYq3LmYcenjnFyQuDX4g3OxTgQor6IQApq2s5PypRBDOKoJRYV1sZ50jufPYErBE/shyDN4kv6Ua9m+gryTfumHa2oB1Ctv9pleplff7DN1k27Hq2/1mTi9/Hqf2fHUrnYBKlI5rOsoH38DgOJz6Hbmt3eaV97Mp5ff3GlefqMs7TAvvxGml17fYfao9MYO81LwDGXPu9OgT/J9FY5H6fPEWMjGxi7z6ls2vfbWLiPpN7vMa12mV9/cZXY+tatjgMrgqUCFUgDVHKQyxdMrd5Gqp13HonbGsVEu1u7OnfeZR159am9qsw9eeco8XCs9aR5+JZ3wTra+8XxxevN5szVK29583mx7C+kFsx3pNy+Ynb/9ten7HdKLZpdK2377nLn34cdbAKgYqLjPZRmKoUqrXh6g9juksSIBA4+4JbjgUCfACPVJTFQEVIxzQtA5AA5G3oKTW55ALU0QghMgoh/UkghGMnDRENOf24Qe9/xB+3gOOc9ngfbZMV0u2u4HEOpU4aoFUL//zz7zxVc7e5K+/Gqn6Sj9s898mUh/fbcFgAIwEZrELRe5SxjrFP36B0Chr/g8xX22w3zx5Q7zeSJ99uUO89kX24P06RfbzaefM20zn36epU8+32Y++SyfPv5sq+k4fbrVfJxKjevMt0vaizarZ/DPFj33Z1/sMOiPuJ+++DIci9Lf0Vj46p995qt/Me0yX/3Lpn/+a5eR9N+7zD+j9K//fsI0SX9774muACqvQnUKUuF6ZYEyGqtRQ4rXjQonL2RqFABq62+fMU9+9Lx5QtJz5omPEunD58wTX/O068PnTD49a3Z92GX64FnTV5meMX0fuPQ+8mfNC1++Zl748vXK9OuvXjcv/hPpDUkv/esN88p/v2le+//eMm/9v98m068/eN38cttOcenB1alhprfbFqwITHEOEBLDW9OwAnIAQrhOJw1TXN8L99JxTgE4yTIFmfHPwRPaUwQPNduaM+SsL1l3f0JSyb34bGxrYU6AKuknXBs/K+sfgHklQE2eudDseKo3AEXQ6CiPDCZhqmuAIjxJziUTFEARnpBrgBpyjJkyc5H0FZ+nGKAAAHkwICjEAIV9DxkCUhlAAaZah6gUPOljtUFqm/k4hju2N4Ao93x4zgCiAJMFEBUB/Zf/3JkD6gyiMoACSBVBVBN4+tf/PGEEoJ7uXIEiQDEPFammLj3EexW59MpjoyQ+CjMfXTB/rEZt2nm/efCJJwWgAFEWpBIABaj6mgNU6vl6AlQAsg+ylIarZ8zzX7xqAEdFyUKTAqd/vmFe/tebAk+vl8AToIoANWzEGIN09LGjZAkZwEZvAWqI+faBNsXwZAHHzoJDHFKl4uPh6RAJ/kYclE0ZTEFpEmgCYAXrOTnFCUsTMCn1KVR+CqCgU6OfAgkBkxKQCdxo3ZUDHOL5NCRym+cC9SiGngCidFsK+kmXZ5+xD7g/APM9E6AK4AkQ1RVAJeFJgZKGpwqAqoKncoDKq1AhRCUACkASwUrrChQhqjZAQQXLt0vaGQAUnieDqBAgawIUlMxoXAhAeSUqg6gigPpnXQXqf54wAUAdcaw5VKeKVcoJTEV5JUjVCDBPxUZ5V55XpcIZoUVB5j/Zeb/ZAoD62MITIaoQpL6BEKXBqj+B6smPXzAviaqUQRJVJp2jDMHp1f9507zxv79Jqk5ajYoBiiB1zPDR5rAjR8gaVz0HKcwGdDCFXAMV7v3v+7pgc21sXcyUzO6i8oScKYAoe9wqTQqUEsCkASKDiBIgKDP4BAaWifdxnM8k5zSE1Ntme0PQq76W1xXlWX3Rs8fPkmt3VJ7PHOesZw/IdwtAUaHpKI+MZGw0OwIo765zrrsiUEodV8emNFLrit14UKJEeQnUGKvOeNCIlCjvGouAZY+DqJwKBXdmHqJiNx6A9cuv8m7dlArVFUA5eCoFKMJUByAVwlOJSy+Kjwpn6pWtkF+uRqUg6id9DwhAPQWAYnJKlIUouPYSitQ3HKQIVT0DKqdSAYhe/9+3RFV6+V8AJZX+26pNdNfVASdCVBFAEaSQHznsePmUEJWh/gYqe79MTaKLLteOyH0nKhTUJn56RaktReDA44UAARCoa/QJDSzPfV2HPxZCD9qRtaF6m+3mdfF+XJc+H29nZRMwlHoW/wyJ8rlzeJaoXNd1RvXF9Xe5v1sAyhq7DmKfKuCpsQJF+KErzitQdN25HOcDl1503tXTDKCsG68oFspCVBgLJSpU4M7roRJFtaksr61EJVx5AL0mKtQXeZdnrPJZIA8hKgVQxW68GjFQTQAKINUBRPGaDKbK3XnNA8wxnqMg85KZej/1APWCAUSlQCoJUISqvSCVc22GUNVd/BT6/s3/mylKb/6/35o3/u9vRGUCMOlzhKM6eR2AIkxBlUJIw3egFuXWkOrxsRJ3X6ZYqTbErroEPGWgELqx7PGEUaah7zTXhlzXodqGe6eAJj7Wq33dJ8Xb6JtqqLNlEv2o+2EP2N4tANUL5YlKVCMFKglQaTjqDUBVxULlXXkSUF4AUQSSvCsPANMwqLwMnOJzrJvHuR/kBa48B1JZYLxT2iL1LalCfbUjN7EhqUJJMHnmwmsfoIabQ49Ailx5qf2GQJVBFNSoapAKlaiSuCj5URBBVBRgbmOjjjQeoD55wTyF9LEFqbQalVCivqGxUVSgqvIQphCk3hyonv70BQNwqgNGdcs0ASiCFOKkhhwxXGa39TtIKXdfBk7hDD+0CSqVV54QGF4AJnkQcAY/AJxE0HOR4ed1/jxBgyDhFBiUU2VS7evPY2E/sG267dxmjjLcLstZ156b9ztAdQZP+fgWAlOc1wYowhNyr0AVwVO9480VKDubjMHjcW5n5NWHKA9QbcRDEYbq5AQlluV+Lk9AlFOh0HYLUVksVBhQvl1m5OlZeVDvkipUpFSWzsZDUHkwG69EhVLqU+jCI0DZfMgRxxokC1UJsGoAUSFA0aUXgVRpTBQXEy0OMK9So37a96C48J7+5AWDlEFUGqS+6TP1qoCp6jyBiuXqAtUzn/66Y7UpBVWdABRBCooUQKpfXXux8qWUKYmjUvAUzq7LKzsElBAEEi46gE4APE1goAguWEd2nu3pl7zwe366XXo7a6ftr9Q5HkOO8np/z93uV4DqNTzVduFpeGL8k/tF7td4cmUQeBsfy+9bF1/HMxYTU/UJU6llDbwrz8UL2bgoCyABREUg1UiFIgzVzQlLLM/9XF4MUSkVKoSoRCxUUoXKA3cpRLUIUDAaOmUQFYFUA4iCSy8EqQigqEyVglRJXNRh+bioQcqld/cuAtSvBaA8RCk1yrv1gtiovWoUIajNvAyooA6+8b/FSxOkQKnoWDcARZA6+tjRshjsbgUpglO8nhOXJYiAQUNKDqBaNfxF4GEhA+0gbOg29cd2+Nwx8HCf7YtzDUQsq499fbb7BaA6AieZVZU3hLHiFO/XUqA0FJWAE2ct5YEpgiqnYHWqQGFGXkexUAFAQblJQJQKKu8pQAGcAEuVAJWYmVcSCxUClA0oJ1wyr6VC1Z6N17kCpcGpaLvQzVcCVCE8EaYSEBUBFGKjmrn08iAFNx4BCgrH00hOifIgJS49pUYpiErO1NsbE5WLieoUsKhWaahCXS//67Wu3XltAFQGUqN2m1tPXHZ01Qk0RcsT1HLhtWn0Y+CIISNTxDTI9AycohmH+p5l2xngVT1Pm33XSV2p9rVzbLcD1Guv3Z1ceDK1rk8MS6n9SoCK4SkCKA1N9dSnzAXYOUDVBri9+QAAIABJREFUCSjfYV5+9Sf5BTYDiKIbLAvQFkXKQRSWFHjx5buq46EIQd3mOfVJx2FFSlQOovAsqXiovAr1ebSwpkxSiN14CYDysVAtKFBFwJQ6XghRFUHnnYJUEUSlljrgjwX+HSC/Z9cWceEBoDKIykCqyqVXOFOvRZDKQCK10GV4rFNY2ROuy/rhWQn2f+Vfr3fs1msToABSRxxzXL8HmHNdJ++yIyxRfeK+yvPQ0InRLromZbh12QyeNDCxTfpY19sdghPawnuzXWGO58Fz6ueq2k71y8A/1gpAQWHasfOH5phjjjE7d93q41LqKE8jRw735akkdApPAKpSgNLwhG2nHKWMBo41AihZSLPeoqPbc32FWB6rQhUpUXDloa/0Gknobx9U7gPL8xCFcgwsHzFyeG2AwnVxGjFiuHnksRszpakKsgohKgMo374cRKXioSxA6VgoKFFY1gD1+DGUWtKg1srkeQUK9fpFNlUclF9IM3LbpaCp7FgOqErUqNCdl1ChouUN0ioUlaniuKgAoJ7YYrY8+ZTAEyEqAykbF/XIn7aZidMm+QBz79L7+Hlz7/P3mWHDhplr71pbe7mD2x/baC5ed5lXah75z21m4tSJfj8DhQyOHv7PbWbC1ImyUvht7vpUufjYQ3/Ymh/nI0eY2Uvmmrufu8/fc3cClH7+uG+K2mWf81lZ+PTFr16ttfaTdud1C1CIg+LHifcbfES4hpOs+K1mxsXxS13uM1Ac4OThyalQAgAJt10IAU0BoD4ghPChr8vABGWknQ5WCCS8tuu8A3him/L9pPtKb+PZ7HNkefi82fG43J6x3xVAaUA6/4KTzJVXnW2Q6+Nl2zB2odFr7rKLVajGABVBFaGJOeGqKJdyTsWiAsVnpjGPc91X8bkigAIkoK80QKVjoTJXHlx6PibKqVCoo9SVp4BIyqp9uOcefvRGc9xxI1qFKNxHL67JNvugcqey2Wd3a2Ql4sZQD/tT3kENFSq9JlQIUai3DKBs0HgY+1QGTEXnApAqgahQiUpAlHLlFS9x4GboFa1e7sY0xvc9DqCe/exF8+ynLwYgRZfe7Y9vNKd+7/RkgPn8kxaY7553igWios/BRGrU1DnTzF277k7CSwxAqX1cf+euuxOfXcmAi9f98NE7zMkXnBaU3fHe0+aaO9eYWYvnBMd5TVFeBDNtHi/rm6L7wMX3xIdWlXru8xcNlCnESpUtcVAXoASUjh1ljhp2vDn86JGydAdWtcfnX/Dx3qIZcfr4t1sEKg1PWEwzSBGYEETyhlwb+qptQgONfggOvIfO4/vpc0XbuKboXOFxglIqz8EN25/PWX/c7m/6fkcARUBg/s47D5ipU8ebTz7dZqZNn2Cwz3PIcXzlyjPM8cePNAsXzhBXFAwdDJNOgKEvvuozt/zwMjNlyngpv+yMRebPbz/gV5lG+edeuNNMmjTWnH76Qn+cIFUIUBEoUX2KQYn7zIvAicelXAOAevudB8yUqePNx66vsE+jjxzHV7i+WrBwunnplZ/It+B0P2EbMIH8v959yEyePM78/f2Hs9W8P99m3nv/YTNv3jTz0SePSzlASVzHggXTQ5j6dKtch77/y39tkfI+pkmBFCAKSpQ+d/MPLjHjJ4yR97Lh+u+bDz56zJ/HfX+2+VozYeIYM27cKHPtdeea9z98VFYph1sR56mQYR914ZmOO26kOX3ZQvOHP/3CvP7WPQbt9RDlAOrDjx6T/nz3vV9JPexL1PnAg+vNhAljzMSJY83Dj9xgNt55uRk3brS0fdv2W/z38VD2l79caya69q1Ze4H57IudHppwvhqgMPOuZYjiMggJmAohKrHEQVOIKgKpIceEAFUAUSt/cIW54tarfXwU3Xo33X+LWXbxmeamB35oll1ypv8cDGbq/fzlB8zCUxebkccfZxacvMhs+d2jAkzobyYCAepHGj1ujHnkT9s91Pz0uc1m7tJ5so/zK35whb8WdQB0xk4cZx59G9dkywP8aNud5sRzvivHlt+0ylx+61XBeZTd/u6TZviI4f5eD/9puzlz+TnSBrQD24+90yfnoX6Nmzze/Gj7XWbmwlnmuNHHm1MvXGYee2envx7Pd+r3TzfHjz7ejJ0w1lxw9fflHnzGu564x0yfN8OMPG6k1KEBks/PfkHO68rqffydPjNu0nizYfNNZsz4sebSDSt8f8j1Hz0n7+THOzaZ7557sgEkP//Fy+aFL182T7/7krnv8e1m6FEjzJAjhwsY4f/moCF2Bfv9Bx9h9ht8uIDSvoOGmn0PGipxTvgYb5bwwV6VagIVPvbbyTIIGp4C5UmDlIIoQknbIEDgiPPUfeIyZftsb1mZ4FwAToRJC2KptsTHgroaAFdcz9d1vzZAaSCKt39462XmhhsvEmi66eZLzK23Lg8A6pYfXirG7ONPtpr7frHGLFg4w0MD/hFIfU4tuGvTlWbTT64yH3+yTdKdd11prrjiLA9KKA/A+OiTrQbwQXBiXguglOsuBUo4ljoOaEoebwBQ7CsYevTVD29d7vsCx2xfrTMfffy42XzfagOIYrA0nl2vUG73t5tVl59pfnzn5Zk77/Pt5s67rjA33XyxBJajHGOhsA1IQTr1tAVmR98tGUR9utX8fPN1ZsWKZQI/UlaBkwYmfe4X9681d99zjcDXO395QNqNfZZH2XnzpprX3rxHQO+mH1xirltzvrtvCFCAnI13XWH+8eGjAlk/3rhKng+uytNOW2D6dt0aQBTG08pVZ3jI1AC1fPnp5h8fPCpjD6oZ+unDjx43W7f/QCAKMVBIaN/8+dPM7/5wn8A+3sm69d/30ITz/QVQgLBAiSqBqFJ3Xm2ACt15qbioe594SFx4okABoFzS7jwoTDDCT3+SxUbtfO8pM23udPPon7abu5/5uVl4yiL/OZjH3t5hxk+eYG68/4dm29+eMJdev0JUKiwK+as/PG4mTp3kAQGG/rvnnmJuf/xOM/+7C83Gvp96KDnzsrPNup/dKPss89DvcT1ceRaYlpxxgtn09L1+v+/9Z8zsxXPM5lcfkGMnnXOyAVCxPPOd/3jKTJoxWY5vf/cJeZZVP7zKwF356Ns7zHlXfc+ccdnZcv6O7XcJbKEftvzuMbP970+Zq398nTv/nHn8L31yPVQtXAs4W/XDK833V18ibcczTpo+2Wx68h6z872nzc0P3iouUUISn+1X8mxZ32x19V575xqDPmW9F66+RPrv3hd+YUaNHWXOuPQss/Wvu+TY0jNOMD95+meiSEGV2vX+s64/Hgz6YNufnzH3PrLVCBwBkJqmAKQIVQqmDqqnTjWZwVcLoAAVPYKBGDj0fhFE6DJ1tlFPaTlCE8pxm3ngEswrTWwj6o/vw3N786zfCgGKCkvslorh6fMvdojq9Ps/3CcghBwqFI6zLIzT+x886vdp5JDDOBF+kENlePe9h/2xv/39YTN9xkS/j/JvvHWv39fXYjsJUCn1Sa3EzGdl3iuAAvygb2Co8ezIsY/jEgP11Q4x5P/44JHkx4bx7IApC1GZS++V135qJk8ZZz74+HGBqA8/ftxMnz7R/PFPvygFqIcevt6ceebiAKAWL5llnn3+x40A6sQT54gSRmBCLuqWgy+0e/uODNSgKGFM0JWI8wA6qFA4/s5fH/Quvb/89UF5FgDUrx65wZx51hLlxtxhliyZZX794l1JgPrjn34pn3f55DOr1r3zlwdl3GBJA9xTA9QTT97u14OC+ob2E5pQlttY/4kpi4Gy6z61oUDFdeQW6IzUqEyJSrjyoniofDA54Sl058UQde+TD5mHnnzKPKfgiRBFlx5gaOs7O22QuYOo5TeuFFUKahQM/+QZU/wq5pfferW5cM0lXpECYMDQA6B+8NBt5rQLl9l4KefaGz95vChP56w6X1xrAItH/rxd1JVt7z4pEAIFCOrUzVtuNadeeLqHgYvWXSoKDMFozT0bzPlXfc+fR90P/2mb39/1wTPmp8/93Jy98lyBIFwH2Fl+46qszIfPmsf/2idqFM5fcfs1AkiALt4H58dMGCv7l92w0lz3k3X+HJSxR9/eKTFbhCRA43WIE4vcmdjn8/9gi+sbVwb1rv7JuuCax1S9t/zqdjN67Giz/W9P+DKILYMiZe/zrFnr+oP3pXty+5+fMT/rBqBi4MoBVQhTUKq0W69sO6VOeXhyHwQuU6AICG3BQCnQFMBa1TVF52OwyZUjLOlcQVfVM+fqK2h/VT3fhPMBQBEgdF4FUDCMUAYIS8ixj6ByHsOvfwIV4UnO/dMaMg1BNlB6hwckwAKuZxkxtp9u8/s8zrwSoJxahGdMqkklxwuvKVCg8Ix8XuToK6g++hj2EVROgMKzwk3FoHKqT8jx7NxHEDX2rUtruznllPnmZ5uvE4D65f1rzXnnneiXNUA5xhXJtlOgAFxw1wHAADNPP/sjUbwIQijL7TjX58aOHSVtwTGmkSNH+Gtx7K9/22L3P9tq3v/oMTN69HERQNnlDRDkDgBkTNSHnzxuUBdm5H306VZp72tv3C3PDdCDS5gB5bgP+xbbuMaOQTvOcA7jJAVQH3z4mJF4qP/eZTCrb/To4w0/Loy6qgGqe/ddDE9634NUBFChCtWNK48wlV8vygPU5y+Z5z57yStQhKjH394haolWpH71u8fN1NnTTN8/nha3HowzXFNcxfzEs79r7n3hPg9QeqbeRWsvMddsXO0Dzh/+z61ekbrqjuvMOSvPE+N/+Q+vMt+/7mKBp1/90ZaB8QeYXb3xOg8rN97/A3PJhuWyD7ULMUQEpof+YF3ceMc6zVgwy6y5e72vY8b8mcF5lh1x3EgpA4Vn7b3X+/KAqK1/7TM8DyXuV398PDj/+F92Sp8QuDbu+qlA2OkXn2nufALxW1ZBw3WAKz6b9I0DqOlzZ5iH/7jVwxH6GaoU+hrbooJdclZw/sb7bzGXblguChTACv0BVQ1qFK6JAWq/GITa2m8BqLhApl5hHKuM54LH1ay7tgx7CjRSx1L3S5Vrcgx1BuUBSzymwUkfrwAhfz3rUXnqGfYeG2y+ZaFgmBk0ZFhywcgqgIKh5j8TnZ9//okeoEaNOk5mSdG4EXaQ4xq9D8MKaOKxTz/fYYYNy8rE5VmOeQ6gtPqkXHeFMFSiTBVeUwBQfF7mZX3FMugrQBKBSgeV49mLAAoxPrNmTRYlZ/786WbbjlsCgGJAOeoAnNCN94NbLjUrVp0hMHPxJaean959dQA+MThxH/VwG+8Mqhn34xxlEaPE41AjAYqhAmUBCnV5gPpsm6hqeP8SUP7FdomPW7XqDAGoSy49zdxz7zUBQNm+y09OQBs4RlIABfcyAQrjD/F6AwmgAFMeokqWO0gqUpE7r6kSFQCUQFTmxgNE3bH1TnPa908PgssRUI4+jxNiggBRiAGCi08+BxOtG4V4qLuf+7kHqNse+7E5+fxTxbjDjTf3hPnidsKsv1++9pAcZxkYf1z/02d/7gHkvlcflNgjAAlUJB3vZAPIT5WyfR88Yx787SPme9deFAAYrhsxcoSBMkWoifOZC2aZ+9/8VXB+01P3uCD0Z8W9t/MfT+fOA6x0XWgDAJCuQ5y79bE75PmxveDkhcGzIUarrN4Lrr1QnsXCkQ0kZ3/gGPrjiluvytx5DtrQj1SgAFA9gygFY1ncFNx9eXWqSKGC8vTtAw413+Y37txHgglSEkTuYCA2+kXQEJfjflH5ouO8jnlRuU6Oo05/XQxNCpx476Lc16Hq02VxXu/v3c76oyuAQgwSg8epNiGHMZoyZZx5G8HfX+0UtwyCfaVMNDNKGzYYuCVLZ+VceFClaPzi8jzOvBKgHFAVqU+EpDI3HsoEqQZA/VkFjxOWkCOWC+43BMpjHy4sBGDbMtnyBgADPDsBivvWnbdd4ARq0qafXiUuL7it7Arl1n1VBFD/+fb9ogb99vc/lwDvv/09Ax3cj9Cj84cfvSEIIl+0eKb5/R/vS5bFdajnmWfv8OdRFkHieYDaahYvmZm58D7bJttQpTgjD/0Ideh3f7xP2vve+48IcLM/kAM+cU/dz9jnGMEHhrGvXXi/fmmTB6h3/rpFxm99gLJwoxWjXm1nK5u77+4VKlKRS09BVDlAKXeeCyzPARQg6vMMolbdcqW58rZrrDL16a8ljmfJshM8UDEuCsHem1+6X2bqjRK30pP+48RzT5gnahTicRBk3fePZzxArbj5coN7wL33wFuPmOPHjDKYyr/4tCVeWVlxky2D6xDAbaECasqzBjFPAA/EVkGx2f53uPysupMMIP/gGQMg2vyKjZFCWQSiU7Xitcx3vPeUABKCuXkM+VnKBTh63GgDxUmfR2A4Yr9wDO5LxEZhG2rQscMRvJ61ceUtV8gz2WfL3IRV9Z507skGcMm6kJf1hy6nAapx/JMCo06vzYCqAKacyw8AhfWeJOe2QJQLmlYAILCApQ2cSuWvAYQJiNlv5REqCAvcr5vzOp3XvbZuOdQtZQWeVIC4gqdUXZ20yd+rAER1nd+k7a4ACrPlEPSr4Ynbd9yxUgKisX/bbcvNY4/fJDPMHnn0RrNo0UxvzKA4/OZ3mz00IXA6DiJfuGiGL68NIQ2izgOA0qDjICcAH31ebTeCJ1znlK0itQ6GnH2ljTq3f+T6Cvu33rbcPPrYTQJWUJXw7FChkNBXb/3mZxJvRGCA+4oQhWsBF7fdvsIGlGMhys8zgAKEoI7X37xHwIQAc+FFJ5szzlhkrrjyLAs1KnZJgxO2sQYU1CNAFM8hYPzW25eLyoQg8ttuX26WLVvkz+OdnXDCbPO73+M9/8rccMNFBveU6z+zgMW23POza2wQ+QePSgA4gsjhprMAZRfXvOjiU8wZZy6WZTP0rDzcpw5AYbzEAHXiSXME+AH/N//gUnPJpac2UKB6675LwVigRiUUKatEdQlRh1l3XhqgrDsPcVEnn3eK2bjzJwJQz3zyazNnyVxz/+sPeYDimlGnXHCawXIHWMH8pHO+K266rX/ZZVbctMpcfce1okZBxcEMt23/5WJ2PnreAAIQ5A2AgoGHewrwhHgguJyQJBB8653ml68/JNcjYHrXBwAQ65JCIPlZK84xcOdpSCgKIL/pwR9KHBbLQpW67MaVAkEApet/cbPEX932+Ebzsxd/KeNp4amLzS/feEhcdwjqBjAS1s69/HyJk9r27hMCSDgPtyCh6oSzTxI3I86jbiz9wHujjbdv3Wh+8foW92x9Xg2rqheuSA2CrLOoP3geeddB5C1AFOErg6lQnUKclCyWKQB1iFWiDnAfC1bgJACw78HufPEMP9SFsgAsqFrY1wpWCkjiYymAiMu0uq9nGFbAUzf3TT3XN/1YxwCFmCYE2n7wYRYcTnhCDjcN1BTEk2BG3YUXnSKGd8nS2eb1N+7xQAQAg9sKLhMYNixjAAOLuBpMOYeb5j///EtfviOAagBPWoGqA1tSpkCBYn8AcOYvmC6zyghNOsdMMfQVykGRyvpqlnnt9bt9PBRggn0VABQg6ssdsvQAzr/9lwcKAQqwxjrs0gFbzVPP3CEG4MWXN+UACv2tE5Yv0PAECEKbr7/hQjN+/Gip+7zzT5R3RsDC9fc/sE6WOMDyE9etPj9w6eE8AQpxTus3fN+9/1Hm4otPMb/9w2aJ4SJEPf3sj6VNwcrskUKHOnUfY1+DNvbt9/HsLLxfPXyDqGJQxtat/56M2aQC9d+pIPIWAOrIzurIzdhTilQOohqpUE6JOuwYUwhQLiYKAeTb/tInALXunuvNhasvtjDlVi5nbBTildbevUEA6oE3fyUzv6BEXbTmUlGfsPjmzr8/KeoPptxDjUJsFOpHwDgACgnLBGBqPmarEaAYZI2YHqhHuH7nP+ByswCF4HO4/uAi05CQCyB3qg/KAT5+/vL9Uh5gg8BzKD5QwKCw3fXkPXJuw303me9de6G564m7ZSYhFDQEoNslDKyKtPW/dplzVp0nShPqwJIOiL9iWx74zcMChYDDOUvn+hmCOM82In4LbRozfox321XVi7biOt6HOdoC1S/uD55HPpAAiiCFfB8kFz8FyJF4p/2cqhQBD879x/6AoSHmOwci5QPVbUD6oX7GmnUJhpAFoKqCjxRMVF3T+LyoTWp2HVWofs5Tz/pNPNYxQBEOCvPIVaeNVy+3CxUopTBVgVGhAlUEYqJAHW3KFChtzDvadiqUjokCRCGJCqWUKL86uVOgCB7MLThlK4H/7g+bzYyZkzzEEHya5oAfpPg6AaTEcV8uuVp51j4GlDMQ/vd//IWZOXOSQCKD6AGf7A/motypQP543GmAgjsvv6hmuKBmHEiezcLrDH68sgR4YupoLSnnzitY8qBzkKpQoMSVB3ce1KjMpcfgcuSEJ51bl1623IGsGZX6MPHHzyeDzAlSkidmrBGqkBOgFp++1Nz5BIDHqlgaFLrdRsxSHEDebZ29vt72RxaonrrfQAUowhRioqxClMUC0YhDNQJcEZiK4qcAVR6OCFsHDjESnI5crUcFsCpSo3hfnTeGozoQ5AFKueyc0taT+yXapJ/xm77dPkDtJnCiccwBVBH0lABVXYBCOa9AHXZMIUABMjuCpvi6EogSkPoic+cJRBUBFFYod8sGYMmItWsvMDffcmkGUPqjwGXgE50rAyieSwGWBynUF8EU20mIevcfD5u16y4wCH6XGK8v8IFhlxKrk+t+F9hX4xOxUHFAOQPJ/ynfxysAKKdCaYCCS80DUdNtwpPOm9ZREWSeCy53alR5PFQTgCqGqBRI2RXMM4gq/DAxIKoLkIIrb+0915tTvheuNJ4Chk6P2XWVsnWmOq2nP67DzEAsW2D7w6pjRfcdMAB10FBRjwhOzAE3gAYYcQ8PCpyKAtEJU4h58kCkriN0ZbkDqgPC+CjeM4YIHm8l98BE1YnghDx77qAPdH+0sM264+ccaPut9HfD/moHoJRRIsjsrjwAqA7gqVSdUvV5eKoRA0WVThvzjrYVQMVKVBYLBYhyH+H1AMWAcvudPC6qCSiBO++00xea9zCLTmbnOYiJ4CiAnIJzRZAEBUqfK4WoCKC4PhRBiu19/8NH8gAFgCyBqE4Aim48rz4BnhIA1TE8AZQ0OOntDiAK7Qjio5RLL1vywMVGVbr0GgAU1agCJaoRRHk16gW/bhRceTphJfNAiXLuPa0+YRvuNLjE9OrlVKWKwKHpcQSYa3edxF4h/qppcu7DpvdvUj7rD7XuVcF9BwpAAXgkHgkB4nDHuUBxGEwYcbjprNpkXXTi4otcfRqmAEZUnXA9VKwi914GUdb1B2gT1SuKr9Iw0aohTwJUBk68F+/P/TZz1p3K27zPnlhX5wD1z+6/W9cLyAoAigpRG7m46Y4RxSmnULlzRS681hQoKlIOpOiq0jkDytMQpQBKqVCAEy5r4BWgAkiqC1K6XAxPpQCVUKFiiAIA0h2ZU6ESEKVhNR5zVKE4I8+78kSB2uUDyXcLQBGmOgCpAKKiIPPApVeqRIUA9TwhqSz/7MVCdx4X3QzceZ/+2tRRo/zHieuAVIlbL4MnuvfKVZgmcNIYmJoCVln5Aghq1P6ojoECUPsOOkygCQYWRlznABrAEVWpotzGTB0mM/WgOkk9Al5D5Ht9GrCwHYOT3hdXXgKgWgEApSpJfSmAaqiStNKuvffMVE7VF80AagApTbEh5H5PAIrw5BSoQoCatcjseKovOStRG/Gut7/cKbPyNDjp7SqIYiwRVR3mAUR1AVCEpxQ48Zguw+1c7tWozOXItmYQ5dQ2uvGQu7gw9onu71iFwrixsVDI7addarnx/ucJk7nwuvgOHiGpKm8DonIgpWbpDeVCmnGeBZHXAigXD1UUE5WCKAAVP0oMVx5T3dgoKFNJRao/QaoMbnbHuQiGOgGpgQBQUIYY5wTokaBwLlFA9eiAIZUABdDCtYQJqFiAohicivYJUGwL6+lJHkCTctkpw92T++6t34+Puv1bDFCH2en5UwQKdgUzmAgrAzHvKUA5JSsAKAVXtq/yAKUNeDvbdq2jz7/KB04DGqw7z8YF5QPK4c7b5r+N54HExUS1pUARlOrmOXiqUqLcM3CtKzynj4VyEEWAQq77/cuv+nLjmQHlKQWqyI3XrwBFwGoIUlaJir6vp9x6sRqViom69yn7KZfaAOUgSgeTB9ufFgSXA6TUt/R8XFTk0itWo+wsvZxrrwCkWlWjGkJS3wfPmk5SaypXDcDabQAlClAGTjBmdNPto6AHbjsaOgJRrEABiOD2Y7wQ6sGHinEcZalMFYETjwuA1ZiJx/Y0zgNoQryTAicFfo3r3QtFfoz0ou++Zb+u7VYiVzDg1zbaYwEqWuySbjynIpXGOrEs8+iaVPwT+svDJj4ZkkjaiLe5rUGB2+UQ1RuAqgtLVeU8THkFisHlkRLlXXkuxqsEonR/F6tQKQXKuvFSEBUCVAcqFKGoaR5DFK6Pj0X7ZS69VGyUBikNULUg6rP0J18CiCqaoZeAqDxIPZ/FRkUB5oVqFGKkaoNUlzP1SmCqE2hq+5q6ENbfAAVYART9+34WHqg2AY4ATjEcYV/KC2xYyIJixXIAJanLQQS29XmWQ8wUtvXyCAQnUcB0sDmBxN2zsVEmKKEebudyDU/5eKfG92Sb9+atw9TXGKBsvFIASgREglGdPIKnsL5sEc06AKWhShv0rrcTgdMAKbry8ipUGUAhHqpZIHkVEOXPP24++hTJLnsQ5x6g6EZkeyS38VpeOdMQ5YLnvRKl+sV+GiebDRmrUDkFCssa+DiodCzUbgMoAhchKd7ncZUDoCxkqSUPlBJVBlEeoL54ydQHqPSyBgFElSlRAlKZO68pRFmQqq9I5dWoLmKkCgCqbRDqdX1b//SMuffhrWbfg4amU0sLZQbgRLVJXGyZUkTYSeVwrzGwm0oVoIvA+UrJAAAgAElEQVSqE4AD53Gf1PX6mA9Al5l/Wb0aWhCADlUL95LjAKC6cJKDpRKQqlvn3nL1+7/lvqoNUB983GdefWvgp+df6TPbnuzzq4OHwHOMPV4GTjEwxfv6WgKZy6lASV+92WderUivvNln2kk7zStv5tPLb+w06bTDvPTGDvPS692lF1/fYeqn7ebF1+NUfn2t9r2xw7wsqeBZg34J+zs/nneZV9+y6bW3dpnXflOeXnh1l9n+5C6DxSyHSCKk1MwJPt3kAKP4eg9LRe1QEJWLi8IHid1HiV2AOQBqy66nzNY3nvXp8TeeNaXp9WfN468/Uys99vozpjC99ox57LWnfXr0tadNaXr1afOoS4+8+rR55NWndk965SnzSJQefuUpsyelh1540vzskcf9opVcvDKV5yCrJlyhLqs6WSABmACINNTU2QYcabVJAw2CvuvAE+8DiNKxV7ouwJPEQ+mYqhQUlRlqAldwHVWnBjBWdo+95/oFqr52AEWjKC5IwE4EOcFxDUPc1sCkt3m+qE7lwvvg452V8AS4ageeUE8ennAsDU84bqGjFqAkIKs+NAGQYmiK9+MyGVTVah9AsAyicn0T9jvHS5YrgKoBUYCsDKAauvFi8GlzvwuICtSoocPMzxMABZgqBKgG8ATIKoQnnBOAaghRgKwAogYOSO1JAIW2btr6QC2ASkFVnWOAEQAUkoAT1K6a8KXLAZCoQmngQb26XNU26rHxTlnAOesD3OE8EgDLryEFWAlgSO2XnQuuAUDthSf29Z6SVwJUEkBSUNLBMSg2a2/cmIacGvUdXKNMafs1FGkwio/H+2X3lXoAbgUxWK4uBqK3kx9lBg05ygw61KaDDj3KIB2IdAjSkZIOOORII+ngI80BBx9h9h+cTvsNPtxIGnS42U+lfQcdborS+KnzzOobflxwvsk/xfAe+v6+Xa59vv14loOPkGc6AM/mntM+t+0L9on00ZCjDft98BCnSrrvvunYn0O4TtLhnK12rAFc+MSVv13eWIVqE5hSdVVCVHFwOZ/xED57bpaeXeIg+feFPlV9zL4uyg869GgZr3xHOpcxHI1jvFe+Y3nfMp7dmHZjwY8NN8b3G3yEHdMc23Guxrkec+lx3WQ8591fdcCi3TL1Z5sRELKcgda9yUXNkcDwivoZo5TIc2qRAhEAFJ4lBU6MfeK570jAeRaYLkZ8X+v+Yz3sF+x74AlASMFT4XGqTTrfC097CjTpdu6xAAV46hqgAEIajmIw0uf0dlzO7ztwkhmMxRBVZEi6O+4gakgIDJkBUhDlDA6gIzY02PfGxhmVImjSxzNDQ+MSgpAty3N18ux6bdBk2xs/1f4ERBEc0QfaKOt+zgMUwCCbyh9ClIIngNRAByhAVU8haljx3+CQYzyk6v4u2tbvJ97OfghkPwbSEEWItkCdGt9+bPsx5H4scD8CKYzrNTf8WH5I6PFOo1s7j+KI2gOkbuCov66tgCP3XbvmfeKCzhmLhPgpBIpHK4YzeDwMEtdtSqtOjKciNOncz+wTSIpAKHdMn09s73W39Yu7TYNPW9t7JEARnloBKA1RHoRKYqXiMsF+AqAiJarIgLRz3EJUsQGKFKgCgLIQlQFMaDjSx8dPnesUKA1HLKuPNdnm9aESFipRDqJigHJKFFUoDVE5Fcq9QxlXQzsHKOvKqwctAjYp1ahXxypBKg+E1pVnIengocfkYqMy0MxUvECRqglRZQoUx3IGUfaHAOHYK1FQpZQSJQqrGxOlPxIITnHuQEoDFEE+/HtoMp7bVKP6C34G5n2gXNlv02XKDVx4OE7Q0Ws/AYbsuRCc7Cy7/IeCPXQ5lx3rZC7uQq8waSiiAqWPFW1nba806LzXXtgaULC1xwGUhqfWACqAIGUMtOrE7aKycrwAoCKIouoVQ1MTt0d8rd2nGy90iWTGx/6Ct4bG/UpPuPH8r/QSl11oRA43eQWqoWEpjXtIgJQ3eC2oUOqdFkKUuLLKFagBDVC11ChAVOjWgwsPsLLfoKHiahdFLunWK1CEq1x5Je47whNyGcMJV16gRHmIskqUKFAFEGXHeLVbLwVQBCnk2d9Bw/HetSKVgQKNeq0cgKEgI3dN1fkCoMjV08NyGowEPOBmc8HncTsATQwuZwA4y1g3XD7WqQqecJ3MwJOlDABHgKYiSCo43gSE9sLTgIImDbt7DEDF4MT94BevMoStHCc0MS+tvwSe6NJjPQV5GoqyeJ2m52mAQoA6yv1S7xVAwag0NCaV5bWhUmqUg6icwhDFQ1GtQD+wT5CzPwM3no+FypSoDBqqAaoRRPVKbSqrt1KJir6ld8Sx0k/f3v8Qs+9Bh5kDBh9h0F9QnyQ+Srk7oVIlf9SUKVE1AcpDlMT0hbF9aYiyMVGBEpVQXP2PBQ/kyqU3yP4woAtPg1O83f8gVROgCET9kfcQmgA9Vi2KY5QOFiWKUJTK4dJjvBKUIwCYuOASEGMhyy6fkKwLQEaXoYemHqlOifZp4713u4GC16O+3CMAirAU561AUikUVcRIBdcOPICCq4rAIMHk6hc8VCj/C71IhQp+YYcQkxkMezztwmsbpFCfvZ83YN7wKSUKzyMQZV2WHqAOyfpDAOrQDE71WJJxplx5hQDFgPIgFqqmC68Mcnp9riFEAZb2H3y4/R6ZW8kZYALFVEAqhqihSsV1fyOE1VTOMVqVhz8EQldebYgqGut+HCmAGny4GT8ti4HyYy6Kk9LHOT4b/4joSJGqgKgCaIIq059JFK+CtqQgJT6GtqbUIhuj5D4gXAFvwfVQdGKDuq8DMbSzpC5+B0+ub6w8Je4bt2Pvfv7dDOA+CQAqBpSifW1sutmumoVXdH8e7+beta+lWhTAUt5A2PoIUTzP/fIZed277jIQCAxU9OteG6AygPLujUqAygCp/wAqgihl+AIlqgsVCu9S1BQHURlAQXWJVCjue4jaAwAKgFYTovC8AHEAE9x4YojwD23fwQaqFMYR/h6ljwKQSgSYF7jzqsAJ52XsMlczSzM4VpMkvCuPcVHVLj0b95d36TUFKMLUbgWpIljpZ3BqBdJkNfEoRqnEZVcEP2hLapkDjOMqlx3rzLkO3d+BdeGVufEqwKnMRZeCvQEMFDkw/Zq39Vv45zdoiP2UC8GkTl4bQErAowig6twfZdpoQ606AFG170doQvvcNiGsRh4AUIHBIXAxL71Gq1CRARL3RvSL3MMTwCQJUBk06V/Z/QtQFqJorIqCyvF8Eu/llnGwxtYaYxpt3Xf6HcsY1CoU434OH5YtY0B4Qu6XMqgBJ71WmJrUXwJSCCLHGLPj5HCzvygvQwNDBBUA7yHt0useogJw8gpqOBtPQ1Q6qDzhzovGfQZQIUR5gCKol6hPfjxGZSxMpf9u9N9QblupUtUz1EqUEwVUrUBNYxCzKlHTe8dB4jDOWnXCsgO1UiLgnIae39AjJBXlWdwT3XUuDyAqjndSZapAghDFvKr83vMDQqnqGKDaAJgYoOqCE8tpgzcwt5sDFAxW06QhILVNWPDGiOtC0Y0XGRMfFyIAVe8f/8ABqMOzpRlKVCj0BfpF1s9yoBqPIatC2SUNtArFNZKCfE8FKK1GqW0AIfpDXGMyPhh7ZmeSwfAwFgTbKFu2ZlTct/E4PShafiM3ZiP419CktwOAqlKionGfQVTmxssBlPthUQRLZcfbUKU6BqnG0NOem0/ijvbHYpn1QEqUHnwPL4IExCfVrYOwllSNUK9Tdhh8XgpiB7pv6hFufO4CyKU+DU8KsqJniJ+J7cgdr7pu7/nc+Oj3Ptx3sOkKoLoFGQIU68nlogDYwNTcudqKUD8qVUVt6gCKmkIUysdGSe8HBkkAyv6KL10rp78Bir+446ByHI+Pyb6Kh6JC4HK689Iq1JHiEmKfsJ+kz9U7lDFX143nAarGauRNFKL+Kgslivc6YrjAEFx3BwJCCVAOHqhEIaicEBWoUFDr3CKkUKZsSgSYJ8Ys3wlzD/1efcrHPhGgcvAUAFRijahEUHkGUVaJSgIUx1qkNJXBkz7XMUhhzPNvpHLtpAJFajeAlIdtvyhlEUghuBsLVLYBTy5Q3IGSN66+Dfho8SECUrgnAtQJXWEOeLLlrKtOg1IKoDI48/csgh2CWNH5vcd3PySl3oG8NzsOWgEoGJr4F2ad/alYifymjRJDkQMkwhNyt2hmnNe5xx5RpkXAIgzkchcPJQbJz2SyQdaEDZ1zJfI0uOSBppYClQIhZRC0cfDbBKfUtQ6ivHGiYZM8Wx9KQxSMLA0ujbTuq3i8UIXSCpT9VlwUC7WnAxThCfkRwwV60D/oK+vCQ39C3bMJUIXzyKEwII4EZb0KlYSohEtPQggy+Oc70bmHqDqxT2ivTn5tqIQbr1uAckDpx19DoNptILUbIMqvt+SgAS6xGFSKYpRwPCxbro55d1ts/HzsFGFpiHVHO6gKIcoCmPxAUAYzXq7AnnfAh3LxPcv2m5Yvq2vvuWZ930l/uXGAd87UGkARbmIDlNqXskOPMR6gNCRpcOJ2AUChnlT9dY91e33d+5SWc5+96ERxyl3D/kj8sgck0ChlM/Jc4K0yJN5954xD1wBVBUhNzxOoglwpUTBiDqQECPFsjIVyi2t6iFLxYYQovaQB3lsAUJy67+KhUi48u4xBiQqlQWWAbuMZ8NwYLwcKgDj1ZrDNDzrEBo7z+TEOoUZhujj6EcdjkMqUKChS+b9b9j9zjlXmGfhnAEwQDoCpEJ4ygBIgdOMipcBqFapUgeoSoABeGURhO//DpNYx9TdU7uKLVKndAFIekiR427rkrMsuChSP453qtBXLE1Atig3kvgf77+2FMObcc/vYT7YAojyA+WUKYtUp3m8ITnHb9u73Hn666eMEOPUMoIqghNBkDZI1TAFAEZZSeQ8Bqqi9MfRI+wkobeatAZQySk7RojHK8nAavzZAOfWpG4BS/9C9klRxTP/jxzXcT16fNDQKohxAAQYJUV6FchBlnz3rj6yP8hMGaPxLVSinQH0dAAoKFAAIYCQQdciRkiNeDH8HAk7qefHM6BvM0qMKZSFKgZR35RW79PQ7wDbhSdoAmEu48ZLwFKhOAKcQnuoDlFrGwI+pDNBFeWoBonY7SMkaS2lVB3ADFxeDrUP4SF9TVkbqU5BDQxQrN3LPQrda/r4eehKGElCF+xa1C+essmSD1Lkdq035/QbuOrRLDHFFnmh/3Dd79/sRWAH6SnGKt1tXoDRoyHYKiNyxrgGKdXcANGwn8hiW4n1dtk75+PrS/W4AqqzthRDljGJkjGRZAwccVHDsP/Z6v4rHT3GfcqkBSoQiQlKTnNcW/zJ3wc7O4BGgrAqVzcqjCkUjHRtvvjN59zLOXFyPmo2XW9LAu/EqZuINUOXJx0A5Nx6eD/BIcAQUxcsfAJ6YCJoCWG6GonV3phbddCAVj+FIPeX7CSEqVKECiMrBUxb7ZCHaLSCrFSilwPKHBGejVipQLQGUwFhbihR+YKi/w/K/r3JVysYkWaPPRSaLQKTJcV9vBAwwUDgXutPywMR7ZUCWiJvyqlMZPB3qVCt1vVMcNDDRcGbHnBFHWcKRfhbCEs9xvyrXdezd3n3KlLynzFXH9x/n7QOUMzb2nyldIOm8NkChzliF8vdJBKfG/5Sj/Vxd0XkaT+ZNy/O6xnlVLJQsi1ANfHJfBWaAA7r79C/72JUH46FdeNa9UAJQ6p90GUCV/wPP1Ka65bxxSCpRaK+GqEyFiiFKVKiEG48wxfdHN56GCeuiUnFQCiRiyMjt7wkAxTZGweW5Z3HLIMSfgCmEKBcbRdiS3P1ts7+R8x3o8eohKoqFKgaoDJ7EVRdDE/epVKqcfwelAEV3McdbS3no1uvCtdcCSEHZEWhwxrwNiLLwpICFdXt4KgYmghPyDJ7yikQd1QnPAoOYgyK0Jziuy2C7REUi9JSVqTrHOvbm/Q9QNcGJINUdQAnEAI4oyxflLQKUByfeqxlApWCIx/Q/cG7zXCpnmQGbK4iyAGVXVqdRgkskM0o2+NarT+6XdVLpUeBEmCkCqLpQ1KQc7+nzHEhpgAqXNdAQVebGQx8xHkrevRvjVGMIUF6FUgBlYaJEhSKc7Il52bpR8h099S09tU6WVaKaufQwZuuClIeoQIGqACgFTFSedA6IGj9tvpFPuThFM/j7aFl9ogqVd+nFsVIdQlX0d1v+N2eVKYCKj1sSsLAuDasS1QMdQg+Ax89oS8GBBHnHweXpe4jLTrkC6daCYZO2JVx2uD+uw/PI9/GcsczBkntOHs9BVhkA8bnKyuhzLL83739YivvcQTPhqE7+LcCPX0izEoQILU3zFgAqB06qDRUKEgEnBUH6GMvpXJ9Pbeuye8w2DFO8Srn7VW9VKBvnkVOgon/AHmAOGmpigCr/59xcdUrVp+8fgh7XLGK8ilOhYDATa0PRTYQ+0QY7BCj7Q6EQoNRimnRpAaSKFBs5vicCFNpc8lyER98HCqI6iYvqDqIsQOXUpwpwypRYAJT7lEsKoLpUnKg0aXDS2zxfnZeoxLkfF65s9Lec+vviMQCQAIc2OA1gx0MYDJSuA9uEGHcc9wHoELryuY3JEqiJ6sKxFNhRqcorTrGypPZ128Swsq01c399RfnoGXL9800/r2Gzh9t1YClVpp8AirATglR9Fx6vL8qL3VqAHoBNCn5yx6LZQXIe4FZx/R4DTgo0qUIRHkSJchAlv7J9PIb65xz909UAQ4DiP93+zH07AmMRQpRWFjxEcUmDwI2XfWRYVCiOHwfwAlA1Z+MNFIA6rBegVgJRACwLUi4+SkFUSolCn2Yqtv0fEfxNRR8jDsZsHMsnyy4wcNwGjwcAVQFPjH2qdOHVhCfADxUl5gSieJ/HmVedZ7ksV3+rwd9CxfHo7zr1twsIEUVGGXQYFMy8zENOphoVKUUAJwANzvsyrm7Ui2PfOSCrB/dAG5IKlq9LtwVqk4KtUpecAiddDu0h4NU23s7Fx34qu45l2srL7rX3XNL1moKiuscwNvoZoPiP0v6TrAYolq/K0wDlAagGBPnZgTSYgCYxmi6vgCjcK/inP0D22S7muo1JiDr0KFFpsn/e6V+sHlrcP9/dCVD4h+/b4w1HCFCAwjxEMRg5m40H4xyoUBwPDqBg6GOI8vE+gRsvH3BdqNz0AnCiOnsGUSWKVBFEpZSoSoiK4qKKFFS4ZcWd5115Kmi8AJ5CaKr4lEsDt10GNikXXC+PVQCT/xtJlFN/SzFISexSZOzLFCO/gGZ8jVOKADiErxwcKTVJQIjxSlFdgDq0i3Uhx32tmw4LYBbAUcFxGE9/jb5XJwCC6+te16Rs3Tr3livt/7qgFJez48O+290EUACiaB0oDSvBL9IqeLLnNRhgO4Mfd30ZAPn7KVgK2qPrG9iKlEBjybNK37jz2I4NkVWijnTr0ygwUf9YPayoY+PcLLz4n25/7ku7AuNgjRRgkLErHqLc2lA2DipcmVxDFMeV9KsbJ4UAFbjxyl1dAUxFsBPMhmvpHACqJxDF9hUoUm1DVLVLz61tFihRxRAVwlM2Tjheci68EuWpGpgALAQnvY1j8T7LdZon4Cj426g4r/628XeFv2PATs6V59drOtTId+Tcek0CW4ARDSEsK7PsQnWJClMYb3VwBkK6HoAB6vLLEyi1iaClQSixnTKKATzJNVFwehJICFwJWNoLRaUAUxsuk/2e6O+a5eJ333Rft3s3AtSwcCFN9Qs/k/PrwZOUp1KQgicxfAXg4+GJ9wIs6e0InjRYlYBKSvGhMe5FXgVOOaDEM7pf9dolwm2AhvxTj/6RanjScDQQAArtSUGUAFQComRaO914bq0jPj8hSoLv+Z79uMim9iOY3CtQAUA1UKAAHwSRHuY9BSi0uwCirEsv787LlKhmweVaIYxVVL1WVBhYnoYouuoITHHuAaoEnDK1VsOOAxSMySbgkiur69Tb3dZb83r+TbkcywtY0HAGzIENjlEFEggigNCoEZ6U6kT1SeeoI+emYx0ux72oOqE8tu01hJnyvMhgeuUpup82mNm2vkfnxjyrb28dve+L6mUJisYGjmvliW3dzQC12H7KRRmmDF4IMTVzb+QIPInrWIZ55X1ZV0nOukryXgAT66wEJ7TLQ1++T1CPGCS4riQWyAZSAyDwj19DUtl2bwBKr1FTvy0hRFmjE0KUDSr3i2sSolQsFAEKfYM+kn6OIF+UKFkXKr2cQWUMFIGjh9CkwYwqVBOQalLW34vP5XIElGMRTqh96EcJMFdxURlIZe7R8P9Awj3edIaeW0zTx0M5d14SoBQsjZ/qgsjVMQITc60q7QMFBpCgFqCEMtMdRMWwgzEdH+uHfQdRiE+iAdG5gA1nxkUQkqlFeeVJAxS28YFfXa/eBpxZeDrUg1Nm3GjksrzMIOpzKeOo75vf5j32gk++bwZan3QHTnZ8pZ/pawNQNoYCsJCHhOCYN4b5cnTNBOWlPg0hiW3WWSMn+HSb1wIntkcZfttPmaHiPn/Va3CAClUGTfpc9wAFWCIkaXAq20Z5fZ293qtk3sgoiJLZVNnaULJKNQEKQfQKotgnfFcWRLNxI+OlFKCguhQoM/0ETR5q3P2aQhTLx/VU7qvnBjBhLMHw4lt66MfULL140U2OTfv3aCGW70LyCKLwvjB+kUSJkgDzvEuvCURpgMpAKVSCZNFHmSKv1BMFEDD67UNUPwCT//sJ7/X/s/deT3YcWZpn/SG9XVUEASoACaTWmUBCEIIEqEENarKoJYpFrbUENQlBEtRFssgiS7Uy21mz7X3ZXrNZs5mnnpeZ6T9h9s3XvuP+eZzw8FD3xr15MxEP1zyEh4eHh0ec3/3OcQ88p1ZlihsVbVBhfABEACP7rKo083kWHfSdLRsQhrJEcXKKgIYgvZyoSeXGMw5PAKRsHew2wlNeiuN4PNO8strt+e3cfdvoPtHJclndVjxAJUYsMWxZANL78iFLylJBwulyIuDklZ1gH8GlZpoyDioIvRYs8ZyputnrT12fm9DQzmdk9+P8hAamCdQQbuJpZwClXqYCQt2sp+uVhSgYgSTGhbFQGRUqAlG8L1aFSvqS7nvejZcJJC9w5Q0ARBUpTIQnpqXQFF6Pgii0Idoan3sBREl7sa2UGlUGUbwXTEeCEXqlEOVio0ohyilOAKiX3jzqYwLt82BVJgYsl71ksd9CVBpElkVFyoGiunWB0ibxUDmQAWOFa4YSF3+HJM864EpccTnqlW3fscS1J+e08NKJUdTHJKBF6AmhKGbEwzzheuyYdluV56SpPPoed7pcpS4rGqBo/Gm80sCTGDq9HUZPr2M5BRY56/aYAJRSkBLZR5jpd5qqV3K9qesU5cTG70g7qnaBcYIhGp1akO+IxV+AaWCpBlDJSzPzb7RrgELZ6TphPXTniSvPzekjEKU+NBwLKLftkLiQ8lQo9kGvrAgc2OH8ubFBIXD0aZ1AxLQIjJiHaVHe6D4FUWgH9C3cE7R1qq1qQBTuAQGKKYGfKZUor0Y5lTEaFxVx51m1adpIv37jiCgoMrprCJMw5ruY8l66eIlDqaoLKoOaX1xtBe0Alcg/f5Hnks+qhaeJdFxVDpSl27ZcWSoynAk4hfCTt64BKC8Pt+u87XL6vvW+PYrue9V9Vev8CxhPTqSpDWwIGeG6zsvlME/Z+gUHOouBsuCk4k7cyxf1KDon66nz6W1ly7bsCCilgCXY3094ytTDtkfedXmjP6OCeGdUGzqQwkucL7y8tBigugAnJ/PjH6//FcJWuq6hEhUHKEy4aIe/hxBFg0xDXQpQ6ItUVhxELSdAEXzK0ij8uJF74bF5eaPbAVAEQzc/FNoY99K68opmLnff0FN9kmAUgi0mPeW9Qsp8AlAZeLIB5RIwLqPirDIkUO/6G9yNgIBd+w6YF1//SLlkygxAYtihwOBnP8QLJWYqmW6DcF81hXKEvA0pSJ2Wg2uQQG/vooq3B1xtAlCst7pOvkMEnhAAnluWbcvEHZY+V1VjqPPVBydCUV7KOnE/19u0KoR0n8+2vb7PnS7X7R9pgHKqBJWdjlKn4BSBDPfVBSjURxv9cBnyP8sO0xAisD/cJut0beXtT0FaAEsZgHH7+wFRqXMnEJS5Rnd9YdvpdbazuFOmt4gxsoqRhpM0FFmAOpKNcyiEHVeGhqNOllPn0HW0y2nD4+aH0vNCcXZyHwuFuBkbS0OjDDUOEGXdeLivqo3DfjkAABVCT9m6hxzCjkvzjsvLX7p9dkmeOwHZkWnnyiuCKAX301sklkrcQpunZGoKABLhFstwD+KH+0eQ4rxQHpjQX1ywt54ziC9dbbDP3neJAyhrEJknTAFKMieS+hAuQcFDfIESw7w61cflLvcRqNBmuM5qBs9Ohpl+9hwAuikRbFkwflnYCNtX3xPmD/OUrdc1jtXyZ+vO+g1mStBbPWnZfa+6v9r9Trdb8wAVQlgBUBUBlDf8Ul5WbdIGn8s0+CnjlgdCVF2wP6fOvg6RMvQ5kuWKQAXYoTFuKvUApQx7WG93nWyvTAqFQNolGXLOmBQE5dqXexqcLFhNWVfHmzUBqiIs4Z+q/nklKjzeg1QxRKVVKDvBZjYWas6rGDDE6ekMsgCFdvLtmQKogkByrc4E4FIKIgX586CnbHvsnEXH6PzIp9cLl2eXpG0BQsPiygtmLkf7qfZkH8RzivuA+8+X3VmbJqQsqFooDy9LuMoAU4RfqlBw2RJEBKA229FygCi656CcwEWHcmDgd++/1Lz0xhFZtpNGukkbZTj+pAUx9EOBI5viHBqEypeduir9t/xYXkNp2hRcAXhc28ahgEpRGibsvUiPQERbFCtYiYIXGr7YucM8sXX2ld6k6WuO1bF8W9oo96aeq/McsfvdybZO27z3ABXCiVq/4NJrzKtvHcsCjORJv/oOVMcAACAASURBVET1C7VoGS9ZAk0eAOnjM/CEc4fgUbDOc9m0BkA1CVFKDUE9ovV37e6vPTBSdDOl3E/KiKFc+Yc/xpF5aZBKKVAh2NRY16BUddkDlQco1i0xRmJsnEGx6kcQUE4Vaoyzk6cBSiCKc40FsMo+lGpbBVFs29y0DnxUyFsEPUX78qCnyjHMk1dGuB19dMOwDcaGKw9tk5p0M+ifGqIw3UZi0PnZj0mBHIAwgZcAhRR9lz87V1Q4Oi/5bh7cWzJybNOk/xYetuGc+GXcXxH3VDk0JX0TwAdYw08+YaLd1jVgrBSoOnABisuuwM2WQCWmNoCRTgMFrglloG5I0a6xfDiuiuELyy86rlOjiONQl+zxuLZwO7fp6w7ztOvZduuuTar0lSp5uq3XwAGUN0LKeNfZ5l+0MZAIXS3uHDSAqTR2fMG2BKT6BFFixBNY5PmL4cm5QGnc2caz2ZFi3pipNoKrhP/mMX+OGAkHRwy29TCTA01VoaiTfHJuD1GJgaIxSyAq/MxLbF6oZEoDGuKsCmWVKPYb30/ZvirNhScGWVcAoxBCYusEmU7TTsrEMfp8sTIy25wKBWDAfUHbVYao6S0ShA7ViAYVhhoqFN15khZMc2D7sZ2bCsfRzSexcPiT4NxV+ETRy28eFXchAUCAQMVOCVA5iGJfq5MCoOyItsSoQAUDrNUpJ8xroaXi1wS0WsVr8XMyoV4EBbsM4yRwtDmJ68L9iIGHKHybuE+Xo67XQUtdo2fPlw9fVQxk2TmrlNHmSe5lr9sier82YpRmzi/St5qq40AAlDc8NOhdpPIS1u45Qg/hSRk1fV4awVTKY2ukFmR6DFGB4kR4QpoBKK/4KUWPbeDa2Rs3bcxFEUhceWgrlM9/8/gXD6OD0UowNgSoTsCnqWM8vOVAlAYomdKAkyMyHooqFGOhlGrhIYoqFFyvDmLZZ3R/Sil5EUDNANWAABRByPeJAI64X6fIG67r4/OW0V6Y1gAGFhCDNmO7eIBHX1XvA/xBQj+E0gQDHgIUXONdQZSa5gBwt3v/AQdQmIJhRqAG9bUqlJrQktBRqhgFgyFkCD/Vm8QIAaCoRgHYQjjqdl2eBVfncBlli8In7ZvUiUaHcOePc/CFesYgigaPx+uU+zpJi8rR+8JlnAvbis6p94fHt+vZPtGPNsm9X3nghO2R+9xkXX+Bl5MfheeNbSQuqMF9fCFeKC6846kXJPfVTfniJUDheDFs04HqQnhgmno5B9cdA5KK2zTUWENLg1uQxuKhAndRuty0ApUPTyr4ntftUrQXjB+NnDWE2+x6AFEoH+cPXSGYU2cQAIogVgRSifslPrkmY6Fg0BGIDFDE9YYABSPtAQp9Qp4PZewj7az7aHRZ3Qfej7qpBplul3nuTsrhsWUp2lUUiqEJmTZDt0sMotD/ADKAJ7wckRKkoOTwvqQhKj1Cj38CfD/Gfc6M1JuT8+zed0BioOwnXuznjRJXHifUTIKjARX5cONcy1Bn4b4UhYfKTGLU8YKXaxsCRNkP7gpEueMsUNFNzbTovDX2AehylCTUCftwfg9PChxxPYA+ez+KjWzMsHWyTRvD2PF6f7jM/OH2dr343i1H+/BepdIicGoQnlLnDIAsBVAaWrwrrCtwUgZFgQrP0whAUTVRqfz71+cLjFmoDrA+Hrr0NVcEpgy8FKhERRDUzb5MHSoY9dA4Ts9vM/hNzW1TakCiRKF+2gAxnmTfRVfJP3VCzCCkAlLBv3d58Xt3RRqi9LxQHqDC0XiTicJBgEKbSNvn9jk7ykzDQRlYdLI/vJfdrrMOnZbD44tSPHMAIsjvuF9ahUJ7aYgCpFJ5wksNxyEIfb37Phu2caZz3JsmIAp/DF5844jUDf0DrmtAOEBBQCL1ceAEpOIQ5Ub/caoEBSr+Ja1Un9M32CkQCFF4pvyfg3AZ/TwKWNXhSVyJzkCERlJUJynfugR5fXzOOTs4ryM8nuvc31VK47gxa+hZLs+nU+7Tqd7fLmfbs06b6Hbt6XIZOLF/BLDTizrlApSGil4tdwNQKWOk4Cm1Hf/otYpSBFIwftxP9QoAQuPYYVoViMLzVD3OG+9I/VL3jdem0qxhtPCUgqigDVFPnJP/3pECovYDoA4fNVCjxAUQjJzji7bfafJvPTEkiQoFg5dMawDjiPojDoaKhKRKhWIcFJUO3icLUEVqZ/BJlwbUphBMsvcz7VrrZD/O0clxOCasX946YOdMjH7bMCaAlIUo+0dMwxNUINwLDVV42UP9wD2z9yWAqMhM+2E/5n3nhJv7LrpSFCgABIDNQ5QMxZ+0SkwMonLnTssqT3TXAUJQf7QDDRfWrSvPKlHlz0+SL+n7ieJltyXPAp9VGX2ozsvzoy5QnXBeC01uRCy+9efqKrEnOeDFcpjWNmI0ljSGXFdGkmUzrXsOHtfPtG4d2/wuvgn9QPcBvcw+0sd0ZQGUipFIgZICKLy4vYLiXuIejBQ8lG7rMUSFwNToOuO9tCKiARHtKIYRSlNiIAlOOp0SNSox/mg31BUAQeMjAHUxAOqYD8aFy6P8ZZ+enqAn+X08FA2AUwm8CjUthtG6aNSUBoyDQqoACuoblQ2rQMGVRwWqBkChz9aAjKp59f0chOWw3qhTuA3PMvoSjASMMsBIP99YBzDRYCNuCm0PeMKfBNwPjOjD8YiJErjyLtbuIIrKKgADIIF+YiFqRhQoqD5W1QzceT4uKA0rMoSf4KHgBH0f+3CNvE4YdFwTzqtVqLznBHmQV0BMjgH4OBcgR/alngfrcqNxDgFC7ocrR1xzBDzUX11D3vFheVxn/kqpNpBcDgwky9VppbJdOfq4ust1ztPmjccklbYL73tZGvSL0nIbyP8LvKgYA5VSLELj24P1ygqUAiT9Yk0tAwSc+4kA4F/UVVWoELDcNUt8C43koKcV7hPaDS46+yNApdUntiFSC1EWttCm6CehCrXfARTihjiiCYYG/3jzXvh92+6NRmLM8lQo1FnioNzILCoSgCjAE3+iQHkjXQWgkgDpsN/6fhqDi5rb+gNNafAuOmd4bVGAcn0KYAQDBighHG0emxMowHa8EOGik314Vv3ziTjOBVFqmE8gy9+fziFKAOrwUYEkgA2ABH1EQxS2oZ/bz78ApNKQ7lUeBx1SR1GWErWIzwJABXCiIQrL2F4EUQJfAk/2WBzDH8sjiAloYV4nVR+2G1L9s//27SSheQYplT883q3zWJ6H66WpNpoFBi8sN1zPO0+YL1zPO67d3iEMFdzDVJuq+y7PglofKAUKBtIDlHop8eXUy7QQoKpAkwMBbez1ssTx0AB1ClGuTQYeovJUpwCoJme3OtUpDVC63cJlASgXF8U2Rb/QKpQHKOfSI0QBRmBQaCCWK03cGRaiwlgouGe8CuXceHTjhG68mAqVcuGhzUMYz1NP2T8bSotgprl96b5TVq6GKObV27gMKBeAcKCEdofRp1ETsMKgEN22CqLQ1/ASRn68dHG8deXB7Wwnr6V6iJQwzJSKKlIAM/4M0DUNty7Oj5c3+k4aohgTZV3CFqQSiEKfR31QL7kWP0VB4lrTz4V35bljcE04Hm2j82E5pTopaEJ+/MTY0GjJunUR0lixbfV6uI37+pp6gxlXu/paF7Zfm8rz1dO29/cdrrr0nwAB/tR+5c5bpnvzCxhLAhSW6bKR4M3A+DYNUymAyjMwMZBy7qe0od9upufxSyspeGHzBY1//qmXr34RV1mGW28QFaiK98nCU1Y9CNusaF2rUegjMD4wOACoVw4fs4YnAlHL7dKD8dPxHwJQGEHk1YIkFsrGQQXfx8tz43mVw47ESz0jQZ9KKU+6X+s+2sAyIaW3abYflZ0PzyHz+GcyuF646+yL0gEAYWhsTpQn+wwHz7Hr/4Ak3GeCCuAL/dNClB01qQGqCkR5gBqfk/g4cZGpeCgqUQIzbnoDwDghCvURkHEveCzDxWjjiQDzrl+qmEEClD4ORgvbNURhWedFfv68saFhcWpTT40fz1Un9QZRgRJBLwTAOuW2eXsPO022se8HaXBif5ZnIZXHwVOTdeigrAxAhcZTFAf3shf4qGisU4YkPMbB0kWXXWtefet4Kt6hyMigLmH9LDQRnpim8+GlzZd3IxDVQHB51yAWjrAL2zhcz1Ge4m2abr9sm1OB2CZAirl3zrvkagEo/+89AlEwNuE/6H6thwAFA5anQom6wDmhfEB5MpM1jLI2xDYWKjKVAe6Bgqiivp0HFHW3E1D6k9aHKNYr77rQrvKydC8zuMfCmCi2ox6hx/cN7g0D0gELuO+8Px6kgrmicIz+aSXKKqtHRc2CIgk4Qv0AUhIPNebceSMzsg3bAeXIh76trwXAE+uHIUQJGGkYcm3BOCzsJ8ih/PBHAB04WMozUGIYHUBpeMrL325fWXBUdr9SYJTtz9n+3SA8RfuehbiUeptzDaUApY0n1anMy0//m66xXAZQ9mVbZMwJTLE0fRxf3EibgCi+sPvu2qsLTs6Isy0BTPqn72+d5USJ2iaxKPJdw8PHUoHl4gYRV8icjGyDi8WO0lueuChvqNRcPRmICifVHLOzVIdzQvHjwjD4/MCw9IWYK9VBFA1/Jg1UmMzzVWO/7ue9X+4coOQ5VNeF52nz2KzBt+204UdwONo102b+T51To9QfBvQzDS6bRmeVK8+68zQAY1kDFJYJUd41reaJAiChfMAQYRsptxNweB1QiZAXfY1/GBIFinF5aSVKK0u+nAgs0bh4aCKA5LzwWVZfUxrIvDqljFiDxjHvfO321DPW176g2971C/bhKmlGWdXlVV12/a3y+QrK/QUUnMSFF4JIGkJiBtYaY6vw1H3xX3S5U6C8tF9+vqQOYV3z1m2ZrCeNCuqq1YHay+qF3XOYipyL5yxNvfKUuE8IULYt2W512l63qZ1088LL8F3D4/JvHwbIw1NMiXKfyqAx6Vca+/efBiirHIhR9FMazEpQPOOgdDA5jbAHKLh3Q8D1ClQykjEDAwok6j5Dsfzs471PuwMoQhSevRB6AFJ8wQFmMm2WAqg0REFpwn2lYYAihTKSeKjqEJVyTROixuyHi1E/QBP+FOAHRYrTAfDccNfpPsYAbmxLQxRdzPbPBcqR63cpyyMosW2Qcls67XGQb4FR8XWtk8dfxwqrd51rbPP6Z9IGgperTZl+3k0bbrSxhLrMKstF0FYCUDSusbS+wU3gxx578eXXmdfePh5xy5WVHatP2TYqLwlI9AKiNNBQkZC0KHZKjC6Nr5o1vBtwct8WyzOiaXjSbVfW9sl+rUJRTYQxxPUCLmC0PEj50XlulNsyzRdVpkLZYHLrltGxUAJQwZQGcC2lISpyD8vUJ4DAyQxQs0viHiN44IWGkXZoVwAJjDEUHUCqtFNE4c515Sk1C/CMMssgCvdUq1EpgHJqKvoC6oi6wpWGZXHZyci2BAAAT9KfVEwUrkWgCrF3ORCFPxTeRZcBKKfQeOBYLQCVtFtHANaNYW2PTcCm123RjeqEY+vWr4Pz5UFVzKXXBUBpo8vlxLiGsBRb7wygeK5O0uw/Zr6UaytQXllIhlNreFruZfxjz4MnKFDx2DG2abX7KADlRufhXkKB8u2ovp2XhSi49CxI4V94vxQonCdRofCPPzsiLwQoC1HpiTUBhjSyGYByKpS//76fRBQogFMPAAp9Ov/eN7kv+zzVOS/iAAkieDFiRnGvNs0tCewANrAP0xKgTfm8hopUCFH4kgJABy9DvnShLKYBqlyJ0rF9/g+BU6LoskOcFsCI5+GLVgMU+hX6HvIhxbHyi0CUAJQKEJd/wDQcziDwH3xadQJMEbCUK6wTw8PzNZES9lCWuh++vZo4R1tG0v8GsS18v+xAdeqk/8r56p0rD5y4PaZENQxQNMBMiw1xfYBiud2k8Zc+Xsje+Hujlw4CLtzfpVrkDW635fhJMvMMZRk86bYtvn+AYkJUBqDQhm4yUkCGNj56igOAFAxJXyGKI58kDSHKTmcQuvG8AjU+J9eSASh+WFgACiqcA2vfl9C/AoiqqDwVQYkARaScomOa2xd/lqqUj2eJbjaoLegHgJvU9cwuyXZCAe5BCE56PQVRTgkFoNFQQ+UamZiXkbQJSLlvGuYElkcBSsX1pcDJTXopKqcLIAdcUYUCUMGFp116shxAVBSgnEHgtUjKbQQUSR2kaFDpxAA1aYRT9XOKWZPlt2X5Pp7qH4PQLtJHbZ8kiFRJPazU7bvumahyjk7y+Hq5tu0xQGljjOW0Qa4HUGFZ3azHX/z8d1sISt4g5sAVDecypDAmxcarDjyxfdP3LLyHhKgoQCmIgtrgY6PcJJVUofoNUYkbL6ZCcT4o58ZTE2sSogCD+OF66MbTI73ouvVQLH0mAlAV1afie7qUho6+qk94juLPUrbO6XxoG9x3TnhJcMJxXEZ/BnzzW3d44aHNNTTpZQtQ6o8QVFB1PIwLysI29McEovKVqBCgeO/RF0SBcp+gQdkCSxiE4EbmAZhQZwARIArr+Hn1SalQiTtvSvKIC8/N/I0ycpUb7oulg2BAdR2cccu9Fp23XR5cKKpybzoEJ9/XeXyVcyFPwQALlNn0j6DaZ4CiUUa6zVQHKH1cU8vpF7p+4eMF3hVEOXDwBrTHMFUOTgCrTuCJbV0OUQSoaNvxszjuEzDi0gNEYYSbny6gf9/QK3bjEaCQ6lgoOxoP6hmNqFahUgAVBpN76A4UqIYAKgUdKwSgPCS5+nKdzyHX0bcBK/JidQAE+NHgpJdDFQrPIFQnAAlfelClAE+lEDW54KfnwL0enrCj8wBI6EMsjy9ngBH7MyEKChX2i/vOfZLFAlQwY7moUMHEmAwkJxzFjImGEuSL5Yltw3Gx7Z1sY1k0ejpFeay/pA2et5O6tsc0d9/z2rJLYKkF2F2ei89u3RQf+sbzs4wAtd1cfPn1FYLIacR7keZDlBilbt16PQapZFbxXihPur0rAtTbxwXUYNAyAEqImrH//PMhqj9THCQqVOjCm/YzkiOImRBlDaOFqDKAonHOuvEin3PRikvOMqGiLAV0lOVpbj+eHf6qnLf4WUO9dP09QM0tyaAEKFU0+AAg9C8NTno5BlGYyoCxSXhZ0pWXhqjsbOXnu/nNLEDNi5LEgHfUh6oT1SbUU0MUYIkB4cgPFx7UqNRnXxw8SRn+W3bZf80WRAAkCkI8rDCY3O3324N1ARpVhi4rzyByuy6T23R5er9fZr2Qqnrr49tl37fZx1dk2iXM+P5dpT90OKKuLijl5ef9GRCAorEODTW39zYtc0PgZZ4BAq8q5Ljy8vZ3q0bRcFQ2lt0oT2z38L5k16kmsi2j7aUgCoYL/+iTeKhEkepHPFQIUAgoZ2yKxKwIPFk1CvFQIUBRfUI6OuniaJRbCNcHV56okKovaEMvyznQpAGiOeipAjpV8hCcmNY5Jj+vBigCFdsB7QzAwIsLLzVAbKYtVYxZqv+5AQ10BaIMlAX3oNwndd9ESVTxUOcfOGhn2B93n3Lhy32jdQdCRYVCBsUJ9QIsAfBSEDVs543CeaFIAZ4sRFl4R11wnIBWzvfsUHai5AQg4mElgKXYdta/01SXyTL0Nr/M+ipYY/42XR3ApO5jHmhU3V5ZdVpmcPLPobv2AQMoGuz+pzT8RcZKXuYRdeWc8y/rDrBiUKWMrv63jfrtu+DySkqDjVeKt+X+C68sGYmnj8sCUxgLRYCSmKg5OzcUDFzKkOGaNERhuoPJLETBGPUaoixAWQMWjsarC1Aw7tqFx9gaC1EE7M7cdyFUFPXP/uwjNOk0H4psnarlDa+V8MTnDlAiLzAHQGjzOhCF+6TVI+/KwzQiORAFgHr58FEPbwQ4TPAJcALIUU2F2oT6wV2HPgy4oisP27CPQeXIi21edcK/d7jslNsO+fUvAagATjy0VAAonZcGsGybhzeWr86fKoPbdRrAHvO36eqAqKCP6v5adZmDRPBs5f6kj6afh6rlN51PK6krCqDml3aboyd+qGH4NQTkL88sbDf4WeNfZgzsfr7UAQhffv+PWVAIACgDErNbzWVX32S++fFfzKVX3xg9nsYhNIw4n96GMvQ6YDAGT8jH6QtQBpfLU5aXn4YAhTqw/plr1xDl4qJCJarXEBVToESFksBeHQc1I7NNS7yWC34PXXgCUH5G8nRwsqhQVA2VQiJtU0F9IkSk72+1PtrsMRqC9HKVutTNr54x1UaAHIALX7LlrjzCq0tntoo6xOMxwaZ25YUQBYUK38J76Y0j/pxQkKBIsg8wJUQBkPDCBiAxxg99Ge5gKpzYZ0fa2ekP6OIre9FnAUqDil4G6Oh1LjsDFQKTXneGyh6fVw7LcykMX+x8RQax3ef7FPvjikobUIJ8HyvqCwMETng+NTzhfq0YgFrcvse89OZHAhzlBj8flvSxBCedYn8VNUobJ4CJBqoMMOTA1POvvm8effpVgxTHEDhQli4/XM4Ck84PyCm/fg1T5fnzwYlKlAYobkO9c9tCQ5SbeDOEKBidXilRCUAlI/Hy3HjWhZcfRA6AgrGVGcnVZI1pF15nChTasBiiACf6/seWNcBUya/LCI8N13XevGV9TF4ebM/WjdfOFMBDFQkvtOGCqQ1io/IASdqVB6gRV16gQmEbFK/d+y81L77+kYWi4SkBJ9xv/ghQSAFROIbuON9v3EzlWMf5AFnitnPftPOuO7ygnYsyBlOEFPsiDyAmBjB522iwMuAUKkzOYOSV47dbMPP1YvlturIhKXb/GgKaavA0GIqTfhZDyF0xAHX4/c/NuedfFgWoEAbmtpxtnnz+TfPFt38z7x792px30VUeKpAXs2Z//OVP5vV3PhblCQB172+fNJ9+9bP5+Is/mkMPP2tmF3d4w7T73IvM86+9b4599qP58vt/Mu8f+8ZccfAW2Y/y9I/G7J5DT5hPvvrZHP/ij+b+h54x0wvbvSGEMdi++zwpD+c5+tkPZsfu8/z5UAa2P/ncG+Zzdw37L7oi93w4/9bt55jjn//RLG7b468VYLSwtEfqO7u407edri+W0UYhRM1v3W2Off6j2bLjHLevGKJiAGUVPevOi4KUhiiO0POj82xMFP+tNw1SaYAKIAofg/UxUPYzHVqBgqGk4aQhhcH1EDW96D7pomOgIgBVYRQe+xP6DJfTqYYODSply3nl6e1lZehz6+PC5bCccD/Xs+URnHw6u1Xih/giYyyT7A8VPnEhK4h3rnLcM6hPKAPwAlccA/+RYj+Vrl37DogCBTCSKSsUPCEf+wFTlIW+g5cuXHRUoeAWpstOPufiYp4sPCWuuyoARZCqnkYUIhjHFEBpIIvk97Ck86llKa/GKMCYcW63DTZwNeCuI4zw+Y2mDZ6H52silect6KMrBqAuvepGMeQw+KGxD9fve/Apc/0t95i5rbvMjbfdnwIEHP/kC4fNwrbdZufeCwSgrrvlHnPLHYfMwtJus3T2PnPjrffKOsrFv+K3P/rC3HzHA2Z+69lmYdsuc9f9jwoY0ZChTC4jvfbmu83Ntz9gAHJbd5xjbvjNPbKu8wCwHnjoGTnu/oeeNvf89olUGQC662++28xu2WluvPU+uQYeH56PbfLYs2+YO+59JNU+t93zkLnvwaczbcdjcI2vvf2xuBN1O95w633miefeVGV1BlCEKLr0UiDlDBrnTYI6AAiBEbKGx6aAnaYBCuWlISqJhwK0MQ4KqoGNZ7ExLVDJGPsCozkyYdWINEDZmJq0AgU3UgSilMLkIUFt4z3PT0M4qbNOcEFa5zidV5cRW9Z5uVyUL70v1iZQ+gBOfPn6Wcoj7ZtRoVwcno6nAtgAhgBPejvK33PepRIDxfsraQWIQpl4abMvJfA0IYHkVKlCgMIxOG/4ws+HpRjs0FVHwCEscZ0pt8fKYJ6qaUH8SmB0eN/adKW0WXNKUAxCdD8I+/0gret6cnnFABSNuzb83BamUIi2bNurjL9zaS1sFxUGQdjabXf4g8/M1u17U9ugyjAPytfuBahDX//wzx54QqB58/0TZnFpt98P44fyaAQBFVCdoGxhG1KsW9iwBuS9Y99kyuDxPB/y48c22XfhFQJ2ADfUeXbxbHPkxB8EFLHOfOHywevvMK8cPppqL0DjBZccVNu6ACj3uRe2IVyVIUgRomDEPES5mCMYtZ4AVA5Ewc1iASqZTNNClAM7NReUQBRdeG42clwDflmAUm7aGuoT73s8JZQsV5oGnmwdw3rF8us82f2AKJSrYQrtrmFj81jZLOUqHsopn7jPeBFCjUI8FSBHv+ABaYiBeuXwMXHPaogCcOkfFSikUCjRX/jyT1x2ScyTBaeJ3MBx1IvHy3VGFSANQFwG8HBZg5FeDqGoaF+YN1x352ohyQM9jetqSHUf7HY5jB/S7dNt2b0+Pq/uqxKgvvzuH8zMwg5l/C1AAYgAEfNLuzwcYduJb/4s27GPP1uGDS5HnosuPWjuffAp8/RL75iPPvle8tFY4BguI80rj3ng/nvtnY9Tx2D98oM3+204vwYqHgsIwfkAQfzp9Tfe/cTcdNv9sg8q3AuvfRjNp4+Bew/uunPPv1zyXnjpteadI1/543geAlsszXPhMW+ocIgx1CCl3HkJRM3baQ7k4609gqjYZ128Cw/Bv3oyzUSF0gYThhTGleAk8JQ7mWZ1iErueRYqkn0aPvq9XFQv7IvVJ3ZMmC+dJwZQgHA9NxSABPfBxxEGalRsbijcMypZeAHzJYlliY2aXDAXYBqDt47JKEsNUFjWAIVl9onN4/MSaM6yUbezEO+kYp6wTSAK7oqckXfVIMrVOwNNDmxczEq+gkUgKoYoGqhsOStFRWnrqYGldLlhNxqfrfC87FeDnOo/VWH9VyVAff7tXwWQvOF3o+wIUEj177Pf/zUDVXr/jbfdZz785Dtxo86gdgAAIABJREFUw2FivbP3XmgBSpSVpRRMwbB99vu/iOstMXJpg/Di6x/KMYAY/XvhtQ88QOEapueT4wgiuCYNP+H6wRvuMB99+p0A5HtHvzGXH7zFg5A+Ti+jjHt++6R54tk3JO/TL75tbr79t/44344CbXElKgtQALwkL7+ZJ6kyrDCOXo0iRDkFB0ZKAnOdEtWLeCioDvJz38WD4aTbxcZBhSqUnROKxhIpDWscoFwcFNyVajCBN/SBsqJVFoKD7UeAjKQ/xJdDEOnlelFdis4bOy7MH8tjt+n2wTQGOiAc9xHTZPi2zUCUugfOfYwJNvHy5osRoIN7ymkpLjhwjQcouA55ryWNqFAWnjDizk1R4ABJw9MZnOspB5xoTKROypDhRe73EfgyyhTBiWDUecpzhamHqFZ18v2G/WfFpw2MrtP9JRc+Gj6PPmfl5ZLnj+UU3dNVCVBw4SF4moZfwxDAQa9j+Z2PvjRnn2PjocJ9WEfA+Y495/njzjn/0hTEWBihEVgy73z4peSPGTmUg2B0HaSOfIh1QhA4g8nhwkNMloWQRG0KgSlcp5p0612/E/cd6s920NCkl7F/+67zDEBy17kXmU+/+rPBqEcel6QJEGk4wnICUMn57HHJMUUQBaMngJGCKGuwJCbKxUX11pVn4YmzRKcCyV0sFOOhYChhaKk+waASoBDLJT+M7OJkms5g64k1xdBXBigABPpYPlzEFR/2y6bTTusRHherV5gnWdcAhWU9Kg//cuHuzQco9DHbzzBLPPoVVCC+ILGMeyruZAfxCUDBLRsAFIBqMlGiELcHVQzwBJiDAsW5nag4ieqEFzchSkERX9g6Rd30emzZA00GpurDE8pnebnnasHJ9xn2nVWRNgw1UdWp4XOEfVTOWfJMyTHyDCZ/SMJyuB69BtX/VyVAIUD76htuN3NLu8w1N91h3j36lYefGEAhgPyu+x+TEWwIIr/7gcfMq28d88dAfUKgOVx/5118hbi3NIB89s1fzd7zLjVbd+4T6Lj5jkPmzvsfEwDauvNcCTpHHAWM370PPmluv/fhxL2hVBocgwB4gIe/hq27zMEb7TUQZMLz6bogz92HHhcYuuuBx1MQpPOFZeC4Z156x7z81lGZWoHnyqYAohCS9Gd5wn0JQAG08iAKbRNCFIEEcEKIQlB30xBlg8mTmcihQHG26FyIGp/zLhyqEqwvUg1RAk0RgAIwhkAQrmeBKQ+iYiDSy20J1KTrWHTO8Ji8vDof8iTrbB/pLw4+AU00YAAUQFUMogSe/AeGbZA3jhOoAThsGJNYKLl/blqDEKCyKtSinA91gHppFU07TQEASoMTl6vCk3+J44XtjAJT7kNK4Gki1eXqZSlbGQ62d5uuAtdgD6Am2i96cJ5UH63wZ8PnJ0CVqFDR61DPwaoAKA0GMO4LS7vMsy+/axBHhGBoTAFAZQl5ucx0dnG7OfTwM+aTr/9k4DqDKw1KEPdffPm1BorQ59/+g8DTdbfclVKg7rzvUTkO0ybg/DgOI+x0eVB4EJcFt1o41QCBBIHvUM+QL7wGBIgzX3i+8Pq3nb1P6oNz8hikOl9YBvZffNm1kue8i5Jz6eOLlpPvGoYAhfUEolIAlQout8YUBhJgAYUAEEIowRByQlTTrjwPUAJOVKEcRPnpDOyEmlCg8INrkTEwnQJUZwoUoSOBiv4qT2mg0XBTXo8qdY7lSbahf/CchCn0FQaE44WHoG30nRCiALIAHYAMX4x4oWLb8Pi8xChhHf2MKlQaoLZkgsmRFwMOEniyypPAUyTmSWCtovrEl73UVf2r7gVE4Vyxcrnd/rOnezAnVYaF7dumgw1Y7GNNpVHFpg/ghH5W6Ro0OHUJTzjnigOoIiOu9xF++pHq867kZcR2IUC+k2uoClAZFSoHovChZBoxQhSAhZNtNqVC5cOTBalEgXIANTorBta771wAuXbhVVGgvHGPuPCorhAU0ikBKgYyel+vlhOAya9X7Nz6uNh+bovlS7bFAArb7NQGCRjBlebb2MVC4R5peALk0GUHuAIMYT+2A9gBYRmAcm489MUEnpzLDhNk6kkyIwBFl55PFRgVGYDQNRHCjihEJWoUyme+onNxn81bAEsIUG+haUW2Ae9xk2kGnnoNTqr/VbqOOvCkypY+LoMxss/C6gSoIEi8HxCFc3QCHoNyDFSxBx99QSYU7aROxQDFtrFKVJkKxVgfGEBAFAEKqTdcDcxSngoez6hPVKLSn3VBnAuMbhygkjioNETZbwDSlZcy7BGA0pDAtqgHK4SRXqSEGZaNdS4XpTyuLH9svz42WaYCJensktwTvEj5bxSAw7aGqgmliS9a+Q7e1KL92LNzrwKYoCYBbhDHBIi64NJrxJ3PPggIw71HWal4JwdOXnmKwJNVn8rjLlhHnQrMAFYUcOlluW4FSBZ+EmBiXqa67LzlUtWphaeVB089gRoF0g408vpUE9tt305gprDMEJr0unqWdBml/V7B1KoEqH4BU+w8ncDHIBwD1+Vrbx83mIG8k/pUA6g0SEVdeyljbOOiQogSAzY+JxNhdqNEEaBk5B1G37kReDYGigDFOaGsAoXgcT0TOYKIvQtPBZLT4MIoo/6EJ4l7CkaHpUDAAVUCTCGUECDC7f1ajwFO2blZ5yrHxvKEx9v1sN3QtnpqA8AMlClCFILAhyfm7PfvcE/UqEjeH/QtHIcfPhOjAUrgSabUcN+1Y7B4DJ4CgPKKE1/gOS9v/SIPl+0/4eoAVgeW9LlCA5UyKC00NQdNyhCn2rhn26v3Hd0fipaz9W7+HPr84fn0vswyn7VYmvP8Ffb9yH1ZdQAVg5p+b+sEQFb6MfUAKh0XRZDyylQAUTB0KYhyKkC3AeV03/lv4OUAlASUj86IywaqRh5AwcASnJimAEoMdvls5PnwVAYqq3E/4UlfWwJQaCsNUgAmTBlA2R1KUhRaZTReMiqPAIX7BTcx4BoqEwGKMXhQrixwK7edAy4/11MAT1CeMFknfgJSOS/vjAGI5IMBqZKvkzxR4yGql/u3v1zwFDFcoSFt1xNFJtYWnfSHsmPC85Tl72Z/eK7SPwd81mJp5Lli3bLnKW7XVQVQ/QalsvOtdCiqU//6ABVXo2IQBQMJAweIEiBRs5UDfjpVoTRAlUEUXHcCTwFAwaWYUqFU4DvrKgqUgyeMBKMi4lMFAYQnXLNd1uBwMi6H7cD1JNUAhTaFioQXIl15ACHf1qr97ZQGdtCCV6MwSm96i4zGgzsP875hBK112aXhCXNQUa0CPAlAqW/cWXByE2Y2BlDJdfGl30Raajj6AU8tKAWzyBcb79J71lPYTurWRP8rKiO8zqK8GaU3BKgG4Qn1Wj0AtUxxTy1EWRDqHKCyalQWotwUBwqiYOQkqLzDz7yE8JQCqMCdh0DyFEAFn3KBOlEIUd5dRMUjgKiM2y6Bg2rxRasZrNAW+vp029jlFEChLWeXBIDkxeumKcA9yoeo7ASbyA+AOvfCK8zLbx518U6cpiAZaWcBys0yHlWe1Oda+DIveIkXGgd1HK6tat6ifInqhHipxCgm2902KlFMU3n1cTWXmy6vqXqt8HKK7nk3+3Qf6aacasdm+1LhcXy+8lL1/ITl6Ouqs7wqAKoMYgZhfx01Z5DyHnr4aXPJFdeXxkV1B1DlapQYSbhdIhBVV4Vi7BOOi/3CmCjAUxFAWRXKfs4ldONBhaJ7KFE8WoBKQ5EGpHC5OkBpdx7aHXAjrrwNYzJjObaFEGXvSRqgoBgSoPaef7l56c0j1m3nZq3nSDuvOuWAU6JAOdedfrEXvMzDl3tsHS/52PY62ywkpQPNk21Z41XHsLR5l6/96vSBOnn1Pa1zXCd59bm4nFuOfq7KliPPHcvXae65guNbgOqjcjVIYFS1Lo8985r5/k//u3zqBSCad1wzAMXyk3mjZNoDp0BEIWpqUWJWqrrxiuApBU5OhbIzjycfEbZuvHQgOVxGWoVKxz+pEXgu7iY04rguuu7iaQgVJ+u6bie0gV5Px0KhTXFPADEMvkb8UiweSkMUIAsTceITLwhIF4B6AwDlPvkTc9sBoAogyk+cqV/uwYu46gtb5wPs6PWqywkkxeBp+Qy/NmDtcv37UPX+d5KP96OTY+scw/OEaaYM/Sw59zjjDJnmuvM6fG4yddg4vvJdeIOgLtWpQx6ADOp2ANQf/vSf5IdYkHByTta7WYDKghQVC8KHVqLgPquqQhUBFNUoghRcOIh9oQKVqFDzJhyNF4uFkpgtUcwcRMWCyAvdd6H6crKCE687bI9igEJfAdxKULlTbGKzlAOgAE4ALgAyQEumKBiZNudAgXrjiP00SwqeJi00FYAT4M3CU2/ceLEXetk2DV1pkKpvsEMj164vXxuW3fdVtX9A4AltuqIVqDrgMkh5CR0rIdUABZA6/sUfzfXXXW9uvfHK1O/xh+8z33zxcWob8lx1xSW5qlW160/UKA9RLs5Fj86T4ef4/ljJzwJU3HVHgEIKiLLwpAAKAeT65+aDwrmtCpVMaaDhSWZVx1xDTQIUJyBlmooTUp/MCbev2HXCEmGqXIGCCoU2x32Euw0GHm49KIQexDHCEyPvZF4nTFUxIx+TthA95RUocdulAMoGjUvgeCFERdx3NAD4J6yXO/hnrIGojpHkcRails/wDwJ01Wm3Nm+gerL/Iu2g/9Y6Rp/LLVNt0ql/psL8PajfQAAU1At8ZqT9DV4bUH3S6f/1f/yt0r361//0F/PHn37uEqDy1CjrshH3i/u+GYxeKUDBFZMT+6S3J+pTAUAVjMiDUSY4MZVYKDUKjEY834WnYUEtA5qKfoSkMA+36zTMU7auj+37slagCFRJinbM/GaXBJigPAGCAAxQl3BPcD/s3FDzLkh8ysKT+iDw3vMvEwUqHG3nwanEfccXe+lLvR8GSBmQTsGllsFT52uP6wNg6PbuV3/SkKLP3/SyPk+Oyw7PWulz1nC9BgKgqikRNKT2W3ODpCh1W5e619/P/FSgPv/2Lz6Y/LPjh80//9M/mP/1798V/v77f/6xQYDi/VezmYsBT0bolalQVdx3WfUpDVCYIyilQo1b9UmrUD4GyrnvqgBUHKIUNBFWCgAn9pmc2DYPXyizoLzMPtYhlqKc2PaebEugqSwOygPVrI2J4qg5Tn5Klx2UJ5mWYPOk+yAwYp4mTSlA5UxbwADy3Be6ftk3/FIvgpVuFaeissN9gLRwW7veJ5BC/+plv9L9l8u9Oh+vRU0Fwj8mOs191npVr5XqwusWWAbx+H5CUZ1zAaDC2KflBag0SDHIHGoO3GZQjvJUqASgoELlK1Fp9ckB1Pic/Q6fS1MQpVx5iIXyABWoUFaB2urdR16Bgiql1JM0FCgwKYEdtEX4AwSF26TNSsrKwBPzA4g0LHF7mPYEnNAWhCe2C9dtqtsxszy7ZD8ALR+Ctp9j0fFOUDARLwV1CX0FitWe86hAuXmeqDgxLQEo/iu2L/pILFQd40NDEhqEvO1hPllP3HU9NbDRc/fYqLfntNDEPlWrX9S4N7r8cLnpe6DK17Ckl3PBqVfXr65xxSlQgwg/TdWpDtj0K+/e/QcMrk+fbzAACnVKwwEUEMxEjU+xiDsuiIey0ER4ygcoO/IO4MRfGp7kg8YpJSoZlYeAdtTBQ5RSoQoBykFUAggEA4JCuVoUtkcn67ngFAJS3fWeA1U1gJJRdpMLBrPYE54kYHx4Skba0TVHNWpPxIUnI+4Y91QBpPCCpyJlA8sTVwMBK9cI8GWtDEkGfPpgKDLnZL3atLdKT9X21f0jXK5aRlG+sMyy9aKyquxT5WtYSp4jO7M/nx+mmeeoyrm6yLOiAIqGvClgGdRyNKwM4vLgAFQORE1vkc+tAICgKgg4YQ4fUZ1iaRJUDvhKwKkqQMGtNy/qBl1DHqCUCkWAQtxWSn3iuldXCE9IFUBR/cmBl06AqeljKgNYeF0dret2KgYotH04yk6Dk6iTbp4nTkkAd1+oQBGwmCd5odsZx5P1LDRxn37J5774lQHR+aPLXRiAFoxqKC+D2M696id1ytV5m2gjV14anPTzxGX7RyT3GWqiLiVlrBiAGlTY6VW9BhGcWKfBAqgsRAFOADCAGcQmwd2G2cSTIPEYRFlFqqr6FFOh8ibUhGsxgSc7Gq8aQAXwRMiIAFTTINRpeb0DqAhMBsCZcdm50ZpQndAPoDjFVCcLT4h9mhS3HVx3hJ09513qgsjruvD4DzkBqyj8aONTd7nk5d7C0QqHo9j9rdtHkD9WTt62TsrnMXllVt3OcjJB4skzlIWqRM1NPV9Vz9llvhUBUL2ClJVQLqFlkNLBAyi6GBOXHgBFoMWNtALc4CPAAKQ8kKqjPoUABQONc3iIwuddlCuPdbFTGQCiAhXKxUClXXg5ABVRojoFnn4cF4UqwmDHaVZ9YtsRpNDWuB+bxkN3HaapcBDtVCcPT/7DwICocbN7/wEPUHVdd8nLngYg52WvDAeMQO4/ap2vyxd/LaPanqsehPSivfS9r7Ncpy51yg3z1jlPLK8qL3luqDQlzw+fDeZJQZMqo1/9uwWoPs5E3imwDRI8oS4rAaDg+kpghUPWt0h8khhV795zLr7hKVGpqrrvQoAiPGUAykFUFqBUMLkKIIfxJwhk3HchbDglqh8Q1OQ5PFCF11NpXbdPdlngySmQgFrMKE7ViXM76VnFPThRfUoB1IQHKA9PjH0qDR7XL30uZ4PIaQhoGCoBVMwAtduWH3J6cQ80FNRZrlqXOmXG8lY9T1E+Va5+HqgC25SKbpIuNzwB0moD1MQs/+2XpEHgcQwCqsxe3Sl0rMbjYm24HNsGF6DYJ60SJSqUTF7JSSy3yvw/jE+CQgRVikHnWXhyI/DwLbxgFB7XZTSeUp8IUvJplyk7saadEyrrxgPgiSsvClAF6hNBIwiibxJyelmWB6jQFcnrKkyz0ETgBDwBVEcmOcIOn2Nxs4rL5Kg2UDyJd1JuOw9OyQSZiHfavf9S8+IbR5JZxysEjVsjkEBTdh37aAh0Pr09vd8biyJD1O5bXRClwMLf/yrbqvaDKmXl5al6jrJ8rvzkeUj3+0GGp9oANTq93eBXarQBT/o3Hz+mDKBWIwR1e02lbZ/T1k0eN/gAxf62zU4PoNxlokqJW2+LHymHUXMwuoAp+9kWFTzuPiQs2yMQBYDCJI0EJ51iRJ514y3KbNcyeWMAdDGAsipUC1BxBS4OUGhHgLGoTmOJ6mQDxZ3Lzrvr7BxPfnbx1AzjkzKNAYPFd7sYKKsMBd+8q61GhbBUbd1/S6/MGLX7Vz5A5QFL2Xbce+Sp0gfKyirbX+UcZXnUOYrhic8IwEovW9DKgGXZeRveX1mBGpneYYandpjJORqnglTDk14OjHsLUJ1PCtokENUta+UAFPqoBRFx7QRKD2GKChGCvRl4LgqThicuBxAlAOVinzQ8cZkAhRmvfTC5/6xLXIGqClChSgRlJ9w2qOtRFapQecJ9zMITVSfAKu6FuOv4Lbuo6mQ/CuzhyStPAKcEnghQDCKHYfJuPL7I+wBQlY1iw4ahkiFuz1kNWKq2k4KKDBjU2Zd3vkgZGl4qnzOv/CrbVR3suQlFeakGJ+ShQhWJJ6xy/obzlALU1Px2Q3ganSmAJg1HGprCZZWvCKC6VWpOhuPrgk9T+VciQEHNiEEU3XyiBCHwHN9GcyAFCIqClIIoqFaEpVhq54TCvFD2B1jT8VA8r65bAgrbzLU3320wmWlGjcmBpetuvts8/sxrjYPU7v0Xm2Of/5hbbt7+8y660nz9wz+b39z5YOrYKEA52L3s6pvNoYef9de8tHOfOXriB7eeQBTaDPcKCuDM4tnmyKd/kE+ynH/gGnPPoSclUDyJdwpUpww4peEJACUuPKdA4cUNA5OBKMJUD9IWnioqKg0bxb7CowIKAgz7GteZ5m3n/tx655xDwwiXfVmRY3LLr9r+fIZ8mgdN3F4Rnqqevwf5CgEK8ATViT+sVzLCITSF666cPIA6GeCn6WusdF+q3r+SfCsLoBIVKheioEwpNx+XAToAHg9SAKcgHioGTXobFCitQokSRYhiDBTP7RQyAtQ1N95pvvz+H83V19/uYYIgFVOWrnX5D15/ewpWYnnrbrv9nofMc6+8l1tu3v433vvUvPDaB+bQI89mjo1C1Nw288Hx35uLLrs2c81sF6S4R/Y7dnMSKI5pKsRdNzJt3jv2jXyCJYl1sqpTKmA8BVDpuCcPSYiBIkCJ2uQgCrDUU/WphjumB0aha0PZ1qmaMhVACiEmBKVwPQo5eW0enAPH6vPElmuVn3fecLuHJp6fkFQ15XGDoTzxGckFKFGeFDyNVVWfYHxDYMpZrwJQAIOmYWO1ltcviFqRAOXUjTyI8tsJMyoVkHKqFNxEOoBcw1K4zBioLETZ+Ku8qQx27rnAPPfyu+bE138yX//wL2Zx+94sTCgF6uy9FwjcnPj6z5J/y469HlZ2nXOROf75H/06wGlx2x7zyFOvmI+//Ml88e3fDCDn/Iuv8nm27txrnnj2DXPimz+bd458ZW667X7z2tvHzZ33PSJ5yvYTzq69+S7z9ItvGYDdUy+85cvH/n0XXGZee/tj8/m3fzOvv/uJ2bn3AvlEjP6gOGHx7kOPm7sfeMJ88vWfzNLOc8ykm55g974DUneA0633PGRuvevh1EeuAVC49rHprXZ+JwdN+y660jz78rvOZWeVJwARVacUQO2380ARmPDiTGIxqr78q+cT4xUan3a9GpCslHaqCTVRoGEZedfM/SqNwVK4LXquvHNU3Z6qQ/VnIf2cWYBK1a/q+XuYLwpQofI0MrWjmvJUA54AWRdfcb28mLXhX61w08/r0u3Zi+WVB1BWhaJhR0rjHKbiSlPwpNWoFEi5CTpDaNLrBCem4s6TaQ3sp15sUHmgfs0tmceeed385q7fmYsvv868+d6JbF1Rf/fDtTz27Ovmtrt/Zy654jrz5vsnUqCir5nLL77+kbn3t0+apbPPNfNbdxm4/Y6c+IMcN7dlp0ATFKPtu/abvfsvMe8f+0bA5JLLrzdl+3mO+aVd5v3jv5cyLjhw0Lz2zie+Xlt3nmuOf/FHA4Vtfmm3uf+hp83zr74v17l993nm6Gd019m4J+y77OqbzOvvfmouvPQaNynmrHn06dfMVdffLqMon3npHXP+JVebqYWd5siJ72VSTChOz7/6gdl57sUelgBVb77/mVnYfq4DpgSgNDhxGaPwXtKj8GAMYhDVgCLVwtMqd9kpkCAIhAATrjNfNM0DgybPk3eOKttVPex1rS54wnsgA1CiPLmAcbruJqoEjtPtk6M2xVQpD1DumH5Cxmo/Vy/AiWWuTIAqgCgFJAImEsycjrUBWDHonCDF2c41NOllglOY8lt5iN+RwHLtylOB7ncdetzcc+gJFzytoC+oL6EFSg3AiOtVU4DUp1/9WY67495HMq66q6671Sph2/aYsv085/2/e9rc9cBjUuaOPeebjz753tfrzvsfMw8++ryHQChsULsAswCip196R0HjkqhIUNUefvIVc+Ot90ugON5JiMkanliQz/Uc++xHMzG3zVx8xQ3m8efe9DOK33XoCXP5wd94gLrq+jvMoUeeiwaMM3Cc8ITUu/BSbrvAlReDJ70Ny3k/FzvVwtPJBU8hKBWtV4YnBSw8pqhc7GO+TFoFkIryqLJtHVYfPEUBitCk00oj72qqTykFqgWonrkpCT1NpqsFoGDsYbRp9Knq+DQyKowKFSCKQJUHUiE46XU98k8gaiY7sSYUF6gqOKeN/3EQlQNQotAcOOivh9elUyhOt93zkHny+TcFlKAMQfGBOw353vnoK3PBJVenyoAK9d7RryvtRxlwKX7w8beibmF9dnGH+fzbf/BlQgFDcLlvZ3cfcC9+++jz5ta7fucBaunsfeboZ3+QQPGbbj9kHnriZYl1uuXOB819v3taAsWn5nc41WnK3PPbp8z1t9znP8ty4OqbzB33PSbAtGl83rx39BszNrOUAagYPEUBiiDkDIQHozCInPl0SgjjtiE3sWaRIWr3rWz3nQIJQEoZ0MT2p+Amrz8E5+ExsfL0NuZLpXnnqLKdz4W/1k7BSR8XuO+q1KNPeVIKFEfbaXjCcmUFqob6FALUaleElvP6moQnlLVyASqrQmm4wDKNul+OQBQMvbj2qBbN2tFgIUhpYNLLUKAEoPChYfnYsFOiFETNb9tlPvnqZ6mPQJtAVBygUOfF7bvNp1/9LCAeXpNef+K5N819Dz5lzr/kKrPvwsvNzr3nm4effNncepcdJYeYqNnFnR52cCxcd48/+7psK9uP/Ag217FMXIbShf0ff/mzWVg627e1tLlr59ff+UTisdDGANQDV94oihSmJ7jg0mvEjYflDz/53ixuP8fAJXf+JdeYp154W6DplbeOmZ17L/IxT4vbzzW4ZkxRcNu9DxtAmI11yo668zBEwNEKFLZpAAL8hK48HkeY4nqYuv1itPr0okdd21+f2yAFExoIuKyBCtv0erKcCzcKmrLHxs6RlKnz55Zft8+krhfnYh2qpKxbmNdu93WsW6ce508BVAhOXG9s9F0AWHThLSdcnEznbgqkVjNAwcDDoCPlMox5/s+qQ1qZIkhpaNLLHIkXQpSoWqJsLZkrrr3VPPPyu6mpF3wdFOgR+K687lYJjGa989ITv/+LQRA49xO8dp17oWxjLBT3I0UM0s23P1BpP2DrlcPHfPks560PPzf7L7xCtsNdt7Btjweow+9/Ju07s7DDfPbNX83M4nY7PcHkvLnj3kclQByj7HAMjj3/koMSl8RRdrfd/bDEjCGY/MQ3f5FP8tg5nTDT+JTUByr6u0e+MkOjsz5YnEHjTEsBSkOUGAfnytPbQ1gK11vVafWDXAZsQijaRw/SAAAgAElEQVQI1wkP2dSDA8rUMKDOgTwJEHVYdli+PleVZVcfW4+wDlXWeQ06r93m26BKPfqcpxSgoEpVNrwBIMXinvS2FqCWZ4Rh5fvJuLYgXdkAVa5C0egz1QqJhxhAlXc90cW25Gc+t/NJbZVv7xGekiBypzxRgXIqlAeoma3iqrrx1vtSSlfq3Dy/gynEB2G0HOuclyKw+4Zb7zNzW88WoMEIPChEVJ0w+g7lAKzOPudC8+Tzh2U/4adoP/6MvP3RF+ac8y/N1AOq1BXX3CLbX3rjQ3Ejbtm519z74FPm9nseFoDafe7F5pOv/mRmFneIyw6f1nn25ffMeZccFLcdPsvyxXd/E3hCrJMFqEkBzX0XXWXmt+01H3/1sxmeXJB9hCgEksP1d+CqmzLwRGjyLjyAkYIeHwPFbcH+xHi5Fz/zhSmBq88v+JTRbc+dhpCm20NBTT7QaEDAMsEhnXpoCMFGnSPpezg2LFevp8vGOXPL76RN/DXwevS5qyyH9WM5qp6d1KsPx/wCn2YZmcRcN1v8fE9UnpD2YvoCQlQLUMsDUFTdOgWpkw2gCCMJMCUqVbItgSjOU8QRfBhtB4iKApQLJGccFCHqo0++MxiRxjKgcJ19zkXBCLXEpffRp9/JVACsK9I9+y6W/Hob4pvePfq1gAhG12GCy0++/Nlsc+41qFPPvPyO+ez3fzHHPvtBgsaPfPq9xDGhnKL9t9yBGKUXM/CE47D95tsPyb49+y8R0IKahJgn7Mf14b3w9kdfSn02j89LsDgCxSfmt0ugOCbFPPzBFxI8vnFk1gPU0c9/MGOzSwYxTm99+IVMz4APB9NV9+BjL8ooQJkHSk1X4KEphB217gEqACdtsAApKfeeOl5grFWdegsufTCUpSCqoCSBok7gQUGDhidVfhqcCB9l57L5UuCky++0DT08uWegEOTy6shryKZS307r1ofjfgFIKgKoygHkXQSR06C36fIAVV2QWvkAVV+FIoQAmLis0wSkEncf3XqEIEASQCrlugtioAhQqZSj9HQclHYrBi49Xa9BXZb2Ugoe2mSz+4bdptHwW3bxjwCnJsbMfM8uiXF64fUPze79B7z6RIWpyHVHIPIAFUIR152yxPz6czAtPAVupz4YtFLQaboODmwSaOoUJCw8pACHdY2eg7CRByXcznw5YMZz1E0zdeL5OkmTOup2HHR4Ql8rBChx38EtF7hwctdruvAucfNAteC0POCUafeK93l1AFSPIYoxVPyEjJtbiiP3UhDF6QwQ/1TwY+B6xpVHmFIgNajghHp5eHLKk51RHB9ynvWfX+Gs4lCS0p9jSWYV9wCVmlUc4GR/mOIA0yI88fxhD08amrhcpESVAlQKpOxknAQ0QFXfDXpdQ9jm7+weOYCAkddGX0C6tgpTADcZUOH5qoAK8xaU38n9l2uucv6qeZJ66rZc8QBVy33XgQLVAtSAgNNCuh65gOwA62QHqCI48UqUUqr8No7ac3NKwbUnIFUFoGbttAkJRMFlmKhdqWUHKUX1XM59BCjA5OjkgnwEOFGdZmQEHeKbAE5peEJQuP0VfwzYAhQCyhHjhXYmJBGaCDnhOrcz1QCVl5dlA5bkuBacOoOSToz5chyTgpqqkFCczytPvJ7GzmHhJFM+z1Mn9bBYfC31ITIAPMJpnbotU95CBaqW+64FqJ7N5ZRRigLg6cX+IohaPQDVuQpVF0ASiEqgBzBkg82TaQxyFSgNUJwp3bv0ApgKVJ66de1lfrQDXJtwZw5PWNUJI+MwNQFUJ1Gehqclpoij7JJUwVOO6kTIyUsJRoSevHVu36O/hefip7CP5TMfUlGbVtDLv1XHaroYG4MaDSAKHgABqXMAfnTeustJeV3f657BE65J1ZPLywREddspF6Bqjb7rAJ4QMNoqUGnlpxcg1HWZTnXSQLW6AGp5IQrKkYBUgetOoEpgK/jsSwakkqByqjw67SUYVSkb1+pVp7FZcdkJOKkPAVN1EkARtSlx2XnVKRPvRKBJ4p4IOGFK4MF2LhelWoEK86XKaAPFV6/q1CjUaAhy4EBYSJ1H5+tkWUEJy+80bdxll74eQmNdeBmE/LkA1Wv3HQx7C1ArAKCodimQWn0A1SlEdXZcyt3m3HAScB58LialRjmAynyAmBCF1CtS6TgjQlQVyOlFHlGdZpeMjnXKqk5Zlx2ABfFMKbddTeUphJ6660UAJWW14LR6wQnA4aEmbfQbVYb8ORgL1M25kjpL3TuFJnftNiapm/qUH9t1Pbu5xi6PzQWoqTrfv+tAgWoBagXBk4KomRU/EzmgJ++nR9jpPHq7XmYeva3ach5EyRQIAKlQkaoCUA6mUp99AaAto0tPVKeZrQbfCNw8PudVJ7rsNozYIHEqT6G7DoZKVKSM6kS1iSlVqHSqgSmlGG2aMJdfd1upCkWA4rEAOoIT6raSX/6D8A9+YOuQgppyCKgGVJF4JH+eJs6h4KlLMEC/7gc8yTPUbV2X8fgoQI3O0DDUSGuMwKNbqVWgViBELWw3X3x82PzzP/2D+V///l3h77//5x/NH3/6uQBYavSvXOjpVxl5YBSeH/mwjSmX8453gOMDwpP5pFKuvRoARTXLglQQH8XzqCD3XqhOKBPnR5D8yMR8Cp50rBPBKR0sTrfdlMSACEDlKk8WoAA1Nl+ScpuGKL18/MufzaHHXjBDY7MCRYQknScBKAdOcP214NSqTrVjkyJw06hrLFJ+p2DRR3halQBVO3i8pgLVAtTKBCfetxagNAyFABVb1/nLl606ZUFKYEjBU6ELj+48N9ovAShCWRLALufgVAsNj9pLuewiqlMyRUE4yo7gNGm/ZedUJ7xkiyEqiWeKQZAGIr0MgMLvlXc+Ngvbz4mqUQQofxzgqVPD1B432G3XqBqkFaUAbnpynpoB8Tl9Ec9aP38r/VnKKFCYmTzfxVGwr1WgVtUoPMJSLCVA/X//7TsjvxwlanUpUOj7MfjRzwT263W9HDs2f5t28VFRsqP2cgLJCU8+ForQFEuLg80BQPFrLd+OY32gOOApHGGX67IjPNnUB4w75Ule6i4mKlSa6kCTB6FNEwJPhKgPP/3eXHbwNxmI8gDVqk6DDT85QFDZQDeqBoUQksBNL9xijbiRe3r9YXtgPWmTyveo23vc8PGnrx/NTqSZbwC0MYgsVwQobZBbF97KVKIyAJUDUgCoH376i3xLDd9ba39tGwxSHyA8Mf30m+p99W9//bO56rLzVzdUNGxwBtJQ9hgcPNz05DxO2er2PvWkbjFo4raVD0+nnrbRnLLmzDRATcxGwCj3H3U6L8GI37nLS5kPaQtQqwygAFL/bn+Ij6qiQCEofcu23Wbr9j3+h77RMchX7K+dlx9TYfLqi7zhvtjx+dvCAHC45bQiBVUq81N5sm48rUgFLj3GRzFVwed5ihTrhzqMToWTYrp5nUR1SoLF1w9rtSkZZednFs8JGKdrQStQoijB7aCnJQjX9T61LOD0hXXhbdt7oYHaBDD6j//nuPmPf7O///l/HzPh77/8n19IvhagVrgh7Ck4JHDTvOqUlN0tlPKZ6lfqgbJb6FvG49es3SDwlAGo7Ms+fPnH1zUU6eUQovQ+LLcAtQoBimrUf/vO/I8KQeSzizs8OAGisN5pP+zPcRp24s9D5/XQZSfLhBRCDGOkGB+VASjnxsP+rgAqAlK6LrI8h+kJMClmMsJu44idFFOPsEtDUxqgvLsuA06MfbKph6UQkGLr2KZ/LvhbbwNA6SByD1D/dtz8z3/LghNBqgWoFpx0PwqXPST0BNBaeOoWGrs5/tR1VnkCPPUcoDQwAab0egtQ2fYI22dQ13NdeAqeEBv1P/7f8lF4IUABoqBIzW3ZKf2lcxhpGm76VV4CTgQmpICV1Drhxk3EmYGoplQodR4dl4VlTLUwMmlH2GXmdSpUnabc51oS9UkgKjPSLgEowJOPdSIYUU3ies308mtus5Dlytm93ypQBKW8tAWolQNQgBsPNPjUTk+ghrCewE0vzqOvoxsIQDkh9PV6vbG6V1WeXKC+nLeh5dPOHPbKkwcoBI2PTG6RX6fGqlND3ypQKxOi6gDUTz/9bME548pKgAQQNb/1bDO/5WxRoNCfOu2Lg3ccwKfO9aRBSUNTuKyBJqNGKYAqVqJK3HgRgAKsjU0tqk+xzGQ+xcLpCZJ5nbTqhGUFTxlwwtQE2fmdPEQRlCKqUiVDoI9TELZ7/wFxzeWBE7e3ALVyAApgjvdJpX7BftVR6tpE4KR5QGkMQKrAE58Pph21B6HSpoUgo6GoIdgpPF8n59g4bk459awsQOHl3i1AoYxOIKoFqM7arZO2bvKYjgCKCmQtmKgDHqspb2cQBaDySlQAUAJYUZdePYCC6pT+APCsocuO37EjPGXndlLQBHcdfzUAysc6NfBSp1Glcdq9rwWorpQNbQgHaBnfXMQfNN7vXqQ02L0sm+foNK1UN/6h6Bc8AWZ0X+kEbvpwzNrTN2XgSVx4LUCtTIhpEojqltUVQLUgVVGRikEUIDG73cYiJSDUC4gCgOEDwH5GcT89gYt3Gk6CxLPgRPVJAVQuNKWVJ6pO3n2XesFbl0klwxABLoITX+AtQAXGTBu2Ost9MGhVIEK70fCOA0QB2jvtL7HjWI/Yvia2sfxu08p14fMVeV4ql6GOrVRv3bcGpO+k6r1xLApPLUDRmLdpLQWxEYBim7eKVAFQZWEpBlB6G916VJzy0nRweQJfPF6nKMMGis8nn2JxgeKJ6pQAVNZtl4ATXXfWRUdXXZgmsU8anPwyXtCbXGxLFZeEeqHTCMgLUr+4N46bvgPUIBqLVVIn3mem6G+IrVyAEtWQuoI+xPKbTlMGvIt7oiGytI4NtYs9j4sHq1J3/RxWyd/nPDHXHeDp15jGoFWgWgVqWRQoAhTSFqJyIIoARfck1uMqlIYoLHOEXB5A6e0alsJlzHw+OrVoP8USVZ2KwCkn1ikz2i4EKPvZFACThyb+M2YqwcEWokoNgwKoGDgtiwLVZyPQlEFeCeXk9YcNw9MeorpTorpTPvPqx+1NtTHLq5QuFzzxORhQiApdd4Am/k5Zc1YLUHXhoc2ffAvPz0QejL7jdozC80HkGphiy4ija0EqAlIhRGmY4r781AKRmjuqUmyUVaT4HbtNY7MmM8pOXHZF8GRVJ8Y5+TmeCl13GqTiKlQsBgoGp8xInKFHY+GlzRc2l4fGjQ8ixxQGBb//8q9qHigagDa1o92WsR3K+gD247uMGOkr7jx8GFrBdZXlKn2tSjnxPDVUm5J2jpefDuz2z1KD8NQx/PF5RFpybXn7rdqGd0Ezv9M3pF13HpxOPcusWbdBfq0CFTPm7bZCl16jLrxYW7cgFQEpgpNO88FJK1JV1Si69TjKbvP4nAenoVHEOs0Y/Iu3P/sdO4l3wsSYqckxE+WJAAUXikBUZYACTBVAlDJ8fKEWGQ3mKUpbgOrceBW1az/2Fd37cB+eDUAU3Hnok+H+vHVcR96+brc32UaFdSEsKSW3ML96zsrzdQYucu0KoJoCoG7KwR8sKEx01QGeTlm73oNTC1Axw91uKwQnqm89ByjehxakKoBUHYjalsxinqNEyfQE43PisgM0EZwQ65TEOwXwtJlB4jpN4p48RNF1Vzr6TitRBCmmbtbxii/2OoapBaiVB1DlRj1QXVy/mQNEbdluFhaWKkARwSBeVqd1SI5j+dmU/bcaDJTUj9Ck04rPUVLXvHNk616tzq7PDRRATQgoWcXpLLMmAk4tQNFIt2klaCI8Ie0bQLl7Y+N+tPLSLue3ST5QcbSejn/iMqYnADxBdbKwRHjSn2NR4ARoyqhOBCg7RYEPGCcwhQDF9cqqlIqJqvDip/GpmrYA1TlAVTWWzebLM+bl2zdsnjSLi4SobQVKFMCgvLzO8uRDB/ts9faqUEcNTlhu7Lryr6Nq/b1LXSY7bbJu9ctae8Ym83e/XGv+/tenZxQnghPTxlx4eKFrI1tluZ0Hqn6bVWnXXufpN0DJ9bRqVAU1SoNlFqQEoMIA89klI7FOk+47dmN2XieMpIOrLlGdyuOdCEziqtPQRFBiWhmYQiXKqlA+diNiAGh4OklXI0BVNWArK199oxiDBbift2zZLkrU4sI2O2DB9ylCQTPnyp6f5WdT9t3q9ySoYwyUYtv8tQbHL8N2uWanQmXbqn/1A8j93a/Wmb/75bpSeMIHhVuAahWo2uC7LACl7lO++qIBol3WcVB6mSA1MWtVJ0w0COXJBotb5QnGBXFLqe/ZVVCdUu46QhSBKVzn9hqph6eIQaDh6TRtCqCqG76s8WyPLWuTZo3p5tEZASi486BIbRyeUkHIzZ6rHAz0tXdw7vCZKFpfBkgquv5BAahfr10v6tOv1pxZCFCApxaglFHutWqzmspfboBiW7YgVQaJWRUKIIWReZOzW5PpCWSU3YzZKIHiVJ0sQFklKt9dB2Ci8pSBJ4BRCE1dq1A2Bio1vQFH2LnRO51CCAHqP/7tmCn6/Vc3Cu/qy85XxlYbv3a5/B50AAg9MvrDY7MeorYsbjdDI9MNureqXCf7S5W8OXmKYCnc16N2LAKk8n3JyFjbd3Kus4d1x6g7uO7+t18Vq0+EpxagWoCqrT4BXgYFoFqQKgMo7M9ClP0IcOKyywsUBzwBVCwgMb4pTEsAihClVaauICoZmZe8lGmAuktbgOq/0Uru4fKee2JqPoGoLdvNptF+QJTurx1efwhHVdZ7CCGd38/lBqhx8/e/Pk0AKjbaDjFPp8rPKk+EqNaF10JUbYgaNIASkGpjpBwsxaDKQhSUJ8Q7wWUHd13+/E46WNxOapmeXTyBpmi8U6g6xSBKA1WwLGXqbQFwiRvPGwFthLpb7gygOjR8vv7t8Z0b3WbbbnZ2i4couPR6p0TpftrFNVSBpbw8A9b/vAvPz+HEdrFgBXXotPWj/od1xCs11XdOWz9iA8dPyQsc32hOXZeGp1aBauGpNjwNogJFJQoTcZ7ck3FqtUmDlP3IsJ9RHPAUzCqeBItbeEqAyQZuJyqUhadS111NaNKfdklBWVBOAk/aCOllvnjrp7v3X2r+9tc/m//4t+M5P+va+6//+qXksy68+udp6qXfltN828/ObU1BFNx7zbVzesi+hoJ1Z42YdWeOmLVnDvsftgEaorCQB0Z1tg8URCUKFK4X137qGZvNKeuGzCnrNppfr92Q+WH7qadvkjbq1u2HmCe47xADxRF2TAWcAnhas26j5GsVqBaiakPUQCpQ4X1cYYqUh8AFDT6dLGuIsvFOEzNp1WlTlfmd1NxOgCWASx40pYAnUIs0GMmy3k+lyqW+HDfppoU2jsSrN/9TJ0avHKAsWLUA1Ty4dHK/enEM+ujCgp3eACoUfuOT8x1CVAIFUEvWnTUqcHTKaUPm12s3ml+t3WB+dWrFHwBi3UaDYwFZXn2pA0xh3oEBqHFz+oZRs/aMYQEmtk0MmvK2rTltSECzbp9AO3Lagl+eckYGngBKACjC1ClrNxj9awEqNLzteilQrQiAwn1cgYpUMyBlv4WHGcWhOg3LxJh02aXndwqVJ5lZXMETlSiBqCHGQ6VdeB58CER0v4XrVJOwXS8rgGJZGXjqw8u+BajVC0Z1DCv63vz8UkqJmphayP0IMYwwlCJRj84YNmtO3ySgA+ABDPBXGZYqQtWv1w2ZU88YTsAhBKSq6314tsL2h8sugSanMJ2aVZnygCncTqhZd9ZwZdiF0rXmNAtHvz41qzwBmk7BL4Amvd4CVAtMpcCkjTqWVwxAqXu7kkbshe1dt+4S6zSzxYxMLgg8SbyTd9nZUXYJOCXzOwGe+CM4eZBxn7wA+BByMoqUhqI8iCJURVKeiynOlbjsem/cW4DqfRuHhjR3varxZ76GIQB9EHNDUYVCOjOzRQZVWDVpREAJkFRLSaoIR7VgCwZ+3ZBBHI88L2yTOmnD7Zd3XwEtAE265eQ6ocRFXHQhJBWta6hB+Xnn5/YzNo4ZqEsAJKpLOtXlFS03ClB40Ycv/6L1diLNeu1V1Jb93LcSAQrtUxdEljN/0f3Mr5f9VMvY9KIEim/2geJUnfA9O05TEPmmXUR5siDloMl9fNWrR2WQlLdfbS+CsX7CE16sLUANAEDVMfrM27Txd+Wib4buvOmZRet+6wUINVCmBalRCxBsnypp022oyoPaBIVuzWmbkrZz0CTw2SVAxQAHMVSEpVh66umIrcrCU6ysom0tQCmVoshotfsS2FupACX3cAW59Yr6XBaithlMjDmqZhTPDxQvU50KpiroBqIATlSe3DLVJqYCZ3jhqxdwv5ZbgFqedvf3t4qhD/N000/CfsayUSaXN46bLe6TL1Sj5ua2iuJTSyVqAI7qnO+U0zbZOCleR1HaTRsWHCtKnVObUnWPwFM3ClQUcNZtdMHl2T4N16G45gKAipaj3Xc+fzIar3GAwou96MWv97UKVPW20u223MsrGqA0MA94oHnRfdYAhZnFx53LbvN4GOtUrDrlxTyFLjwPOAAgDVFUk0I4iq3nQBPKFrBy5XqDWvBy7kWeFqCyxqYX7Zwps8i45+3rpm/oMlkOtnF5aELiihCYDMOPdCGIiQJErVln96fgoM+gVHjutRtkNJtcl75mvayuWV9/N8tQnOBGk2DwsD1y4KlxgBK35gYZpQe3ob6etRjd5/YXuu0iwMT5n5i2AKUNartcCX5XDUCp+62BZKCWVR1DoEI9Ee8El134KZaNI+XglIp3yv0wMNSoJO5JYEcDlAMq79aLrPN4gpJep4uw3+46/ULlcgtQaYhgu/Q01ca87nInxj88hy4D+4YmJLYpBBMMl8cs5VShkEKZWnfG5uoj6UKY6NM6gto9ROjr19fe0DJcdRIXVnRtEYgqim8q21emHCHWyQaX21GRCByPue8SmEJguZv3KZi+gODEtAWoAgMVGqx23SpmqxGgcG8HCpy0Ohbpo6irnVE8+x27ODzluO0KwYmuvASgtAsO0JMCJypJQZoGJlsWt4ma5QxXTw11BQPRAlQfAUob8m6WK9xX36+KzoPPAW0cL3TNAaLCmCh8jPjMDaPml0XAMAD7AFG4PmkL3Q512q8kL+KOJKap6Hoj8NQT9YmuN46kwyzipw3JqLuY+w7AFP5i8z8RnJi2ABUxTi0oFbsWVytA+fuu4WVAln3dFpzqhOkJ+BHg0fjEmMlIOzW6zo208y66QoBKw44oSIFrLgVR2Kf2e0hyQMV1pvI9u5KXsjd+fcjXAlQfAEob726Xi/pEnbKHJiRe5leYm6nI+J9qXULh6DyoUZuGpypDFGCr6q+sPpX3r91gY4J0uxS1X819Z2wYK4cntm0EospUptj+MuWJoMQUChOXkYaKkwYoD0+tAlUMA9owtcvV2qobgELc2+EPPjO7zrmwkrtwWe/JgMBTooxtE9UpFig+pFx2CThlVaf1AKZCaKLqxDQNUV6Bcq46AI6GJr+/KN5pmWOd8qCsBageAJQ22L1Yjhn6qucZmpAYIcynVBVEAD6IiZoPZiwHRI2OzxpAWFU4ajpf2TVgEk6vQMXarYttiHkqO7/sbwieAFR1AKpjeCoAqLWnbTQ9UaCmK6o6bRB5NWBZVoiI3MtOAGrHnvPM0y+8ZY6c+IO56tpbBx+e9HUPAEhNzi1JrJOoTmNz9lt2fm6ndLyTBahEdfKxToSnLgBKVCjtogMMBa68ME+iOPV3Xqc8UMrb3gJUwwBVFWQ6yZdn7CuWhZggBDkDYmKGvwxucGw42SYgamZmcdkAKqxzeF3YX2WOpLzno2j7ug4BKqYsVd3WDUAlClTadZdSnmLw5LaNjk7L/e8NQFUcidcC1MkBULff+7D59KufzX0PPmUWlnavLHhSIJUoQf2Ml0pUJ5lRPDO3U/nEmPVVJwaOx1WoEJBEgVIQRWBiakfYNWyc8wxoF9sJUPhUyzc//kvp7567bk+N7ikyMCfVvooQIwMH6ubNu79VyxkaTwWJh9BRa33NBoN5oQBO+ocRehjpVausGm69uuWGIIVv7jXZH0/bYOd4Cs8TXVcKVFVQiuUrhKdcV13iwrPuuwJ4Oi2ZqoDxTqeduclMTc3L4IHxiVlzxlmbe6RA4R+7Mjx5CkoLUKsfoL774z+WGqIqxqrNU27Q2zZqpo0ARvhQMH6H7r3NfHnimF/ndqQTU51+I23wYbJjA1sVZDrJF4OnGuVghFgvXGzT04CoHSmIwgi9084cXtUQBRUPk2NGQSmm7Cl46lfgeKI0IeaJwKSXuU2NuguUJ8DWxMScjMKcnl4QcCJU9UyBwr/1PHDi9hagytuIbTVIaR0X3h9/+rN579g35rGnXzPzW3eW9olBus7SuvTQtTcVcdkN5bjsNgxnZxWn2658nieqTLGU8U/cF65jOz/2izT54DBVqY4NccxYLsM2qFIvvXGk0X/sK71NovWvATKNKU9Vzzk0YU7tpSK0ZoMZG59NARQVqY2bJgYComKQ0407T2A0BklF2xRAxVSlqtty1adAeUrgKYGkBKKy27z7jurTuo3mzPXDZmFhyczPbzVnbRiRDwsTnpC2AFVBKSs1pCdZGXUA6qeffjaL2/aY5155z7zx3gmzY/d5qwuicO8bnt0cHwHmCDv5HIsDp6HRJNYpGyieDhin2647gCI46RQQpdctRCUghaByN5PzMgBP1Lh3UY8WoCqoZbzfvUhj967GeWRqgtOG6kHMmg3ml2vWm79fs15SuOPOWD9izto4ZtZjKoANY+aM9aMGcT863+aRqYwSBZAan5ird/6G3XkxeMI2uAIBlp08M/hkTF65udsdQFUBJVvGevOrU/FLf2S4KkAVwVJsXwqg1m00G4bGRHUaHZs2CBjX4MTlFqBOMvhpAgbrAhTPefehx83Rz340F156zYX8LloAACAASURBVOqDqAbmkcKkmBMzW+RzLIQlpPwBmvgrVZ0YKM40Az0hBBWtx6CJ4MTj7Gzioi7EjN4K3dYCVAFAFYCMqJESF2eBumw9V5UK+03BOcMyAE8MFC+KG4KBhitqw6YJMzI2Y+CmwSi7cOJMqkphinwIKAcoWXdeOiYK+Wdnt1SqS1E9u9mXCzXu2s8ccnNEhe0dWQd0FZUX3VeiPmFWd0wFAVcZAvGh+qBd4QrFLPDYNjE5Z0bHZszGoXGzfuOYOWvDqDn9zGH/UWAoTvhIcV3lCTAl8KQgaa2bfX54ZCoKTgCo3o3CU64NGs9Y2rrwVr8LDwqUvveXH7zZXHvTXaltev9qWK4fbL7NQHWSjwCPz8ms4lCerBtuWgCK4MQ0AahEefLTE3C0XVfQRDCqlsJlt9rgCf/MW4CKAFQOxJRBUt7+EHz8ujbeOef0eYP9p2+08xJFoWONHXm3YWjcTE7Ni7G2UJSOYwpBqdt1wACUrGidGladYueIgo1zuWH2cJloE+2o210vb5qQUXxF5UT3KXiy+9cL6KD9EYwdm1errK1xDMCKv7nZLWZ0dMZABRzaNGE2bhqXtha1SuZ8yrrstAoVAygMBhC3nQIrKk8tQLXKU8cQ06kCtRrgqNI1qD8QZTBF1WnEfQR4s5uiAKoT45iKoIl5xFXXiNpUDZgSN17ybbzcF69+Ca+w5RagAoMagAoBJg+Oirbz2GjKfpJzvtgxPFee8gS3E9xwUJjsjOK9BaYYBGDmcigtAIkY5PRyWxRudMyS/nYe29+laFPMZl5ahi5PLcNtB3jctHlS4sUAJwBKthHUJkARlCZAEFylUJigNCEv81VJUc7c3BZRBKFYQUVav3FUBZGnYSqEJ8DRaWdsMmPjM2Z2ZtGMjE6bdWds8m48mVNq7Xpzytr1vY2BEuNRACqtAnXyKVCVAKSgz6yk4zESNR+gtpnU3E7jbm6nsVnvsgNEEVTSilOiOgk4bU7mfGL+nqUK0lar6qRBsAUoB1AByBBWOk1jACTbtOEOzpl3DOuA/TD04Ug7uOfgGrJKR/+hKWv0d4irr4p7sWmgqgJAAE1MTQC3HkbawWWHulY5NpYH0DQ5OS8/AJJ2jcK1CbBam4Kz9QJQMzNbojFl2fbMukyZB/ccUw8AguCWg+oEVQr9YWpqwWwennRgZWcmB0wBkLJzfO2QegPm4KbdNDJtzhoabwFqJRnkQalrq0BVB984RAVzOzl4SmKd0sHidj4lQFIanKg+eVhScOO3NeHGY7lMOQs5DJw2eKtwuQUoNyDAwQxhpdM0D4JS8FQRnHAM68HjYfwJHfjQ75RMMZBvYGloO01hoDUQ1CkHcT6oI+vbjzQGOHnbuoEmKE5DmycFUgAqACe2FVLEM2GaB5xbB5Vj1CLccuG0EHXaNZYXZUJRGh+fzdwv1A2qJGDu9DM3C1BhVOXGzRNm0+i0GZuYN3PzNiYrLLunQeT8951n+FsFqrohzmvD5djeAlS9+yYQ5dQouOzGZ7YYuOwwMeamzMSYaXiC+44wRGDy7jp+186DTV33W7X8PC/q4acnOAngCXB4UgNUADKElU7TpuCJ5w/LW3P6Zhk5h9FxMIZbt/ZPbYI7CmAAY1zX+EMdkRF/fXDr5cFS09sBSIASHZCPNkKgPT6FE4ITVKhegFMIPNptqPctLm4TeBL33ZnDor75/qX+GOJdCPUJYA53bAtQq8Rd1E+QagGqHkDh3uDPBF12I/wIcAk8abcdZ/VGoLgGGoGrHgCUhzSlYJ1s8HRSA5SCJwJLU6k3TOocelud8/A4zEuE6QamphdqxctoI9rUMuANMTgwsFXLhIsrdD32SpFqGpZ0eWdtsDFmhCdAEaBF1J2zRjLgBJcaAvn7Cbuxe7Jh45iMtjt9vZulPadvsr9ReW8BqgWo2sHkLUDVA6jpeYyy2yrTE8jnWALlaWM4v9MIXHX6Z6GJcy0RovyoOwU5VKu6TdOQZifJlJcH/o3h5aL+la3m5RWvQJUZgpz9dSCmTl5vgCLn7bQcxD1NTM5XhpWYAe3FNihSdcoFaJy5YdT8EvNQ9UiN0rDT9DJG1SE+CPBElx3aANu1mw7LmIkcAf2duj/rtGtp3q07JA4L/aiof8b2tQDVAlQLUD3qA3Ddictueouh6rTZxzu5YPERuOwSt10MnAgzSO135SZN4/AEFYsuQQVkJ0OguABgxKDjhbn7PDcTec7+2Et1JW+rAzF18xa1S9WywjKGxzobBl9qVGuoR02XNTo227M5o5qGJpaHeCarOi2K2gRwQiA2XHOxz7Zgvq2m262T8lDPzaMz9g9hB894C1A9Mp79dKn1+1ytAlWuQF13893y+ZpRTk9A1Ymzio9ggsxZc+f9j5ljn/1oPv/938zjzx0247PblPqk3HUebuy0AVUVpvnt55ijJ37wcVThcfM71H7lHtyx50Lz9Q//bK656e5lU5vmlvaYIyd+kH+FE7PbzUeffp/7D3FsdqlwPw3v/ouvNnc98HhuOczH9GQCqKoQUzcf2zKWVi0rPBbHzSDOqRR0+hcHVV6X6i49wIcEmGM29AbVKAJPkylmY8dIN6hPcNVBScNoNYl1WpsOEsdEl/gsSpNt1U1Z45Pzld8FYR/EegtQLUC1ClSDfQCxTtfceKf54vt/NJcdvMVNiumCxQlP4rKbMbfd+7AA1MjUgsHv4I13m6deeCs62k4UJ6cSeRVKKUUhGHH9hlvvlzK57lMXN3Uj96s4KpT/6tsfm6dffMfcCdig266Df2ixl07Vbdf/5j7z5POH5QV33oGDfrnq8bF87x792uzef6DyS/NkAaiqIFM3X+wecFuVsphXpxs2T2WGmSPeCIHAcB1hHiG4wk4/a8ScsWFMRuoNjUzLMRj5hjmg8JtyI8O6McC9PnZkdKbR2KgmwYllYcQa2l3D06mnDWXcdoiPquvW7FX7oq9In+ry3dYXgIIrI6aStKPw4u0Sa6tB2tYqUPH7dvbeC8yzL79rPv36T6LeTM3vMPItOwSLB/CE0XXvH/+9Wdi212xwMU+bxxfM59/+TQBqfmmPKFPafTc6uWh+++gL5vjnfzSf//6vAjk7917k1aWxma3m4SdeNp9+/Wfz1odfmKtvuEM+hHvT7Yckj+x/Mtj/5hFz8x2HJDAdcAWjduDqm8yjz75uLrnyJvPo06952Pj0mz+bTeNzsg5l65sf/8Vsnkj+wT3z0jvm3IuulG2HHnk+Vc/tey6U44YnF82xz380lx38jfn4y5/M7fc9KttHphfNQ1L3P0ndr7z+dqn7jbc/IPtvvfshc/Odv5VlbUy5fMtdvzO33Pk72b973wHz9kdfms+/+5s5/MHnHphQX/54XFm62gGqCsR0kyevfauUmTl2aEJGQGmjCqON79Jh+gKMZLPfr9tgfr1uSOYwYhmIH5xAsHKpYlVdJepXWVCjTj19U9dKFIGnyfTM9aOiPAGgEM+E4HmoTNpth/NhLqiBiHdy939iaiH3XcI+UyVtASoH7gYJWAatLi1AZQEKsU6PPvOaufn2Q+a8S642r7/7iZ2iQIET5nnS8U6YwgAgRYBCwPI7R77OdeE9+8r75rZ7HjYTc9vMprE5c+nVvzEfffKdwBHKAjTddegJMzm3wyxuP9e8e+QrAYZzzr/cbBpX++d3mC070vutqjVhhsbnDFQauBJ3nnOxeenwUf+iQflz2/bIOmDl9Xc+NfPb9sr65MIOOT/Keebl9wyAB8AGN+WlV99iPvzkO8m3tOs8AcyHn3rVw9fG0Wk5FmoXzosyWfc9510mxwmcXXilLMdebFDL9l98lezHuc7ed4lBuRddfoP58BPr+puc326OFLgBY+WuZoCqAjGd5om1JbeVlcl8qXRowoxgDh9nAGGMMZw8dG/BWK87K38kFUBqcgBG6uXBV94we+THrNoAk/Caq643CU4sC3M8wXWHei8uLNkJMQO3HRTBQVGe2O6bEPfUgKLeH4DC1+ojoNIqUPF2ibXVIG1rASq5b+H0BBhld/u9j5g77n00qjrxsywCTmqk3cziLvPBx9+ZA1fe6Kcp0OoTXW/chnXE/Xzy5Z8k+Pum2w6ZJ194ywaXO3fchZddL0rYyOSigQqF/TieweIXXW73D08k/8Zuv/dRr/RMLuw0Hxz/1r9onn7pHQmqxovn1bePG6hEBJzf3P2QueqGO3xe/XICSKGe2HbBZdfJMkCNeW687QHz5PNv+XXmQwwWFa6jn/8gQMZjwhQfqcZ5sB2QdBCxW8EL8sLLrzePPftmZnuYT6+vNoDKhxcbW2enqqiznExmqcvWbYhlva/Kcnj8mBplB0UG/fiU07KqDGbODo/NrA9NmI3DWTcgjetypgARQAlBMawLpgU4c8OYQdxRVXBiPkJPUylG13G0HYB23Zn2I8N6xB0+xQK3aXgdy7q+dUd5HwneHZk+5Pb3DaBibrwWoBJDPEiAVFaXFqCS+yYfAZ5aNMNubieMskP80J79l/pPsmjVKQZQu/YdMEc+/YO59uZ7ovFPMBabx+fN9bfebx556lXz1Itvm5cPH5NjXn7zqExuefiDL8zZ51xs3XkOkhZ3nGve/ugrASbs33XuxR7OAGAL284RVxdfDtOLZ5v3jn0jqhG2AbTgUuT+e3/3jLnkqpvMzJZd4to798Irxd0H1enw+5+ZIfkMzay57tZ7zcNPvSLABgUL1/bSm1bJuu4395lHnkrcgigbbja4InkepFCh4IbDMgLIi5QjqFZ6P6DnnSNfSR13qXinu3/7pLnulntT59HnjC2vFoBKQwsBiWDD9bopj0+nuh3T503ni+3Tx3J5bGLOG+DJ6UWBMcz7RDBACijAMHSUyeOqpAgizoOV5TLyqA8gscjlhWkb9Kzrui1iy01BE8vBLOWYc8t+0267GR6ZTrntAFGoH1ysy9WOeefFyM0qfaNKnv4BVESFagEqMcRl0DJI+1uAshNjTsy4uZ0IT2NzZlxUoZ/FfVcITi7u6arrbzeffPmzOf+Sgw5u0p9rEeVpeMo88uSromrtPOcis233+WZ2y9kGcUYAAqgGiInaODprFSgElw9PGbjuEFcEAMN+uNOwTHcd1KPfPf6Sf5lABWKMkE6p7AB+EJSOuCTAE6DnhtseMBjZhtGEeOE89OQr5rZ7HjHb915gtu46z0wt7DT3P/ycwCH2A8JCiEHd1g9P+3ogn66bBJC/kFao9Mtt/yUHBdb0NlwjgEkraK8cPmZ27LWxWDpv0fJqAKg0qGhIAtDo9arLcRAK2zF93vxjYtDDbSPjCTwhEJznSMHDmg2peCfmqZrimRg4lUS5KvNAAIA1PDpdSY0i+DSVnn4Wpi2wrjvUj3M7SXoq4GmjTGswaHBKAK/SN6vkaQEq4locJFgZxLqc7ACFeKexaaU6uRnFESh+8RU3iDHXSlO4zLmerr/lXvPhx9+aLTv3e2UIL/PwB4g68c2fzfjMVtmH9dGpRfPJlz+Zua27DeI6EOejR+qhDMQFXX3jnXKM7A8+xQIli243AMsLr3/oDRSNzxvvfWoQt4R1uN/u+e2TBq48nBMq0T0PPmWeeP6wQQwU8iDQHAHhPB4uOASLz2zdJdtwLICL+5EyRklv03VDPNUtdz2YOkbn1fsRwD88Zc8P8Pvy+3+U49A2J775i8Sb6WPLllcyQKUNQFU4KsuXD0Jsy/R5y/PzOKT6WDw3MMAYMaXhCW46rbJUctvlKFP6fPbjtYMXRJ4HUHb7DlGrNgxNiAqn24XLTUGTLgefZLGfXtkuE2Vin1WdNkqsFpSnQYt7ghs47GP6/ney3AJUC1DR+LQicDtZAQozisdUJwRwQ90ZGp2RUXIHb7wrFSwOQ0BoYrrvwqtEeZrdutsBU6I8wdiHEIXAbqhVcBFu332BuAmhEuG8yI/Rd4AhgBXmT3rk6ddETUJelAUl6qrr7xBXI1xwCOLG8YAjwNCb739m4PLTxgzLiJuCAoRl5EXgOALVsQ7X2StvHRd3HY9DPa+49jaD2dWRH+5MnIcKEwLRw/OgboinAmyFdUO5CCDfd5ENEOd5dKoDzBHADjXMBq/fLLFayIs2+firn+UcUKf08UXLKxWg0sagDIqq7k8DDs4Rtl36vOX59fH6WPRJKCyYbgDLOh++eSezda9BwPhoap/OV7acnI/XP2GGx2cHzuVUDFAEPgtSGJFIcEKqoaepZYx0tFMWWFcj3HlUnvBJGk5pUK3erH8P06075B2I/pDc82aWW4BqAaoFqAp9IPyOHWcUt/CESTHt74OPvzVzS7tldJ2A08i0TFWAOCDCE9K3P/oi4y77SPJMmYXt50jckIYoxC8hJuiL7/4mI9TgBvv4i5/M5Bwm3pySAOrHn3vTnPj9X8yRE99L0DjULbgR4aYZnV40jz/3hqgwiBdC4DbqCvg6eOOd5r6HnokaImy/+oY7ZR+mIAAMbdm5T9YBSVjXbjG49QBJmEIAI+kwEefxL37yAd5QqHQAOV5qUKzy6ob9CCDHeWI/7qebEXFcL77xkZwf6hmmW0AenBP1ghqGa8a2Kr+VBlBpA0Ew6DaNG5uw/dLnTh8T5tXrsePwsVYoT5jzSefFnGS/XjskALUWH32teB/DfPac8XbBzNRF8UcDAwbRKRl2mOmZRZkDqylgCsvBvE+M0eLIQIwOhFsP8MTA8kFoJ8RoxfpXU9v6ClBhIHkbA9XGQBUpXYOwz6tOQaA4wCmEpzDmidMTaHBKlqEyUZnKKk4anqouS7zU5kkBKkAC/rkDnkLj0a5Xgye000oCqLRRiMNB/ZinNAilzxHuC8+Z7A/7XLqc9HHo7wAYwFM6n/0GIz66e+oZm6Vfh/urrafPF2sTuAwHLX6nDpAAHBCjNLR50s6N1YQaJYHhiG2ycItpC07FSMg160Xp2ojZ4QFQ04sDoeIB8uy9Tfphtf5RPX9/ASoIJG8BqgWoQYCkWB34AeDxmS1mZHLBj7IjOOmJMaE+hfDEuKcEkghLOm0GnDRgAZoEnASeqoNCaODaddt23QBU0y/r4vLKoSAGCvW25RmW8Nw2X6wPpa8hPA7rEwYj4zaPQTnNng+j79acvklmx4/tL94WO198G0b0rTtz2MzODc5nR+oB1BYZITc/t1VSzGh+Or5L1ylIubmdMC0BJssE4MKNR8UJUxpgGoNBUZ/wmZ/ivpDtW53k7ztAaRWqBagWoGLwstzbZG6n2SWjv2PnXXbRiTGTjwHTbVcMToSopgAqKQ8qFF8EMQM2qNtY50FL97iPCQ9avdL1iUNAPTgqKyNmcMJjkjxhP6tWXxw/KRNm4vj0MXZdYp6G4vti+ZNtYV3j63ARSowVvj+3BoHRGwVA6sDLIOQF5ECFwg8QJb/5rWZ2ZosZHZ+RwG98aw+j5XCN+OyNhiuoSpzZHfFNI6PTEhSOwHC6N5n66906GN8dxNcf8vpP0h+K+lC8b8Sep/4DlFKhWoBqAWq5YSk8P5UnBGNjbie44YrhadrHO/VXdSI0MU1cdnhJhAas0/VqL5yil9HK3jfYAFX9RR97+Vfblnf/9LmTPLF+lu5D+jguJ8ez76aPSfbXN4w8R3EKcEJM1a9O3WgD1N0HfBFvhc/CrLQReoQngpSHqLmtohzNzW6RdNZ9w256esEgtglzbmGEHdxfAkaAogEBIw9q0dgvO+AArtdq/bq4P1QtowWoCgHEoZE92ddX6yg8G+/kXHbj8wJO1jU3E5lVPK06FStPVJoAO1zuJCUs6RTgBNWJL4QEnvKMULs9MchlbTG4AMX73cs0r530OW0eDU5o0yzo6GP0ct45mtiuzxNfRj1PXz9q1p6xWeKFMEElXFMAEAzTp+IyaEPyy2CCADU5NW/WnDYkcUtUozjFAK+trKzl2p9RuHLACYDHyTGT92D8fje9vwWoFqDaUXgL243MKK7ndhqfs9+yG8Pkk1SZ7Eg7Kk1hWhw0rqEnXAZMcRvBCuvhduZhmoWnMiBo9yeGGfFsZe0xeADVH8MQbxd97qQdkTcEqOR4fUy4nC7j/2fvvb52ua0zT/0tthWYTv5yOpFRzFEkJZISKYmkSDGKFJNEUsw5HJJiEk9gFtMRJTGo7auZtcbq7hlLbndbdntm9ZqLtuxOMz3dl5j1AHiADRRQ4X3rzXXxfqiIQgEo7N/37F2oeufEefSwvnVRq8Z408+8jr/Xqizj4YJqA1gIUBqaHAjuHYvg7qr72yXchGXHIsgf8XJtQ1GT/EYCUIyD6lx4nQtv1Goe37LTgeLza1p1ki47BosjMNsAU6g8AZoIUr0DFIEoTiVAhfu06mTfsvOGJ2eQuu2pOnr8uQNq575TSyFqvACqB1hwymSTc1P9RZ6f2i+3yWPHZxluOj09wgZAIgVL2Bb/Bjg/UU5R6XM7lBsCVNnHicvgpPE+5+o7XiGAG2Pilh3LWhnCunEDxnXOut6n39xDmctVJ+NOxHH4GLB/pkfXx0YDUDYOqgOoDqBGBVDyI8CIdcJHgB04YYoCESwONx5eqYYiRFiSqQanxGSZXlUK4cdsz8NR1XmcnsAMIBg8pPHqluvWx4G3fqlePvSBuujSq7J1OB4ANToDEf43XtW3xqWcxXIsLpsP9GJiTrxZB5CCuw4xPzvmV3Xg+va5VYUf3EHb9TbsW9PHYBZrqB0LSxsaEBoDRp9Q1PR6bYATYAZzcaHOAEGmTlg3JkVdYd4sPV/XZjPNhHHf+jbQ6qT9gDPyQJ0ipkyrYwhwt9/9g6KEcsO1iB/2zy2su+vq2ehxDT3e+fzDPjrc7SMDKBiwDqA6gBoFQOFTLAt4G8VOT1AGT36KghUdayQhKgCnngCqGUTFsU51QaE7Doa/OLAeeOtXir9bf/Sw2jK3VjgOn7h55KlXCttT+U3vtipwStfvONUHYw/9Px/F/lC/vAsaGkxcVKyqTJ5iZeDM3Mfi0oa+t03RtynbhBYCFRRB/aML2MKR3h/E0fXTVoM9twOoLgZqZmKgpOq0HarTgnXZzfl4J36ShTOLx/M7AWJcbFIMTfG6i2uiAiXOLezjMak0fMNu8EA02EGnvqEabDkIT0zv+MkT6vH7rg9+Lz3zY/Xr918JtvGYffv2TTlYVYHTYNtnXPpJthxbFzVsQM3Cx4gndeJNKHJUkMzYMsh2jePlBnmtwefdAVQHUAMFqCMff5L8BEfqsxzdtvTnSrp6GUy9EJyYNqnnzz79tbrkorOnFKA6cMpCU0LJNMcuqE3blvRHjxGfAzeVdvet7NLuQrj/4L7CPsYGjR64jleLyzuH2IdjeBp/5bKqH3QA1QHUQAHq449/2Tj/tt16DBSnyw6xTlsLqpP5GLB22emZxX1wuIx3wjLcAEaJSqlFbW2L37Ab/H9TVYPFtO0HOOH7gyYGalHBXQcw+o//x4HS39/+b2/r46YToDp4aqefm3o0ri/WafgMYx9iiHQM0BBjpABuUJ10TNEQ44kmyTVXtw+MFKDOu+hy9cT+10ZuYNs22NOe3yTNAwV4ml/epeCy0+AkpieQgeIy1il220mAYtyTg6hKt10vQLWkjnFv2IWDbt0Huzuuut4ef+6g2rnvNPcf+OwCFA18LkVdYl91nXbHNK8jgAVcaAjG1p+O0RNXthhbZd+Qw0eG+faaAbvmZe29fb36NE19qQOoToFqDLCTAFDucyzZjwBDcfKqUwhQafXJvR1noQkQ5eKhGsU05aCqU516H6CbG4M4aHz2ACoHTPH25nU7zHacrmsZUAVM4c0/vK2GN+Gq3H14Yw5vsOGHt+aW8Q3P+TU3wSTVn9HVVQdQCkapzV+nQHVv4Q1CrVui6oS37OLpCeZCcCpTm6g8AZzkMkHKqVA9wpPO054bzuvUGaxRDPSzA1AxIOXWu344in4YX9ONM1uXdJwVYq3wlhxS/Q/cVv+SyehBKdVnDDz5l19Sx0zmtk6B6hSoqVGgdKzT6m7F79jFsU6xy86/aecBiaAkUwITt3Edg5dWofSbeTlVKdyOPPz5WO5Up9hgjGp9NgAqB0vx9sk0aKPqO911c/3F9CvjMsRy7rjJ3D4WAAVVaxBKRJfnYOp13Fx4mNl+aW2PmlveqbYvYnoCG+8kAsVjeOpHeQoByASVm4k2Yzgy6xKaNIRRscI37LpYp7EZVKcfoGJIkuuTacCmzSBP1/1MNzyhrcYGoDqIGgzsDAIixwmgqDrNLe3UgeJ02bm37KI4p83b8SkW/hLKU8JdJwEohiesO4mdYASVSShNGprsJ1/Mdqs6dfA0NvCEwXB6AUqCUmq5g6fpApdxaM8YnrA+DuVqtwwdQHUuvMbq37gAVHJ6AvGWHV10LtXglIAm+T07QFAAO2lVKQYpN8GmhSdCE/MihHWxTu0OYG0OytMHUHHsiYSn8W2HNtu0y2sU7ezhaVpdd+xXYwVQnQo1GSrUOACUnJ7Aq06rakv0HTv9dp2e1yn8CDABJ5VqOBIKUgxL6XWjKiGmKZ1nF+vEQWdc0+kBKP/GkzdgHTyNa7+bvnLNTl8bO4DqIGr8IWrUAKXjnbLTE6wopzg1BafI9ZYGpUiRImjZlEoUIQp5YBvcfNM3UE7XPU0eQElDheVF/aFVvolVhKcJaS88K93zMqHjRbFPTvO41wFU58KbGBce4HphZbf5CLCdnmArFCf7azqvEyEnTmuBk4134rk4B8v6tWKrQnVv2E2IwbaxGZMFUN5QSWCSy/61cQNXY2/ICE5MpzBmZuzboO869/1y+u91zILIYSA7BapToFKB74v6LbvMjOJ6bqfelScDPv6NObmegilCUyr1ilPnspu0AXS8AUoaJuGi4xftbRpC04SAE4w2oUmmfRvzyQL4SXteiuUN+2hx//S1x1gqUB1EjTdEDdOFB3cdPsVSd26n0jfsRLC4hKR4Wa43AShzbOeum9SBqoNarwAAIABJREFUc1IASqtMETgdjXX9uRVpxCbEYElokssdQE2QG0/2uwkC9z772NgCVAdR4wtRwwIowNP2xQ39DTt+y47uunheJx8sXv6WnVSN3FQD0Vt3PMbBE2OjxHE8hqlXnrr4jQ6g2gSX0DBpUCqFpzavPcC8JCiVLfdp4Ca1L05WucM+Olll76+PdwDVxUCNXQwU3rBbXN2jMLcT3rADHAGcMLM4wCkJT2VzO8XKkwAhQpIEIWzDugQsOR0Bj/XHGHedDhSHMegG/Ymsg/FToLxhyqpOgfI0IX2vDJhS+7rnaYyfJ99HZ3Hc6wCqA6ixAqh4bicAFOAJsEKQkm/ZaeWpxvxOhB2dpuZ6iqAKx8W/GKK86tTNKD4Ng+d4AJQ0SDbWKaU4BeCEcyYAnlJwVHfbJNzfzJVR9tUJ6H8DaJ8OoDqAGhuAWlrbq+Od4LaTn2PBm3YAJSpDBCgf75Sf44nQo5UmQpGYMdwBVWYG8hii/PFCdRrAgzkRBnHK7nv0ACUNUgdPhcDyKetvk/+Ms7/OJjyh/TqA6gBq5ACFeDfnsuN37DBNAacosG47wAvmVGqiOkkAIoB5CMIXzUN3nTw+tcxpCrq5naZv0BwdQNEQ5d+uc7FPLlB8zOsfyhKAp67CVPe4DqLGQG30/dW89dljX6zb5qM+rtDn/P2PNUB1geTjGUjeZhC5Vp1WdoVzO4nPsch4JwM+nOk7rzpJ8NHKU6QucX9qn4QsHqeva+d4MuDUuewm/7/n4qA/aoAqjXNyLrtiuceuLWDwBgFPNKQFgzYBdTJJZWY9x6m+Bw8PATzFx07DerLNwvsfe4DqIGr8IKoNgAoCxRfWdbC4DhKn6qTddsZ1R5edUZ6MCkXXnISc1DIhSR4fQFI0IWY+DzuvEwaG5IPVbZ/0ehk+QJnBWIPTlgXlVKZEzNPE1O0wDGfZ8zeM68/iNWYJnpL9KwQnzrfWAVTnwhuuC299n1pa36vmV3bpKQpcrFNGdSI8bdKfZYG7zcRCQQlKwU5qG+BJQlO8njoH2whfzl3XwdNUw+NwAUrAUwKYHExpl92EwPksgsW037ODiRggbJ+clvt395l71uL7N+sdQHUANTSA0rFOekbxnQrzOjWDJ++yA9jUAagAmmooTRKkDGR1geITo3xUDoC5gdFvzwLUXx1Q/1H8/vYv31afffprdcnFZ9eL8QnK5gfiUpddHOs0LYaqu496fWYc6inot/45cWPCOJSxnzJU3Z/b759ZKk9MO4DqAGooAKWnJ1jdrWcUbwRPmfmdCFESkrRqxDftxDxOBCMcK1153B6n+ht22zp4cgOlG0gSg+go9/UzeCbOPeWsCzUYSVhKLdcGqELdmIG40mUXq06JsrYenN1dY3LAZhhtVei70bM/jDIM8hpV9+f25+EJEPWF5Y19avsi3Cm7FJb1z36TDorBIH/nXXS5emL/a7Wukfo+WrdtNPFRTWOggkDxVLzTDsQ6FeOdGPNkpitIzMtklSgJRRqSMkHjGrDEviI4Lavjtg4ZnAY5SHR5NzKKrQKUG4BpeGq8YbeZg7U9ZwLaz00eOwFl7aCz5luRhb7LPlzz/HHuC2X3VtjH5zGfpgGKICXTAcBUB1CjAaB+wbMuQP3fvz+ifvHxL9Xcckm8kwsWFwDlVCe47fgrAagIigqqVLQ/BicDVgSnIb5hN84DzQyWrTWASgzEjVSnCal7wFMHUFMAFbK/FfrulMBT2X1l9+XBybvwUgqUBKcmyw0hqwlAdW/jjQ9s1QGo//kP76n/8LsP1ZEjH+tYJ8woHr9lJ6coYLC4Th00+binFPRwG+KheoEmA04IFic8TdlgKAfGbrlSjeoboAoDsRmAS2OdtOo0OYoTVByCE9NO2ZmScaPQf6cAnsruqXLfsAGKsFUTpDqAGh8oaqJKVQHU//iH99T/+4d31P/5v7+vPjryCzdFwda5NbW66yT18FMvq537Ti267QJwyitPBCemgCcNUSL+ifvKUg9OVnXqIKMSMqbZWPYFUIXBuAY8yVinCep7BCem09wnZubeCv13wuGp7H5q7auGp3wMFEGo7TQCq6YA1alQ4wFcOYD6n//wvvr//v5d9d/+9m31X//tm+of/vV7GqCoPOEtp1cOf6Suuv52PZs4VSdMUeCWHUQVXXY5GHIAVcNVhzx4vJmeoIOnmTESFZDSE0AVBuMa4CRjnSrKNE5tQ2CK03Eq4yyXJW6XuuulL4skFMe6+Q77ON32hedRgGDtffXgafgABSATENULQHUQNXqISgHU//j3P9eq03/7d2+p//Jv31T/+W/eUP/+X/1cAxQ+BnzZd65Tr735sTr7gm86WHLQpOd4kopTPdedBCpCkQwol/s1OBXgaUqk9wkywuNs4OoC1P/1r15Xv/tffq4uuejsaF6sGoHiVJ0mqM2qDOE4t+moy1ZVd6PePzXwVBuO6gDVOAOUULXOu7j+W3gSvJq4m7pj2wcuCVCIdfrvf/+u+n+gOgl4IkB9+NEv1G0/fkQ998rbatfxpxfgabNTnCRA1VefJCQRouQ2LmOfdNlh4Br14Npdf7zaYM/JZ6ojH7ypfv3e8+rdI39R+fvulVdZgBLglJtRnPM6TVC/G7Vx765fjDdrs04mHZ70+NkqOBGuJg2gImVKwlJuuQOj9sGobp0SoBDr9N//zrvsqDwBnv7Tv3ldK1DvHfm80hDVMVbdMdUGvaujduoIShThFsuPPPWKWw8HbeGuy4GT/IZdS/BEI8oycr1LBwsc01S/HTwRluK0PjyNxoWXUqDEtibzUNU1+N1x7cLW6689o/78N58FLrv/8jdvaLfdf/43r2t4+k9/bQDqg49+qdUnqFCYeRxuO0xN0KbyRJWJKd/K61Sn8VJ4aPCHmVYZvaqyOIAq/KdbD560oZqgOJKq+ur2Tz6kZeHJAv64trF+VgvPYQxA/a5PA0ARqES8VKdEtQtBvUIl2uHQz55S/+I3n6r/+u/edPFOUJ0cPAGi/vp19ff/8ufqw4+O6Hmg7n14v3riuQNqZeeJYm4nuu2axzwRllJp6KozUxRUGcpu//Bga5wG6Kp2LwJUBE4Z5cnMEzP5xnac2qorS3/9qRRAxh2eBg5OBK9pAiiCFNISmOoVBrrzmkGZ/hzLym716k8fU7/5/FPlVCfrsoPbDuD0z/p3WP39v3xXAxSDxa+67nb1yuEP1clnXCAgqrd4pxQ4YVuoOmHAGcxbdt1g3t9gPsr6gyHh9SsB6kzrwtMDeARPqY8A2yBx5t+lvq67uhhEXXAOu/K0Cp5M25TnwbeWh5faf+rGFJ7G14UnwUkudxDV+Lt1bUAi4HVJfwTYzCj+8guPaIDSqtPfWJeddd0Rnv75r4sABdfdWedfpi685EplAKg95Sn8+O9gVafOEAzCEIwuzyxEbVlUmHpDx0BBaZK/BDx1qtPo2nB2n8lq6Jk8eBJq+NDgCQpUM/Vp8gCqAqbagIUuj1CVouq0bWFNmd+6eul5C1CMd7LKk1GfDivAUwxQ/nt2dNu1pzwZ1an4lt3sDqqdIavT9jAsPC6AKDFon3Lm1zRAlcKTmJqA+XWpr9v266IaGoankox3WSYLnoatONFtx7QKoIqQVf9beBJeWlp20xj0ml9CkeoAKASgXuuDqtO8/Y7dVvvNOkyKCYD6/LNPTLB4Bp5igDJB44CmfgEqPD902XEwG+Tg3eXdvkEcjzoNjY0ZTAOAilUn/scqQGw66obPEdPxaB9ftyxXl5aBYtifCQk21X12fOrP/QMj/nnJBrsP7JgygCrC02QrUBK6IpDqFRq68/apFV2Xe9XC6m41t7RTbV9Y1z+8Qcdv17343EMeoGy8E1Unmf79b00MlIemNlx2BqAITsdtjQeBcRvsu/J4wze+deEHaz+IQnU6mQqUhCeC0xbeT9wHm6wzj7K0SX6DPrasnIPeN+h7m578JweeIrAbGBzVuY5/9uu68yZbgZIQhWUBUh0MNVeijOq0V0F12rG4YcBpft1/y25+Tccu/fTZBw1AiYBxCU5cZhC5B6he3XZ1VCcMfoMewLv8e6/jNo1Tu+2Qg6ckQNFdp+GprXsqu5+2rtFmPmXlHdS+Nss/zXlVuMHGSHkqhbyhg1QOntLKEwFrugCKQGVBqoOo+hAFeFpc3aOnHNgu4AkuO37LDp9kwRt1Lzz7gAYoGTBOaEL6T/j9/rD6u4IC1QtAhaqVnqJgmxwABzVgjypfeW/dctpF0U7beHAKB0kX77R5QZ18ho2Bir5fly7XLLVXO21QD8hnqV77udfJgKfJAKccUJntGCMwBkwnQAk1qoOoaohCoLiGJ7jsFjf0hJfb5tc1OEl4AkDh5wHKB4xLgNIQ1QpAeeWJLrvQcA1rEO9nUOvODdus3/rov82LA7gfLCU8HS0ASsPWGP333m6d9tom/bdFNUD1WrZZO6/cRWXqedR1Ul7G8B+aYRzrn3sqSiYN/6EK95lz8I88xITpBSihRnUQlYeo5bW9amFlt9ph450kOG2dW9PARHAyMVCr6qfPmhiof/r9IffGHaEJyhN/oQJVJ4CcwMTUKFZpeBr1YND/9S+89Cr9ncAyY7hp+6q67pa71auvH1GH3/1E3f/oC3oy0rJzmu5b33eqevXwR/o/qtS5cv+O5d3qhz96WL36xhH19oe/US8f+lDd8MN71baFDXf+medfqq7/wd1uPZVn1bZ8Hv0Z7XCQ9gNoDE6AJ2xz0xh08JRpz/7aIwSo/p+pqn41jfuL/xCE8DEO91xVxvC5DMvf/j7/3BfhqAKeti7qMBbObTj9AGXVqA6iQojiW3Zz9i07BIlLeHLQBNVph/9t3uEB6o+/O6RhSapPhKe0C49ghFS68+R2LvtJMVMzi4/DoNBPGb72je+qN9//jTrv4m9nDJMxJj+44351xVU3qy1z62r74k4NU48+87PSc5qW64qrb1b3PvRsNk+5HwB38+33qeWNkzRcr+46SV1zw53qx/c/5c5/4dV3NXg0LYc8Pp9HbwY7PYCbgdTBE2cVF0HinIlclq1blqDTW3uE4MQ8ZL7dcp1+lu7XHkDq5DHYY0Y1p5OvAw9gVeBUDk+oJ9gtwBNt4mwAVAdRwQScnNvJqU4L3l0XuOwAThagAE6kbgaRQ4EiRAGYCFKEqFCBktBESEqlVJ2W1DSC08qukzWsHHr7V+qdj/5cQdEpG8Cu/P5tgbqzdWFDvfHeZ/qctd2naGVKng/IuvWuh9Rrb/xCvfHzT9Xj+w+oE756rrvG3Mpudcfdj6pD7/xaPfvSm+qSK67V8xx955pb9DFV+998/3O1Y2mXyw/Xhvr0mIU6+UFj7MOxP3vjiLr4sqvVgbc+Vtfe9CN9blk54zyQz/zqXnX7PY+pA2//Uv+wjP5LQzy/skfddd+TWqXb//KbavcJp6sf/ughdfE3r9Z1Mbe0W8mB9PRzv67ue/R5Pzkm37ITQeIwTl896yJdP7KOu+UYbghAvaZxft16nT6m4QmfYEkFXI+BYloFd8lyp+6l721l4IR9rMP8cXTZSXjC8uwAVOfSUzrWSc8obmKdMEUBlCcfKC5cdpHqlAIoABMACr9/tq47pnkFSrryYoCabtUJg+Jtdz+qLr/yJnXqWRepJ547GIBI1aC5ZW5NXXLF99UzP30je979j/5Ufe/6OzRwQLWCm/Dlg+/r4wHDgCa4BBfXjlc7952mnn/lbQVgQXmq9qN8jz37mrrsO9dlr7+0cYJ65fAHbv++k8/WsHbnT57QChrvsayccR5b59f1B6m/e+0P1cLqHrVjeZf6wR0PqDvueVwDFOrl6Z++ri6/+iYdw3fSaeeph596WT39wmG158Qz1YOPv6hOOPU8N1ACunA8XJNafbLw5OMfAALGiHcAVQdmegUnX8+s7y6tU984piRgfOTwVFI2ByuElkGneSiSz3vRlcfzvMuOqpMJZTGCwOwBlFWj4MKaGbee/hTLXjW/YqcnSASKB/FOFp4kNFF9QkoFSgNUpEJRfcoDVAhNyA/THDDOCaQ/jcpTbBiuuv52DTrx9tz66u5TNOgg7ujEr57nDHzueG6HcnPwrV/p47/zvVvUPZGr7pwLL9dKGBShqv3IE667Bx5/Uf3k4ecU3HdoN14L6XkXX6F+/MDTbhvyx/WhnMnj4mVZzjgPqHDX3HinPd8Ya7zsADUKhgTfWDz7gsucGoX/fL915Y3aRYryXfeDu9VFl17lPtXwjcuvUT+48wGvPkWqkyxbB1D1DTrVwHpp3Xy742R/xHJW2dHgNFooLVXFJgyeUNewTbBRGp6cN8bAE/r5bALUDLn0vOok5nbS8U5meoLAZWffsjPg5F12Ep5igMKUBX90EGVioghRRReehacdplOa+aFC1WkW4AkPJpSck047vxQq4oETAeVwhSEOKd6HdShOl199s7rz3sfVvQ/tV4iVeuXQh+rRp1/Vxz/z4pvqxFND+IIKtf/lt2vtl9eEYnXjrfeqFw+8r04542uuPDfceq9W2Hgs4rfuuvcJt79OOeM89r/0loZH6drDsnFlLirsN/3G/+f71TMvUk8+f0irThd84zvq2pvu0gC1ZX5NPf/qOwquSqhPXr6nihIa7A6gwvpguxZT1l/dtG6+3XGyrrPw1Mqkrv3U9TjFOkHVooKUS6l8pfdjPDF2z8b/RvBkxo2FGQaoGXDp6Vgnziju5nby4ITPswTB4vZzLVUA9YKdSBMKlIYlB1EH3Rt41QrUbIITBkOoPYgHitUbOVDmluGuQvB5aj9cWtfceJc64dRz1d6Tz9Jv6/3gjge1GoPjERMFCJPnAoRuv/tRva1qvzyPy2ecd6l66aB32T327M8Cheym2+4PgArnVZUzzgNxV2FdhUb6zfc/U8duWwpg6MJLr1S33PmgHkh37jtV3f3A03r5ezfeob59zS3+2Ir/2juAqmtUwzbJq1B18+uO4zNmUhr8RDpil51TnXLxWENTntIwVISpMsBaVPgwvVOdglAWeEo4zuBas6xAEaCmUI1a3tinluLpCUSsk1GdRLyTo2uoThnlyUqZ6FgxQBGkGA+VVKCSqhMgajZcdnIwhFvr7gfzb73xWIDJwtq+AHhOPv0CraDwGJkefvfXWlnhNoLa2u6TdR4SdHgMXHGIq8J61X5Mo8DzmCKAnNuhKGIZfYj7f/LIcwpTEnAdaVk5U3kgIB4uPp9HaKwxlcLi6vEOinAc4svgqsPgCWOOIPeFtb065gvl0/9BVsAT8ukAqi7IhG1SBKi6+XTH+X7OuvDKqlRMfR/mcaNIx0V56h+e0Gfjt+x8vNOKHn88jC1qyJpdF54EqCmCKPk5FjcppoSnaG4nGBN2EiNZGvdaaln7g7f7GCiCkk/Dt/L4LTzkZdx1xncMNWEWwYkDI5QRvP3G9Vx61XW3afUIrjnEEJ19wTd1gPa5F16ePBeuqa9/6xoFlQrB23gDD64uqk54+w7XBVghpgqB3diPY1GGqv2AoW9cfq0CkCFPvEGIKQww1QLO39h7qo5LQv5UjBC0jjfi5D2WlTOVx0233aevs31xl1reeaK68JIr9Zt9Z5x3iQah62+9R0FZAszhLce77uN9nemkfASSQ2mDOw+Gxxj4aoPTAVR1HZm2ZZ0yrXted5x8NorLGXiqAf/FvNqsawFOZQHtA1Wf6kKTUYsMfKbP0S677Yh1Wgm8MrRdGC88PC2ozdtXFOKGO4CSIDXhgeXucyzBjOLeZRe763RgnFacMqoTVCOhPOnl7V6B8uDkJ8+UUxswBsp0wshlV/gIcJsP93jn9eKB93QAthzgMCUB4pXkNkAIIOqlA++ptz74jX5zDBCFYwAa8fGIb0I8EFxaeLvum9+9UR1482O1YNUbxP3AlQWVCG/KIWgceQNukWfVfqhAt9z5gD4X5YFiBZchFSdAHoAJ7knmCbUpDiAvK2cqDwAkroupH5DfQ0++pE46/QKnOAEYb7nzIR2sjvu54ns/0PeI/yY56GHyT/3WY/AZoOp+0gFUdR35Pkt4QtrkvO7YdH0JSJEgMhB4km2XXy6LwSqoY7LMA1lOwxCfeZ/S7Zk6flH/swcbRXuo7aT1xJgxJIQnbMMxeIO9AygJUHZ5Et/OQ7wT37LTk2JK1Wk+ctcFLru84oRORQL3ClJRgYILj248QBWDyv3HhDt4Sg+QneFoVi+Z/8aDwXlBnXvht9QDj//UwpMZPB968mX9Xbtm1+tceE3rqzu+rWc60det0lNXPU23hYejIHapTEUq2xc8ewSVQacpEMptY1kS+2OXHWOCLTyZeKfwPNQ94QnTAHUAlQAoxBBNCkRVqU7B9AQWnNABoBqYXzVAaZCyShRASk5jQHgiQJl5oODKO6j+7rfvqA8+PKIJny47pOkHu9ve1Uu+D7jBPhqwoaYhkB39Eq7DM869RL342nsKb+HhP2K49eB2rBNzlqr/ToHKt0mqvrpt/daXAZxCf+8LnqI8CURxGj1bw1eUCDu5NIQZrzCltxu3G/Iq7kc/xZjhlKca8IR8cDy+2AF4ah2gmkLH+Rdfrp7Y/1rrsAIAauPX9H6GebwJFN+j5pcz0xOwQ8i0KTQJBUpDlF0vAJT4/p0BKQNQf/jLty1AzV6geGdI+jUk5nxnSDDYJwb4sy64TD35/EHttsTbepi6ANt4LADrqRcOOzdm03bpAKqddmxa77N5fN5lh+egWZ0koCnx/PA5Ge+0CEApKJLb0vBkxhAd7xS77LSoYGJ1Uc8yL7MMV9+S2ja/5uCpNRder+AwKICS5ekXpGRe47Ks53Za3aPmltMzihfmdmoQKC5Bict033FdAhRcdlShTEwU5oIyweQSoJo9/N2g3dVXxpjUNQKNDU66z3UAla6Xrn+2XS+Z/u6Up7rXS4BT5p+P8YYm+Q9TE4Cy919QnQhPYooCiguFeCdem9c1cVLSdQeQwq+2C28Q8DAMgCord124Kstj2Pv03E4ru/V3wPgpFjSk/xxLNLeTU51KAsWtskRAKqTbDZkzoDwFUIAmgpOZzuCgIkB1g23dwa87zvSVjDGpA08tB9h2ANX1yUGPX05llf3bgVNd5amPZ0ZedyyXCTJVqa0DB08EIQNVwRQFgCchLOCFnSJQmilQsA/wBBsrbS3WKwFqkIAwaoDCvdWCqDF4O0/HOq3tUQuAJ06KKQPFo+kJfOdgrFNDgIJ/WLyBJ1WoGKA0OFnVifCEGKgOoDrj08z4RP89Nx3MW1KdZJk7gOr6sOwP7S9HfT4Apw6eDNRUgRP2S3jy4ITtdNlxyh7AEOyjFgrsG8hFeDJ1r9+422HgiRNPI66YXp4AoAYJS6m8xwGgUuVKQtWIIQoTY+Lr82g4rTwJ1SkIFHdUTXBqFiTOTiXhKVakCFB02XECTUATf//4Vx1AtT/YTqsxi4xIT+BU19j4OvyGnUC0rJ06gPL1VVZP3b5e6inq943hidAQAkMKBiZ7WwVAlbgoC6qTgCeIAj5WKqxDQBenKyA4STuIfVCmOoAqeeOuAFIjgCgT77RbzWFup4V1N8kXQEr/pPIUwFNNcKpy3yX2e4AysU6EJqaApw6gehlQZ/EcY0T0QFYyEGYNQB8uu4Nv/1rd9uNH1Nb59WyAbgdQs9gnh3HPwuVmwckEitf5R0Cc2/SfjYk8Pg9QOQDCdqMehRNjUnnCvtyYQsVKK1UuuNxM/ox/FMx5RvX6AhQYzPCLX0qNGeS2cVWgcvfsgGpIILW0tic5txManxIiG7noshsQQOmJNB9Qn3/2iVObCE5/tODUAdQwBuBJv0Yf4BT8p957PQCg8Hvi+cNq1/HhbOlUVDqA6r1+WYddGtehAKCG8OTipXr5Z2Mi4QnKUAqgDGimIAj9DWqRtokMFBfKEwApdR62QVXS59rjYWs9pPly8BodQJUoUCmQGgZExapT7LKjlBjDE+ma+9tO0Znwe+GZIkARmmTaxUDFA2e3boypgSdnDJoM7H0oTrEhJ0AhfeXwR+riy64uKFEdQHV9Nu43va9H/T74R8AAQT5vAV1NnpepONaDC6cUQD2lIMipR/DGNIEnMakmYqU8OBmlyVzLLLtrzK2qDqAaApSEKg1TLapR7jt2K5m5ncSM4nISsEYTYiZcclWgZQLI/WziLzxzv1OgJDDFywCo9z/6pf7eGr651v26OhinPiABCsuHf/5p7T762aefqEsvPqcAXHkD2IHIbNeNAKBeVaepgKEw1igFQcVtBChzbhKeBAAF4ETlqUawOOwgwCn9Rp65NvbjOF6jA6g+AAowRUVKglUvy3JuJ/mWnXxtko3G1MiNDYPFGwIUOozpVGYyTNA3ASoGpni9U6A6o+mNpvnvu6dYJ/eferv1SYCCC++E085XUJsARnE/jtfRrzuAarctfD+ZjnwxTuLn78urT3gG/M8cw+OZHmvPdSotoWsmIcqrQCl4Ql3ipaeCy07EL+lxJ1F3yI82jnauCHBGHYSQEF+jA6g+AUrCEmBKrtdd5txOOlB8cUN/pBCznCYDxS1RoyHZ8FUKUi/7Q9XJBNDx4QZA1TU0+JSLH0TkgNItz0a9eGOhjUFiEEsNWG6bMzbt9xcAlAwi7wCq/Tqu6uMcU6Yt9fft+7+HJm4z9R3fO8918NT0mZnG4+044MYFfY8LboqCGGywDrtXpiah3mlDkaLew/yN6oTjpOpEAQNpB1A9Qk8OjppAFF12em4nvGW3uG7giW/YIZVv2dGnK962YwfoBZJy5yDP46yUiQ5ofqEC1QHU8I0NB9bJSGkkhOui6cCuB83B1XM8jUEHUOV1HRv6bt2PibIu/PPpn4EOnnpx3QmXHRS4aPyAnUqCjYOnNBABTGHTaDuR5uEpfw2IDB1AtQxQObCKt3NizPhbdk510vBUDIQzZG0nAbPuOHSGsnmbcqAUby+qTkV4QkfouwRxAAAgAElEQVR77ulOgfKDZLnRmb3jQqMxbqpTWXtIgHJvloq5zbgNLjy8hXrZ18/R/wHDeJblO+n7JBx0y2lo0vWylf3APANUkEJ4Msek6tH0kz7+4YgAIwaOSVxHncTlRn0CegqqUxDvVAQu5MNzQ3gqHovrplx2UJ1gN3E+2rcDqBEAlHbZrdrPsQiXXVm8k5YNnfKEKQo8REEtQoPGQNRkHed7tYnLfrCQRqADKA6UXSr7RWgorCGoM6gzviOKdYqNTHit9uueAEVQyqUxQA26XKPOP26Hbt2Pi6wL30YhPMHI+ueiJjzVeWZm4BjUaQxPqG/YNelG47IEm/g8A0+hyw42D20TH+uukXmTD/FpPKcDqCEClHHZ7VFQnbbbz7Hwe3ZOeUq57EjWGpo8OElAoiQpt9VZdqqTAyg/OPhBITRWHUCF9ZGrp163c1AeRdpbmaWRaAhOMAQjBife86lnXeTeLs3BE7YToKb9LbxR9L9JvCb7D0GJ/bkJPLlzZgCMCB/ZFC42wFMEN9rTIuCJM4RTFULfSeeJb9oV4SnOH+dCjIDdjNUtbEsBVwdQQwAogBPndsLnWAhPCBQvDRYPwIkTY6YBCg3cFKLQIULlqRqe0BFnEaAmcWBvWmZvCJoAooenRkbAQhPOMYan6r/zJmVqfizqqglATftbeE37zqwe758Z/48AnwMCFY9J1ZHZJ86ddYCycY8B3JS57KxLDXWbhifzLTxj60qmKZDTIEjlycVTpWcu7wBqwAAlVSdOTxBPjFmYVdyCk6ZgpzrlwUkqTQaiCFvptBfViYMAUgBUcibyKF4E/6njLbzUwNFt87A66rqQbdts2cAPDUZuAHPbBTTxHMJTqg6alaU5NCF/ed06AIUpDdCvpxWgZH10y2H/iOvD90/+ExCn+X8KkJc5v4FiO+VwxbHAjRc6ZmkpO0WBjgcu+Z4d8pH20IgFRdBCO8AmxsqTtqsl80ch/w6gBghQdeZ2SsJTQ+WpCFD5eKgsPLkAyPygwQGD80CVuTno6ugAKl+f8YA8inW2abPUGwqCUPAfYzzQl4ATrpu672bloTFqlsbXrQIozgc1rQAV10e3nu6bqJewf/rnoY7q5M/v4ImwlIIn1FMMNYV4p3is4ToVJYDRdipPRXhKXsOqTgAulItlTKUdQA0IoBgozrmdGOskA8V13BNgSf5coDgVJ6ZpNUnCE5dzQeWawBOxTuhETX4dQDWrryZ1O6xjQwMQG4TcujcUDpw4YOXSEnhK3Wtv5cqVN9yeup7cVgVQ+KdgGhUoWQfdcvWz7fuofx48OGGb6Xe5ujT7O3gikLC+uI4UtkrDk7SNdhnbUbfmeM5SztTUP8/HsQaEeLwFIgJWHO/kXHbR8ZnxrQOolgGK8U4L/BwL53aSE2Pm5ndiZ7GNaICoOUCZDob4Jg9dGp70nE7VA0Tuwef2DqD6r0PW5ShSDljNU2MwHDyV/XdWAk64buq+m5cnBKSy81PXi7dVAdS0KlBxPXTrdfpnC/BU9vxkDLaEjGlYRrA4nlveC0AUdisO4tYiA+FGH09gClPkVYSnUEUyx0Quu0B18uVhuXJpB1AtAhTgaXFtj5pbjgLFOTHm3JqeXTxQnAQ0aZ+ubkhAU2/gZKDLUDc6Ejoj/MBtDoodQKUH2DbreJB5lYFGep83Fg6eMMCnDEAP4JS713RZ6kMTz8/lH2/PARTBiem0uPDi++/W8881+5JJ/fPglady1Ql1yzySz82MAJMDEfumnXSRAaZgv1LwpO2ai3cKoYkfGEYdE54YqhLXNWxh4RoCnuLjXXkz7dMBVAsA5VUnzO20oZy7Dm/ZEZ5SE2NG8OQBCnTcL0C1D04cYDuAyg+0rKNxTDmAN0u9sdCDCwEpNaBwn0iNgak2Lqn6alZOb6B4XirPsm0pgCI0yXQaAKqsHrp94fPN/uRhyT8TTfo38mlqoKsM+CTuR53F0xQkwUa47ABG4b1KiBLB4i7eKT6ebsHVENBgZ7XIUF91kuXoAKpPgNKq0ypUp10Kb9lxaoIAnObXwjgnghNTDUtUnfoDJ9C1UZ7aVZ3koNoBVDjAyroZ12VvBIqgUdwXGwirNgGMhgBOqMNimcq3tVHvEqAkMMXLkwxQbdTTLOUR9kP5XIT9sapOkI/7ByT1DM3INg1PiF8SYwlVo5RnBvYMdZscd7Ys6Hw26c+y5IPFUfcmnCWEJ9pK3TY91n8HUD0CVKg6GZedgSfjpuPEmKlOQX+ulipbCBpHRzCdYXCqkxwgOoAaD4CSg7tsn3hZHldvWRqKCJ7EwOcMglCcsK3Jf+VxWbFer4z+uFQevWwjQMXAFK9PKkD1UiezfE6xH4Z9u7jf90m5T8JCGgQy/5j0aNTH9RqsE9YHxgmoPymXnfHGrATxUfF94XwjFnh4wjXkcei/hWv04bKTeWO5A6iGAGXAaZ9aWtuj5hkobifElKpTEpw4QZeFJu+yo/rkg74JRXVTdKS2Y51yg2cHUKMDKA5CuZRtltuf307j4NMCIHFAj4CJx/ULTih7vnzpfbzfNlJ+yiUGpnh90gCqjbqZpTyKfdA/E+jj6O+mr1enhIXY8M7aOuvU3PeCVpVg29J20nhR8nUkZxbHseZ43TYco+SbfJHdxXXRn/P51wfaDqAaAtTS2l61uLo7+ByLVp6CWKeMyy5qSCpQJt6pN9fdMMGJg2gHUKMBKA5C7adFQ0AocgaAylMGnoxRMZDDftI0bXpfTfOvOn4aFaiqe+72h89ysQ+aZyN4HpoAlDDobRjsScwDfQz1yrK7z6XYEJb4kyywaTw2lSI/Kk863WY+7MtjAVKAqkDZEqpTDFo8r5e0A6gGAMXPseBTLFCbGO9Ed112Ukx0FBvn5KGpd7UJBI0OMizFKR5kO4AKB924fgaxXhzY04pM8+NCeAoMBQZ/AUz5/7r7A6dB1FcveU6bAtVLHczyOeGzI8BJQlAHT6VwE0AIgsUFPBmwqTu/U1oFgs2T8IR1f02rbGXgCWXxx6bzb7q/A6iaAKUnxlzZpTAxJkEpVp6ScqSFJwIU1Ca/3BtEoQONCp7QCTuAGi5AhQN7W+CEfErgqRY44fzh1sUgDfw0AdQg62na8i4+Xxnjap+J+Lkx68Xn0v3zIQFsRpY5LiAFlCAtxCLJl6gqPplC+DLuOuOyQz+UwINgcu8W9FMGYRvLIY9vY7kDqAqA0m/Z6bmddrmPAGuAsu44qk9JeBKw1C80GdVptODEgbMDqOFAAx76wfzaASeUjX1iUlNZv9MAUJPaDu2Um+Nj/VS2P4y0hp4YcpLgZJ5NX255TbNvVgGK4wJSQAr+2fdgE355g3atDGaQj1edGO/k4YlwBRu71c61qD1E8+s6xgptVJZ/P/s6gCoBqKX1vWphBXM77SzM7QRg0p2CcU2kaaYWnjw49RbjZDqYJ27/wI7OeHUANZy6Dwf3NmGqGqDMf9XhcX7bcO5/0H09rt9JB6hB19f45y8hpmpZPk8ZcCJIOaVWQlMuf+Yr3N/MZwZSPFPoJ4RRgE8ZPIUuuKLyh7x0HjpQnPDkj8P1mD/hCaIGvENIoVjhmH4gqezcDqASAMWPAM/buZ22Zz7HAnecDlYjNDEtxDvRbQeXHUGKKd14XEfKH8EJD+v4GK0OoAbbFrFhb2/dA5H775j/dSf/y/bHyzKMU1/stSzyfrg8aQCVvvecYe+2m7AHM5ayzbWhz4GNACdT19V1aPI1z01Szcpdq9Xt4SSTZQDQ5j7cO+oJ943lUpddDbca2ovwhLywLOvUKVsUK+a8AqUFDhsn3OY9xnl1ACUAys3ttLpbxzohWFzOKk53HVOqUDquifDE1EEQYUimZdCE49BZRhcknh6YPTR0AOXroqquetnvB3f+N9tvKkFI/GfcEJ56uZexO6fELTrZAFVt3D1AzPKx/lmSxjg2jIQA03/r1hfzrlC0WoUlr8b4e5AAJZdTx7azjc856g3LVIUKoS1WdMAY58sblQFv0QWTYxpbKI83ylboDtQKlPYM0YYuGyVsgPXdAZQFKMAT5nZyLjsJT3KKgnhWcdshXIchDRcAiuqTaVwcL5Ums27ACZ2DHXIc0w6gBgNQ7YMTB3SkHqK04RDwZPbxWB7HdZOaflhmSAZTJ8X+X1YG7suUBf8hTwFA9VYnrJvZTf3zFRnsyMDiuOr+XqxH5u+eryhfCQCDWZawlFsuv/fG5bLAhPrCuQZs/PxOySkKMPZk6gZ1qPPY7ifHZN745p3Zb6coEOEzgCcvaBTVqtz1+t3eAdTGPqVddpgYEy47xDuVwBMbSpI14CfoOBaiQkgiOCEtLmtoGvHbdcWBmQNJmHYAFdZH3Xozx3HgLebBAbj91ECRG9iT7joJWR6ewjKz7HFavJdmdVL3/Pi6qfWSvKYAoIr1mqqDbluotvn+XO2yY/9pWoe8hlB4M5DQr9HOn5+DJrk9Dy/5fNPnYJxifwzAhl4YkdJGll0D/9wU4EkoVbgW8kFcsf5pl51x29Gm0nOjx7oh1P/MAxTndsK37DQ4ZeKdUuCUgqgwaDwGpXjduurGXHHiQ2LSZfXCMw+ozz/7RP3xd4dKf3/4y3fUBx8esVMuNB2QpvV4P+iwXtsHJglDYkAvqE5Um5jSCJiU7R0ao7hdivfD+2ovja+ZWq8oh4UnDNL8xfU+zi68dF2m6qHbFvZX36ezRtWqs/X6e7p+TV8S/6gMwXgXYUSCUm45DUPFvMqPw/2ink0auuygOsXKE+q27BrYTxGC8U7Im+dwn4Mn+8ZdrDqhTDxnGOlMA5SZ2ykR71TmshNULRuThF1UnWJoMusgZa06bcMDWTH4V+5PP9ThQNLeMR1A9VqX6XY2g68f6PtbJwwZcNL/cQtwghGR7rxwuQk4tdFv0/VRfB6q6rtGPgKcCFBIZV2PK0AV6wP3W1Un3X7UG9u3HJ76rU9eR/yzMhKAAvTkwInby8GoDnSgTj084S07H4uUgiccn81XuwARLG7igmkX2V44l/ukvaWgYeytFSIqIC1bhj7aaiYBinM7+bfsRLB4BE9sKKk26WV2GsqJ1i1HUvbxTQAm/thJYuMTD3Y0CPH28VjvB6DwuYwnnz+k1nafPGNGgG3qUw7u7aZiEBfgFIKShCgO/iY1xrqqn/l7SBv3tvYPqBwZmBongMrXa1WddPsNXPp+nTWc9m2xfmHUP7/i2evDKGfL2zhPQpNM+wMoPz4YsNFQw7ffpPJkw1oIQql7wpjk7SUhyCtIuJZ5k6/otsN1JTyhDVLXGPS2mQIo95adndtph411cm/aRfBUgKZYfeJ6EqIITUyl4jTZg1wvALW0cYL60X1PqpcPvq/OufBbHTxF6ocfhP3A33ybcCE0hCc/MFb1zbbgqCqfAZcjAVGA+88+/UTFHw+O1/v5mHCseqXaOA1PVfXR7Sc4of5MveZhAca7fp8vq1t/LeSpgQFpY9gZ5DntAJTsl4AX2kejOq05tx32oS2MGpa+L7RPCE+oYw9BOF9fQ9hWXo/ghBR56HofUX3PDEBxbifEOmlwkoHidtItTk+gUxvVz0ZLprJx7TIb1TSyoeRNtkP1+5/OuJzfFKC+ffUP1MG3fqmuufEutXV+Y4bgqQgJKYPZzjYxeNuBHANLmHdaeapnSIr3IgfUdpZThmoI17UwpT8m/OknCoD07pG/qPzdeMP3o/qlMc2ndB+G7eKPT9djql66bcXx0Ncj6jenfrQHTyYGyDxn4p+XERnzgUGbg008i35izBicYCNh93Tdl9QB+ngMTzwHdcl9octOzqVoPDkoy8DuuaT88ppTD1BSdcJ37AYBT3TRscElRKEzFB/0yd7WBKDeO/J5pSGqY6y6Y6oNeldH7dTRTTd8X1168Tn6d+vN16q3Dv/MrXM70sWVnbUBCkYDRqIMoDp46mdcDKeoyMOTgYB2xmQC2/TCk4dNDz0AJYS28KfFhTrzO9nPuhCQfLC4UanwfMB20o7qlG7ByGWHZ0WCzKiWpxqgOLfT/IqZnsDA07qe5p1TvTdWneC2SypP3lVHgGrnIe1nUBnMuU0A6oMPP1bPvfy2+uGPHlZb5tamDibTbVxUTTA4tP+TihKX613HGOsm/aN4T2mD3/Q4lKHpOfWOPxbQkvklrykAh642xEU98tQrjdqOkBSkvMfoGsly8NguULzeeBE9W8OBJ6pPeN4i9bemejEqo1/3uhr4dV/0qlMITzZ4XMNTuRpEZYkB4XGwOMZRB0+0sTZEBtv5A3yhXHXvYdDHTS1ANZrbibFPVW67BDgRpghN06g4xZDQDKCOqO2LO9U9D+1Xj+8/oJbXT6g3KE6s8Sga9/bByQzaGJTCXzU8GYPdBJwGBzjl8FCsxzrH54CpbHuQbwQ4dQGKwKWNjswDBgjrhCK5T27nfmuw4meuW8/12bDPJ+GppWDxuA38cz19AGX6q/2Uio138i67VLxTOtYJAIN6gl308GTGFA03scvOQhOuBdtKcKJ91bA6RoA6lQDl453spJiL6/6TLIQlkWoJ0jZc6bKLc/IqFBs2frimeb0pQLEurrzuNvXKoQ/VSadfMIUQJYykNYZ+gA0H+f62x9BkBqg6ebIdmqXF+3IwEBj98T2uDJ6S+6yiAfBBXFQdBaqgNhGUGtdRDhS67WG/LT5TGp5kALeLBUTfbLv+eH3/PA5a7RhW/ni+6WZzbjRhL/lmOmwfxp18uRb0Pw4FeLLn4FxCFYUIo3AVwQllyl8nD2+DPmeqAGrZzipOl10wo/jCutomO4FYLoUmS8KugQVEzSI8YSDqFaBw7pnnX6q+dsmVAxjQ2h4gm+RXhAdtmCPXQh3IKT/GD9ZeeeJAnk/532RzI1K8r0mDJ5Y3CUoZ955suyqAQv5sM16r97RJn5vlY61rVjxfBXiCSjEg5QnPEducz2FS+RojpaQuSKDvAni2BKrTqnKhLlZoAPhU3TPzMrFOfGPOgBD2wX7qOaTo2bF5m+1+yh/Udd3yD/u4qQEoPbfT6h41t1wzUBwAZQPhKgFKqlNWVkQna26QpuOcfgBquuosDRh+cPXGtb9tvYETrmmMedN+x/PaSnH9tvLqLZ8kQNEA50Bq65JKufBwL2zPdu6rafvM8vG+7tkG2q0zNOXJ1H3h2vL6EwhOAA/0ZQ1P1t5pl10sNNSIdwJYhaqTgScNXLHLTsKTiHWiODFuLrsY0KYCoAozile47EjTCGo2Pz+TahlMgZYZ/DZdINBsQO4ACvWVNuR+YE0N9L1s6w2eTPmatWu+T6fvNVcH47Q9CU4EJgKUTLnPQlIOoHCPaOv+77WtNpqFfFLPj40/IrS4uEC0zaDqRJZDxD+xDBOWAlJQV4AW2j/aSKbYjv3o7zFEyHU8E4Anqkiwl8gbx+A63AeFS18PAGXzDs8pv4685iiXJxag6K5bxEeA7Vt2tVx2nerU98DSARQG5oTxlIa41WUMPnLQLlnW5WrLcCTuMXXfY7StFJgkHMXLmfoNAMpCUzvgNEgD31b7j0s+ph+mnoHAjRTAUx/1C+9C7pdz39l4q1Ea8+bXXtDjyqZtcNkZkIlVJx3M7eZ3Ko81KsKTGSdRLoyXjHciKBHWuI4UgIV8mt9LedkGld9EApR2163tUQuru5WZGNMGiyPOScc6ZeKdqt6yS7rqTKMO7r+ZcRmk6pejA6gILGzAcGqA729bA3Byakj9dizv09E9NoYkM3gmQbNxXvXK0jM8EaYSEFUAKEJU3/fQVjtNez6m7VPPEV1CTKFw4Djdr3MA1O/2KQIovPgAYCHI5OAJx1QBiAEkqzzZ77yiLQw8eUWKsKSvOQFv2VXd98QBlJnbaa/agUkxkxNjriWDxdlJ6qSGhDtwyhnY2QWotCFPDe7D3mZApQ1jmr7HchCSsCSXe8mr2Tl9QxPhSaYCpAKA4nZxbHm9pO6ljTYqyaNfQBiX87X7rRgs7p8r4TqLladB3gMBWvcF45YiwAVq2Ji78dBvYeeoMOl4YMY7aS+NUaRgA0ohAu4/O0WBCW+himRgli47ghNSqF1yHcdUXmdM63OiAMpNjGk/xwL/LL5jl/uWHf23fO2yCp5MjJOZ+yIHD932/t7Cm+z6SxnEcAZkP8CXuNloiFtI2wOnXsEnNuaZOupbsUnn2xNANaj3KoDC9etDVIlraJBGf9LyroQnPFseoIzyNAT1SRt6+Vz7MjiIGlND7yDIxjsBYrR9BCwRnOyLVbCTABz0a3de4r4Y00TXXBjvlHDZ2YDxIjyVX6esDKPeNzEAJed2wozi+KHh0dhIt82vhx3BdooqaNL7uzfrGsVFzZYCVWIgGxjitsHKTM4Yw0s/6yX3mYSE1LWa5tH78bXBqc82SgIU86ytRNm6mjSQGUV5A4VHwopcNsqPBCc8X/qfM1tmqBqD+AEq/LMcKVAJyBi1gZfXJ/DQZgbgJOwlAAf3KM8Nl23sFCfHtC47AhfawUCSV5pwTfPJs3hW8dHELoX303sZJgKgltb2qoWV3QrfstOB4uJDwFSXUp2B+3IQxQalhDjZ6kjKoA1m2yAB6qLLrla3/fjR2kD3ze/eoH72+pHax9dt443jT1WvHv4oqy5s7DP7MdDsWN6tP1Xz6htH1Nsf/ka9fOhDdcMP71XbFjbcYIv5r67/wd1u3Q/CckAuX2YeRvFos22LILO8fnzwDcO3PviNevalN9UF3/huSV0zH1+2s86/TN1wy93ZejT3wvOW1OLaPl1/2I4yvHL4A30ullGv2J6CpwV7XmEfYcemrMO69V8KUMhTlCe+F7Nu62IUMDJm1ywDGvNc1lFz8/BUln8b+1DGsN8IgBp7eDKKkBEbjOoUz4sIOwkVqQou0K9NfYZzNRHQPDzZCaeTb9lVuAbHvD5ZR2MNUMHnWABNFpykyw7KExosoOoaweI4B51Av20xsNddvSGpa7gn4bhBARQm2Hzz/d+o8y/+TomR9nV61vmXqoNv/VLd98jz5ceznatS0Q++ffUP1L0PPZs0/BhEr7j6Zr0fy/c/+oK6+fb71PLGSbofru46SV1zw53qx/c/5QbcF159V51y5oVuPRyIy8GJx77ws3f1vES6j1Tdi9wv7qtu/zr7a9/Un9/h8dsWN9QJp56n6/qcC7+VqG+rAETXMmW+MFmPaeDwMHX2BZepnzz8nD4X5UF7SGDJLkfQxPpD2rQdKgHKQlT6Xsz40obxnuY8TB+r8wzk4IkGfTCqE+se5ZR9iQoYjem4pigz7F0MTw6grL3EfVbdA+pAu+y06uTjndD/MWGmtsXWo6OFi0K8U5W61bsaVFX2QewfS4BioDhVJ/MR4A0f6xTNKo6GgprkIKoEoAw4dQHiNIy9pK0BlDXyq3tO0cbx0Nu/Uu989OdqbnVP/jVie87ek89Sj+1/Td1020/U9268wx2/vverRpESALFjaZe69UcPqdfe/IV64+efqcefO6BOPPU8d8786h51xz2PqUPv/FqrLJdc8X31yNOvqO9ee4s23vMru9Ud9zwq9l+rP+/xnWtu0QPqm+9/rnANObhCfXrsmZ/pbe8e+Qun5uAYHPuzN46oiy+7Wh1462N17U0/0sfhm4G33vWQeu0NlPNT/e3AE756biEPvmK9sL5P3XHv4+rA27/UPyzPrez297W2V/3ovifV4Xc/UftfflPtPvEMrZR941vX6LpYWNkbgNAZ512i7n/sBb3tezfcqa78/g+D/egrG3tP1fXOfgPlp1CG5d36PHnfBIwdvEfdFuYeTzz1XAdYV19/u7r6utv1ulz+3g13KHwKKAdNV11/u7rqutv1/lPO+Jra//Lb6s33P1PPvPimA1dZHtlWZcu1AMq9Aenhj/VD49ulabgx9VQHnnAMAIoplw24D6N+Udawr4y/scdzB7sIWPK/8C117Ef9oX5zgfBOXQIkOZedOQf1Arvq4cnY4lSwOOpvECAzqjzHDqCc6mTndqqCJ7ru2FjoDMlf23FOwkDToM1K+sKzD6jPP/tE/fH3h0p/f/jtO+qDj444g56rn9vueVRdfvXN6tRzLlZPPHew8viljRPUU88fUqu7T9IG/6wLLis95/7HfqoABACOrQsbCm7Clw++r89B/4Fr6vpb7lFL6yeoXcefpp5/5W0NPKeddZHaOr+q9193y91qce14tXOf34/PfGBAeOzZ19Rl37kuGly9UUB54Yri4Lvv5LM1jN35kyf0h5a5/f5Hf6q+d/0dan51r9oyt64uvPQqU85ty2p554nqlcMfurgOqLHPv/KOhpyl9X0KEHjLnQ+qO+99XB+zdX5DPf3T19UV37tZA9vJp1+goe/pF15X+04+Sz34xEvBNwnxX+UzL76udp1whoaf+x59XgGoCAJMUV+AUKwDEp9DGa79oXa9za3YMtzzuAag5Z3mvglPSE1b3KEW1vaqrfPr6qLLeI8GPu575Dl11vm47pIyy5eaZVueHED95JHn1JnnX6LrGG178ulf0+PAeRd/W7100NR93A6s97K0LkAhD3+faVgYhpGflGuY/mTqrKz+i/s8OJk6H15do319eSYBnpb11zbgpZHT+wTK045V/bFrqmlMJZDgvtGvCElYNnXhJ8bUAoZ9ww72l8cilcHlMt9pWB4rgDKB4nZuJxfvZBs/Up0ITjq1k2Oy0fhqpmlI05gcWGgIgnSGYSgHNWXb2wYoXuvqG27XoMP1VAoAevSZV52CBCUHhjF1bG4bQOrg27/SEAAV6Z6H9gtQWFLnXnS5VsKglpj9z9pBxgyg51xo9kMxwoAK190Dj7+o3U1w36Fv+YF2SZ138RXqxw887bbh/INv/UrDnDwuXgZksJznf/3b6u4HnnEAddV1t6lrb7rTraN/zy3t0koUrn/1dXcouL1kP7/8qpu1ixSDHYARChj3Q3W79a4H3TriuaAucT9TQA8UN+7ekJYAACAASURBVKxDEbrmpjuDY1BnUMQwwJ73dXPfWM79/D2aYxDPtrgGZWxJf3gasU9YRnnm1/ZmFahXXz+iFlb36joGrF72nRtcfbNe43bg9rK0LkCZoH7ep3Ezc8zp0hByTF+qB09oe98+dOGZbdg3zLr1ZRl/eEK9wDZqcHJzIwrlaW5NQ468JwNPrG+jRmGSTbrmDAwRnjxUxeIF7bCHp+lSnST4jQVA1XPZJd6y4yuYDqC8Kw+NCvJFR8oZ0mndPuhBhQD1T78/pMp+f/fbd9SHHx2pPcg9vv81dcrpF5Qef8+Dz6jzL75CHwOFAwa37H6hkkCFuesnj6t7H96vHn3mZ1rJefTpV7Xhh4vnpNPOtxBgBnWoUM+9/LY23NgPd58fxJe0CgUXkdyGZShSN956r3rxwPsKbiTuv+HWe9XlV97k1q+46mZ1171PuHUcB8UJKhwUJFfOQx9qWMT93fjDe3XcFe91/8tvObegdE298Z5Rh7Cf//kRfk4762L15POH9L0i3uz7N/9YLyO+CbFKBKbl9RNswLaPN2MecANCocN6eRmWdCD95Vfd5OAJ8IW2KNyjbosltSSCxgFW5uUAvz2nPkEZlAofoOe5V95WP/rJk+rkknZg+5SltQGqAIkhNLDdZj2tC08w7PrYTDybgSczvg+rTk0/GW94AgQBXAJ4cgBlgschLGBsKOv3qHscE8KQ+ccQdS+hCsdor08h3skcL4Fj2pbHAqCW7OdYUm/ZGekxmquC81ZYcNKNp113hqr5QE0rIFXdF+9/UOkgAGrH8i4dEG7+a8kbHwkLcjl3rzDW1950lzrxtPPUvlPOVlCI4Or61pUw7MvaHbV5x5oZrK0RhOvu9rsf1aoTYpE2bV8NBhuAEvbnBqAzzrvUuY1wzGPP/kyd+FUPYTfddn8AVDjmjnseV9feeJc64dRz1b5TzlKru0505cS9Pf7sa+qk085zsAgVKK4rY5wM9CD+Jwaoi755tY6xwnG7Tzhd3fPAM/q+oSJ991of78SAbZkfl6FiEbxQBnMNKi9h+jjuG7Fmtl7vzN7jjfoYBI0DHnE847EATbo8D+/Pqk940+/eh/YH7YHyAlwBs2ynuB24vSytA1Ch+uTrINcnZ3W76UPVb9r5+gyVXNlOyAvqCOqSfTOVtlHXyJfXzsUIjQMYoIywhT7WSSpQEp78/fC+ZIo6gwBBKGLKOtfAJGKezH4BWxAuqibgnJC37KradaQAdd5F39KGwXyOJfGW3UJCdSI8IY0ACq4J/UDVVJ3aeLhmMY9BANS5F1+h7nnoWQcIdeoVLiy4/cqOPfzur9XC6h430CKAG2/ure85RRtqxMfQwOt065J2xcGlhUGF8TNygMGbYdyPAG25D8tQvbgdgIFl9E0eZ+J1LnXr2I5yIlidZcEs+ywnzkUe+K+S94qA+MX1fe6+YuOBV/6hJHE7ygH1CeXWA+H2Ff3swf0JRQnqEI/VAeTX3ebWuR0DJ94sRKwTtqEMUIpYZpniWJQZgyu3p+/xY7W+52R9DALFr7oe113SsV3X3HinhiZuTypQW5d03BhcmqhHvAiAaSWwDJcepl/AcqodsL3qVwVQvLd0mv9HgO04C6npP7Ku6YqTqd9PgDJtI4/hchFSeY1iO3jA6qWukR/7yDjDE8oJe0h40goUYp/0z8MT6on3g5R1zXrDc0J40vnZ0BkNSRAp9GSYPmAc63jW+cP5yKsKPKZl/0gAii67c752mX5TKR0oXgJP1nXnGtVKkr08IN05zQf5QQAU3j679Nvfd4BQp10eeOwFhQDysmOff/Ud9Y3Lr9GAsO/kc/SbbVCuACV40PF23SVXXKs/C7S25xSFwG7sR6A3Bpg77jb7Ee+0uru4HzD0jcuvVWu7T9ZKFYw3pjD4wR336/Px1hpignA+By8ErUMBkgOZL+eavvbj+w/ocqCcG/tO03kA/jBA4X4xbQIUqx1Lu9XKrpPURZdepd/swzxHuA7moYKyhHNwX3gbD/d1/CnnODBCIDnePoQ7zxggY2wQQM58uB0ggbcKz73oCnvski4DIAfXWNl1orro0itdGTBPFu4bIIjyoq7L7hH7feD6kobpsy/8pgYovf38S9MK1FZ73rkmgByB+Nfd/GMThH/JleqJ/Qey7SDrP7fcAVTz8UE+j2hXX7cEoFxqjoVRxzmF2b35rTsZsG+/58Y+FgMBru9/pn/L8uWWTb+XZR9fKMA9GGAKP2Mmg8UBOL4dfD2bujFtTHCCXUV++isfcuogK1ogL217C/Bk4Gxa4KjOfQwdoPiWHVQnvG2DQZnzO/mAt4zLLlKdPPX295DnHqJue7peBwFQLx54T63tAYT4a27s/Wrw5pnch2UEkC9vnODO2Xn8aYXjEd+EWB24tKC0fOvKG9WBNz92gcpQfe5+8GmtliCO5jvfu0W9dOA9DSoYcDAtwN0P5Pfjjblb7nxAx+BA7YBidc2NdznFCUHvACZMVwD4QZ5QYrAdyxzc4Z7LlRMxSsjj4FsfW/DDgLmhg74x9QPye+jJl3S8D4EHKhigFEHoLx14X337mlusIkR35bK67cePaFXK/Nfo/1NHwDbdo5hWAnncff/TClMq0LCg3FCtbr3rAVUsw5IKy2z+Ky27R+RnAteNooU36ZZ3nqShSZaH5WKKOtQB5jaAfGXXyerhp17R7f3UC4fVzuMNqKbaAedW/coAShtr0YZsS5/O7jxQqANft4lPnvCVefcdO0CVPyen9oSBzh4EzNhg+hnz8e3gnzOzLQ9SOjwiKHt1meoY2kEdAxuYgidsww+gg7phnSANIdPCE6DJenQAXvxEGsQNvBgCGw37jGOQJ20vUo4fg7rHcc53aABF1UnO7YTXjjVAQSbkzzY8O0CQisbjf+KxUe3WPYAMqi4GAVCDKCthQhr95KDKQUUM4HLAGdRysizBf8zxwI91DzpNlvEG2oOP/zQ4/+EnX9ZzJOXykW3ij0mVaTDbki47GDf+htBefQOUjdORdTnNy+gn/nkxSpNTkgBNceyLAygBKvExYp2v2ftrWIjSb+TRmPu8cFwedMOx0vTx8Fx/nUTZRbkK9zXgfagHKEbaZWfdbNJWUiEK20PCk7l3DWDWo4Pzpeqk4Wlpp/5smvYSaYBKwdP4qnODbpeBAxTAiarT/PIu/TkW47JbV2ee9w0NUKWB4oKk6W+d5gFoEu5tEgDKG3wJHAlDbwdYP1DmBtD2tvcGTomyO9iS97isDv/8E4XA6i1za2puebd2xyGYGm/hoV7gckMs1D0PYqb18Fysx33QH1NWhnb3OUgiLMXpEOAJfaIMoMqNM+ujWJ9x/U7DuukjfEbyEzIGBi2AJwFbZfBRUK54TdS3f+UedVr2TPtn0Pf//PG2bGXlGuI+lB2AJOOdHDxRZIjeskupTggP0KqTtbFQmYzitKFd73ipCz9uwzW0m4+uO3uNoE2HWA/jcN0hANRetbhq53aKPsdyBgGqTHWyMiSlwmkYbCb9HsYdoLzB94OjHzBp2Gw6JEPMwTlbDgdDUflqb/f3irfWEDAOtyXelMOynBMKgAX3Fr47F9dV3DdpGAdX7vT9TgpAVUOUaZe4XqdpHX2D/RvKSKA4pVQnGNkInmoZQ5k3DbXOx18f9Ur3EpZ9ufwx3Kb7dOXzb+BJ3xevOcIUz6MO7rYzi2twil6mMvfNckvVCc+aAXqAkIMuKE8Ongw0OXiyAAVY06qWdd+xbmu12wjra9DlGyhAyY8AG9Up/BzLGedCgXo1aEjZqNLfigbrfuNRB+MKUDEMZI3/VKhOafBI14GHq7L98fPlj81da3DbJwGg8q6huF7G47mN27ffdd0/HIAIcKoymBaecnFOxugtqGO24FftOjNuPQ9ICO8gRGG+IrQToSmdetjw+7nNp3XKMshjcF+wj8ZjY1+y0vDEKQfCN+BYL+afH/bB8LuxeEuPChNe+NDgZD1FVJ9wTcITwAv9xoFyjfYZZJ2MOu/WAcq47PYpPbfT8i7XOAxK87FO6woAhVmlA2gSLrtOdWKnH690HAHKG3sJC7Ehs+tDBqhhqzfpupD1UlyOjanPI1OHtZWx5uePCzzBmNZy4VXWxXg9v3FbN103fUNCSQN4gsHNqVKBMa4PUFS8DDAs6hczYDukuwll9nCEsnswIgz4bcX9+pigfNVgx3L1a+RxbSpGSXiyLjXcn7yWuR88f6b/oU6kyw55EZ4MOO1Uc8v2B+VpaWcQOE54ouLY1v3JMk/a8gAAaq9agMvOSn/bF9ezHwFOAhR9uDq6f7oGnqYD1bgeP04A5Q29hIKM0a78T1Qahf6XXdwBgK3SyLZ9jKyP/HLcx4r12Xa5qvMbFkDhLcLQqBbbvAOocAwOQaQuDFnYqAQnQlOc1oMVD0DmG20aoPht1Fg5oTtQAh3LJxQymWcl+DHPOG0KXuJ4jBsu3kkHi/vpfbQqZO+rUDZbBvRv5FGIdyrA0y6FN+M1QGnbbeEJgob77AvGEf/8amBjnYkyTxoE9VPe1gDKv2W3S5MrpyaA8uRVp3CeihRAGcod7hT9sRHp1sNBM66PcQGoorEnKPiHPH7gqwxmm/sdQIlBR5ZnOMuskzCN2xTrxfpM1+Ogyz0sgHri+cNql53mINfubQEUXo9P1fkkbUO7+3pqCE+1DGwMTlyvAVDIP1KV4L5zric7CSTcYICiUqPp4KOoUmVVF3uO2y/Xa917sUyYzRvfdS28aWdFhi074LJbTt+LuwfzzTrUAz09sMlGeaLitEvpF7wsQGHaAthsfTyuxQmqE+OY6Q/FspfWb4/1MY55tgJQ5iPAezS9ylgnB09iNlQ2IlIJUGhg47Kb/IFmkgbFXso6DgBVNPYSAELD7wd9aQAGt9wqYFh3Y395+rrJtXe6PsN67K8M9fMaFkAdfPvX6pXDH+mPKuf6SDsAteQ+O5Kr/3Hejr4h62dwhgzABGNMcGJa30BLxQhl1q48q0LxI/PYhr5ceh8BjPmxIgCkCNqCfQSoHmAB96DdbYx3ktMUCA9N9h5ieLKfZYGSpENp7NxOodvOqE8xPMU2OTUGmL5Rv41K672H+hplfn0BlFedpMvOBIo7eCLJJt600wD19KuWcDvVaZwHUVm2UQNU2tgTEkJDLQf+YSy3oTqxnDqvVgAKdWLqR7Yjlrm9mIb1mBo4B7VtmAAFiMIPk4qmXHptARTqN677SVhHG7M/Vio3fRm/GJa4jpRQVcNIB+CDeCjzXTfAk4v/sUCF+tfQkyq3y0feP5at8ub2e5UqCVA4PpV/ZhvqG4oPVSdtR2k7bbkBNWiTbL66bP6Dv3RlIi8IHBqcEDCOeCeRYh+uC3EDgkZurkUzVoTjgy5P6b3G7dmsXrL3mqnHYR3fM0BBdUKsExtEu+zstO8MdGNjSNVJLp9+7tfVo0+/OpEDyyQMfoMq46gAqmjkJQAUH2g/8MeD4GDW+4WnuLztApSBKNknmtTnoGAple8oAAoQddd9T6onHrgx+L387D3qkw9eDbbxmBOOPz6a1Tnsg+G9TR5Aofy+Tw7C4EmjKpd5LbmNy9xXkkaGnK48aXsICQZGMnlZEPF1IOuDyzUAitBVYezxbAJcYDe1UkTlybnszBtwpXCw1UAj7gvgZGKfVrVLDjZaAhOXESwOO+7qRH/Prry/lkJUUP9st1yaqfuKuiqtgyGe2xig3MSYq3t0Y9BXKhUnTc+k5jgVEuSpZ1/cAdQExkY0AagPjvzSfRaEn9/o0r/o6uTI6OuA6hPTJv3ys08/UZd9Hd8VLIMmsW+CnnMaRw8ObRq5nCENt9MVl3bn8dh65cJ9ACioQAX2ycb44JiCUXYqk2hHqwj7ugFIeVWqJxVqqwl61/FOUcwwoQYwhL5WKKOEBZuPhyc/7QFe5nLTFEjVacl8pgV1g2sA4sI+nQcp9hN5vK5HB1Bsp2J6dOCmrdeOpfcu62GIy40AKuey02SPL0FrYvZvCejtAqBMnJOXBk89+6IOoCZoYKV60QSgPvzoSF8KY7lKEj7s4aDG/xAHmzqVqIYhbVI+l29rLjxhBAplzSt5cnAc1vIwFSgZAwV3HcDoH//qYOnvD3/5tj5uGgEKz5vvp20HihcNaRGQeAyUHQsngbHlfqT1DS/uC/YHNokAZeyVdFlFAdkBQBmQ0ONR4W1eo0L1Ak+4Rw13Nt6JQgRtqrGZFS67Leb6GJ8JT4Ahfa8L626SzNh1B9UJ16NdNmNtbpyoB1K4H9Muvp0AS7kf2p/7wr5Qv22b9IO2j60NUICnxbU9an5FvGVHl938um44dswUOBk5MYxz6gAq3ykJK+OYDgugzAMtjXu8bB/2woA2WGiiganrsuPxTdLhAhTqkXWbG0CHt31YABW/hTdQgJqAGCgAsu+jbRkwb0hDA1lnu5nTCWVKn9usjHDlQWnRdkoqPeIffwCIi/VKARQUmsJ40xtAob4D0LFlov2sD0/mTTuUnQCFewQcAZL0j5Nk2vmdsA0AyWuUw5N49pP/8Ju3AV29CSgiHPWS+jZv1s5tQ1JZfrUAyrxll/4cCykeDYEfG58pGygVkNYBVD2AMl8Ip4HrMU12/HrXjyFuGADlDXrufu1DnZTUpSEYzHIdNcYbo+ZlGD5AiUGyoFANd18lQAWGvnndsl3ioPGmAHXpxQ1ceGMMUHjWWCcaVpwLph/DRYWoDijlj4FRJth5gxofX7OcckLKeTM/ISCDP2nLzDWpgpn+z3GQ5fF1ZgCq0pUnFDPkBdtI0EEZcH1tN+sEudu8UBaCk4YnkSfBScc4CXBCLBSuU3TZ5cba4nZTF0YQYf8BaGhQ2rygjuavD5hKt3fNthZ1XQZA/ezDfZcClHHZ7VELK/IjwMW37Kg8oUEcRFmfKqifHS9OO4DKA0w1QBQ7dZNz4rZosj5ogKq+D/GF9REAFAat5I/utsJ/qM2M/CzDkzZOAKSqX5917I2fb5tZBCg8a7Iu+jEo4bkx5PS+bp41U860UUXe9Qwr8orBhQDFlCCDMVHWDeoK28z45PsNwIm/rBvPQimOg5igyxDBm4MnHe8UuRPj+xPxTgQoc18GCAvwZJUo3CNirVAG3kdyLHOKNO83lxqXXQGcCFBMewCpftu6bp9ofJydZgL9JAtQnNsJE2zpxog+BExaBzxRbUKq33iwU8unVCdpqDuACgHKdOhcR01tzxjypIFPnW+2yTapszwogKq+f3u/LYGKHBzrLKcHGjmQtrM86wCFep4YgEJfTD5v8fbwWa/znPV+DP5prfqZZ9/3+zbinXqHpLyxNHBk6rgMouoBFIwl6hW2CjaM0ARVJrZz2A8ooctOP5cOLOJn3QeS+zrFMb5esR2wE18b18E2XAv7cVyZUTcQ5j+a7JQnF+9kPsPiIErYbqpOLGN1303ZDd67qfMYno7aPK/0b5NJB6NG1W/vsrpsug/1BTcw+g2mgSgAlFedyud2wkcI0ejBb25NPLjVA0YHUPI/mlRHjbfFg3I/63HeZr3OoD0IgBpXeCLMYMCJBxsOQm2mvF6Q1jLQxfLF5Z2k9UqAasmNJ9uuFwUq1S/S9YxnvQpqhrUfzzqNYGjkmxoUf/yg4Mnma1/Px/iEOi8CVzODCpBw7jMBT4QopHpqHh0fBbvm1SgqN2x77DPqD+Kr1nW+ARDp59fORyWmKIAR1gKEeDNdA1esNol1XBP9iKqTBDIHTDbeidMT4D4AaTgW7Q6VDNdBXryHdJ+VYwrthTlHK226XDYIXCtNFpwAUIAn+ds837dbL2zzZu3t+2nv56HedZ9Z3NAzty+s7A4BKlCd7NwQrhNZHy0aIladTGdZ0w1UxwDzmFkHqNrQMHADyofDp2yjVNomQFXHd4mH2CpPfPDbTgNoSQATB5m2r8v8CtcvKQPLMq3ppACUbrPK59M8V+MBUCjLhMGTfQsP5eZ4hHrvx6AiL9gt2DOAjAQns4y5kcz8SBqmFswkkzpMxb7h5s5LAAvhCGDFnwM2e00DT2Y/7qvKyJv79/AkIdDA04aeqsCAkym7hqd5D4B0MRqAMhCFfKt+HKOQmnL6t+eoMDnVSYJTvCxBCtDVwLUXtrdRJqvqrI39uGcNyLqf7NTwtLi6Ry2t7Q0BCkSFVx0luaIj6M5AgLKvgUrlCZmDbtm566azClDjA07xg+MBimVMtWVbANUInoJBXxqA9pYDgAkGFWN0OMjIwaTN5eD6MwxPrp7R5lW/FmOhelGgJgugQniiMe3dyAxYdSpMX2AmieSYFEJUc2UBNotQ4wBKvK3mXvuPtvG7cUj9z87qbe0nVR9pO2lLkVKhAgRhrC1tAzE5JsqMHw068vLwZAFKxjvNr5n86UoUaR2I0s+ffcYKqhPghzFONu0JomQeJUBVBKgYomR/bN4fUm2AtkFboZ7RH8BIS2t71PLaXgXB6Qv4s31xl/5peGLlc4oCgpNWnkL1qVdw4gMwawBFKMmnMdCMcl3AVPQGXxsAla+DEFa0MW3RSErgqQYW1kG6HZAX8pB59rJcKIfNlyAxq2klPBGuWmgDtFsTgPocE2niLbxaoGv60SgVKPO8+b6ahicaJGmIxmzZBk/ThqD+jWHtwWDirTy8teZihwyApMDJgdLKLv1SFV6sctssSM3Zj/FKO0ow056cRSNGEJ4AQuh3KcPNbYAc3CvBKYAnuh6XpPLkXY+AsyB/AU9sf7ryUmOMHMs8PKGepdsuAVGx6pRat3FSMYBVrvPaIk2DFftyD/0CrkkdKG7dvJjBfXmnWlwN4UkDFKQoAhQa2zS0edNOu+sCgLIxT3Nw1/kJMdmZm6azAlBNlZZUZx7NNgIEDYCJ2eoXoBrBk1WeUqBC8JAPepNlnq/TQHECMMl7TwMU26TJNeNjgzIQnGoZ5fIysWyTnE4HQMlnZ1gxTuF1dF92kFlmUMYMlgoKlCkfniFja4zXA32cwNEotVMkUGEwsGM8MIQoCUmAJv/b7ZblMTxPQxRde7SrQnlC+UMoKbaLuU/vsgM84Q06pzoBoOgxEiE3sNsGzqI8EwCFMnBMkmMFtwGwwjo1beBcb1I9EstB/FMKoOy2o2OXnsgjC1MCnliONiEKYzIDxdEn0L502QGa/G+f+gKomQCl4UkCU6w6uenem7vrUnA12QAVDlLp/y6lEZ6OZbTjC88+qD7/7BP1T78/XPr7u9++q+KZyEMwkXWSAQI38Pv/nvFwo5P7h9xPayC3pZYLwFIApxw8RWWNrp+6Vtm2Qjk6eErGYQwToqoUqD/+1UGFH2Yir69AmX7jDX6dcaO9Y/C8sR9WGey8ERo/sMJ9YcwFKCBtBFGEAgsUaBupQhGCJBh5cJIQZZblcVjWSpRw+9GuUnnC9UIoiSHFzH2Fe5O/EPS8WrYDCpSFtG0LJt4p2dYZgJIQxb6CtJhHBE8EmQz0jA9EodzFOk5tQ19ybt2Ey07CE164+4KpeAtRCXhCo+nv5Lg4J3RYo0T0mw4GoNobfNJQVDd/aXCna9krUPUBqlyFqw9PMTjhQZcwIgeAeFn+h6XPKcBTqp0yQCWuG1+nal2Wt7BcKFOmbmbouGFBVBlAEZ4KAFXZDgSouuNGe8eZf1bMPxopY2G21YUjGqC6xw/6uMi11RSirJtGQ4J15UllBxAVg1EKouJjNEABnpZNTFQMT5Wgl4p3Em8MGpVMwJMIuYHhR5tn27oUoLwShfGrmIdpTyo+QZoBKChIw4So8n8A2H/TKe5ZunPR/jreadXHO3l4ggq1T60AoIzLzgBU4LLjFAWV7rreH3j/MeHe8+gPcgZ13ZQhnp5tLzzzgFWgDpUoUIfU3/32Ha1AmYE8d/8ZQBAKj4QdCScF+EgoUzg+AKekwcuVLd6eyEuAVK48tbYny5W43oweNwyISgGUBqffHVR/FD+tQH1W92PCpg8Nd5zCNS04UW3J/gdeBjo0NjhGLpedM7x9eLZRr1KlqQQUdx9+3iYqMLHCQyUKMJQCpXkLSfo4LtsUrjXYVthU5Isyory+HlmfPs3GOyU+y8IXvbQAYq9RlX9w7RKYCo7T9VXjbbkMRNUJKu/JjcfrUQWzaRqifB0X783PC0aAXqDLzr5p58FpnwMnwJMBKB1AFwGUneMpDBInbEj1idt6S6cToGKjO33rBKg//i4HUNheBVAZOBAQ5MDDQgMGCP7cvgzABMeVQkeT9ikvc1WZsvtLy5e55oydUxugLDiw/ZukKYDCh4UlPGG5PkDZvqUV+97GyObghWtWqU6xQYmhJ7Wf2+JjR7uOf84AJ1u0u6veRJTaiBIgAAh2WbvyYliJArUdVNnYoyQ80Z027781V4wlYn2aFP00hkGpiEjlictUtxAsngKDym2sA5lKwLTwRCgJVKcIXPQ+Qk2UZiFKxz+J+aGi87IxUNFxcfm4btKwnmWdoE30VBD2JQK0JVQnE++UUp4SAGV8vxagOAlYoDoN7sGfPoBqYown91gJUAaiJEgZeAJA/eEv31EffHgkCsg2A3xBFYpBSACCNIL6vPjY1Lo4v3Att8+2AT/PgJTLQRB5pswunwhyUuWR23LnddtL1cJGENUDSA0KoEyow+DGUQ9Zpp/ieZGGov3l0UJTbCBRvwaiAFAGovDPSu37FgABEMNkmFAj9I8AlUgDeBJB3DgP7jQAEMpWjCUKjTrGJ6miYTlWwzQ02Wto1cmqWzr/AvSE+deuB5dPvn17higZSF4KTn4yzkqAEhDHPoHycTkPUAt6nCkGihOe9rppCmL1Ca47+fuCBCg0mmn0YTzsK2q6AMoa44LhHeT2yHDXMsD9lycGKA9RHp6wrQhQmfJKuMCyuA/Ck1ZvxPasmhOdL/MKl72SCmjCQNQKPMkydstBW4b1H7ZznX2NAaohRLULUP45Q9/ykDOYsbVevFO/hpXnx0ZqVOumPFAS+AkxKAr4P1WyXQAAIABJREFUAUJqgaSAJ+PKM1MbwBYypMXBlIUqAEygRFnFSYONeNMOfboUXurGO0XwRkArjXdyMMQ2a5oW27QSngg0kUJEENLxUCXwpJUqfgbGTXNQolDxejYNwUmWP7x39BUGigeqU8FlF75xJ8GJy1/QtG3ngUKnG/SDLvOfHoDyg2V5vE8/xzU3OHWMUi/lDQDq94cUYElCFNdDgGpWfgx+leWPwavOORZwjVETEFUKvjXK0sFSdXu1VEc9gRRgqgKoUgAVu+/qu/D8sz5ogBoePMEo0RhJAzWqZZbFv7WmAQqzfwOitldAFOHJ3ZNx52HsgS2EmACQ0jBlJ5AGvGg1yEKNhqtomgIHb8w/TreYgG30CxzLH8qsBQ15DaE6OUCbW6sHh/K+Gi/7Nq0NThJoMhBFmApTrzrFEBUeZ+eckteJlvMQtaDrjG5R1CXi2uq47AhLcapjoNA5OI2BhJthLE8HQFnlggpGnJYaZj/I5kFmWMa7TlnMMQFAWXgiNMnUA1Sze6gFTzTGEqK4LZua8nfw1Kw9KkE2W9+DuU5fAFUCUQFAiaDxGKKqY6D8szQ98ARYGV+AAtihrh1AWYiCHUvGHxFqJFhwm/1WHAGHeRpvjZ+o0sOTnSCTLjvmKfJjnJVRuUYQ78QyNUoNRPUEUAAbCVEEHblNL6fhyQSWR+qTdc9VlScFUbCvmnXcjOKY26nMZWfetIuhieuAJyx/AfTbAVTvypt2+8TQxPWe4Wkwhqe+IfQGIAV2HqBkgC2VKGzDsgm2NTFQ9e5Hg1MtFUnkV/t4rzaZfw6s2660jcR1hgwJ9dtqtsvYC0zl6vbUsy7Sb5fGwBSvlwNU+OwMEqDwbOKZwa8qzsYrR1616W2bVyZShmp429L3kYaoKA4JYBODBGFHbreTTKKetXKhVSgfG8UgboAV9uO4bL72muh7UMaoOiGlYUd+Ut3iMt/mw70V8pflbX3Zt3UVtCT3E5YITxFUxWqTXI/fzAvhnTBv3g4s73OLuq61y66W6iTBSbrwuMwYKLP+BRiTDqB6BagS9anUMIeDbAgp42QQ0+V84Zn7E4bGQJM0NjA0tQBKvl3XOqiYezCGjLEodeAJ541TW3RlSbVHLwCFc1J5tQ1Q0wdP3nCVGy1veAd3XAKCtGtMxEPZD/mar2ZYiKoLT4ARO1M5FCi68bzqZL/WYacoKA1ajxQtCU+MxSEsxSmuh2sn4ax1YErVqW/LJCRJOIqW0fbJczA/VBTrhPW86lRWLu7z5WSfwz8WzmWHeb30TPJVqhMBisAk0xCe8D28DqC29w5P3ihLdSMNHSEkpY5JD+qpgX7422R5l1QaoKQaZZZrARRdcBmj1vu9+jIXDZnfl2+XcW6PrmypftEEplLn9w9QYb9iv9OKA1SHFn74hxd9lspT0j01ZMNKgzXclIazmKJuACl0vcGIAqLQ5gUFpwSo0H44txSeci5C0QZoI+TFMjGlS9BD006nQFHdwvW1wijyK9zDQPeFYBIDUQqSZD+Ij9frEUAlwWkzrxu3L7bH2+L1BV3fWtmLVCf3SRb7MWD/lp0EpYplnLu2Vy11ANU+POFByRvl3L5JMIgouylnEqDsZy6gQP2j/VUCVAdPrk5Zt13a+7MwWoAKn20DT8utQBPBy4wtfi602YWnCiNqlSMNKlaFAkxhPYCRFDwJFQuvuRfhycY7zdtPpsTGPMoT1yM84fosUxGevPuOLjtA3/BcszGEcJ0g49MYiiRESXjiMqFJxkRJBSp21+H4ckjK70d9O9VpcUN/r9DHOtm5nXqFJwFOS2t79HxRnQLVkwIVKk4cLM0AFw6k5TDVu7EYpaGNAQqTDQa/OgBVO3apaR2Z+jdtEgNyVds0vVZ3/Cj7YdW1q4AqPr8/BSrsW+x/hJ9+UzO2RPAUGetyo0OD2G/qDSkN5PDTGvcgIQpTG8RB5Zm60wYYLrsUPNlPneGDvug72fq2eeMYKIYEJ6RaFbETN3rlScCTnUMK7Z3NP4a2ga/31+YpgPKqUypQPG7fPDDJOtokA8WXw0kxoRb1pDbh48EJcIKShV8HUI0BKg9PZpALB9I8QE2u8XUAFYMT1+sAVOsuO9RnGTwZ1wePSaeT2yYxDHTrvi1zIBXXUdsA1S808fwUPGn1KQMB0qgMZrk/g9oOcMVGNrEu5lnS7jyrQmk4SdQdxgTpsnMTamKaAgtPyCdQsVLwIlx2Ep7K4p3osgNgoRyDabdEHaXKn9zWe5unASp6Sy/rsmOZSyAK84DZCVB3LAKcqqYnaABT1lUHAKPqRHjqAKoxPEHRyANU2iingMoP7vEgPu7rGDyee/p+9dmnn4SqE+EJ6UgAKoQnGh+kfOsu3z6T2x7j3l8mqXy9A1T4jJsxIlQepCFtspyDp9G576RB692olkMUrlGWN8tQncbxRwQpqBUSUlDPATxxJnKbAn4wllTVO8ZH5CXbGNcsuuzCeCe+yVcJZ0m4qa4Hea+9LZe1B+EmPEaDEwPJ+UYeU2wXy/kyMe/0PaK+6LLDNws5rxPgBsCj1SOoSHV+UqWqACcNUSu7OwXKGFca2ao0D09moAsH0rTBnkBjbd1t6Kz4VQKUhSgXAzUwdx3r0sOTBCcul7cN8+jSSYKdQZS1TYCSBrTXZfRbrZ65t1QxAaP55Q1O2tC0f3xoLMuBp+mx7d+DhBoADcZ9zsmE9pHwpN+0EwAFVQjnV9UhxkY95tgAdubLN/ecy05Mjrl9AR8cNh8bHn28U1W9y3bEsfG63xbAUwqiLECZPKqum94P+4q2Qb3Gk2Jql50EoiqAsm46BocbxWmvdtNJxYnLADVcc2ZceDSmvaZUMfAgpX75z4BIqJogI20DvAlNMm0KUDiXBm95/Xj10JMvqbU9p7ht3Nc8teC0zbRJqm3ZbkWY9WVqft3u3GmsszYAyowN/atP6K8hPOGfl3ECKGnUpCFta1nm38Kydee5sVu7+5f0m3qFeKcIntDXq+AJxxCeCMyMd3LgtOhVJ2zjFAUoU1X+47sf7c32MW2fhCdClE37ASdcD3UM1c5/ioXTEzRUnQoxTsZVl3LXmWD03VrlAjzh2iMFqNPOvlg9+vSrrb6pkjKibWxzD14OoCrnfZowo+v+65WBqw0UqL/yE2kSoE46/Xz1yqEP1ZXX3dYePNnvjHHQilO0WxGesG0A7WGhs/CdvkFcq8uz9TZsC6DiPthovTBNAZ8/AU+J+B1vxGjMhp22BU7Mp+Xy2zrTY5F1s2nVKQ4Wp8vOTo6J46vqFuNL2Mar5oPEi+KzL0J1IjxtmUO8U3X+Vdcfn/31AKoanpBPuv3RHmg3xIxJ1aknl10AT3D5peOc6K6j6gRXIeAJ8VZfAFxwIs02QKNJHpMCUFQxyiAqbaRpvAdgrFs0oC7I1ipF6KRlv1oKlASobUvqkiuuVa+9+bE68/xL+zR8rFMqgfn/9tluxbbpoz1ykNTL9hbbcCBAOGPlqwtQ/+Ffv6F+/7++py77+jkBnGN80OOf+L5ZaFjzfRXHob+irxafvQiexhKgaPAIQKmUxyBN7Zfb5LGZ5R7qwcREeZcdVCIGd9N1B2UD7VHlUjN5hfDEeBwYeKc8CXjiFAW1gtEzEJGDi9Ftl+0WTp6ZbudMe1bcL54vtFVKddIuuyo3ndwfxTilFSe8aWcUJwdPaEvbnnjJoAOoGpPblYET9xWNNA19H8Z6CAZMwlNx4E6DVFOA+uGPHlb7X35bbew7tVV4qjJOaJt0u/TYJr1AUp1zhtDOHWBVt/m+U85Sv/jwLfXpB8+rd4/8ReXvqquuCvoX+ltVn8ztN/CUet48PMFga6PeAzgMz7iGxjSvNqSOk9tqGNmG9YDxDfVPl10SnhrEO8XtjekNCvFOwm2n4cnOXK7bsgIYhtdmNeo6W1bZZmaZLrwQnnq/BuoK7daK6hRNSQBw8vBk3IAmzmm3WlwR7jrrsgM8oRzoQyhTOwDV439cp51jXXg9np8bjNreTkjKpWkjDeNdPWi3fYwDohpfny/GWKQG8OK2JgD13pHPKw1RHWPVHVNt0Ls6aqeOoETxucTyI0+/4ta53T3z9ruXsTFtMgbhXOSb/wcmAVFZg9a7oRquwS4aXm9wa95Dg4B61C9UH8ITlAz9Zlwh3qk6Hgl5xUqjU7Gk8iSWpyPeKdcuYVsCoBq3ZaY/45kA6BrVKZyeoJdAceemsxNhOliyHxaOFScd6+Rcdgj4X9f9iM938DFhbhxWOgkARTdQDp7M4Ney0tEDeBXAqXRALhusq/c1AagPPvxYq09Qofg5BW+E6gKmrV8bf1bZP/XUBcbF5wydi1Gre83EcXXUpLaO6aEPNK/XxD121w1gKQ1Q4nl3AFXunkv1WY4taLc8PGHfLAFUzkgXt5t6qY4hwhjNt+yoOhXgqc4nU8S8UmxPN0XBgoh3EqoT453M5JvVcDZciC3WafPrS1hKLfd+DYzdAE8X67TiA8UbwVPsrrOTYBKWGBxOxcm566A6CXhC32G7M+0AqkL9KgMn7isaafMf5SANWhKY6qhOFfFN5QO5GeibAdQRtW1hQ93z0LPq8f0H1PLa8YGBKq8jb6hMXdczUt4w+fNNG/UBDG2BUZN8Ophp0Ff6aNuSeg4BKupPDp6au+58H83BE6BJwhOP690gNTeOg75WbHBxPWyreV0NlqZeUvFKdP0QnrTqFClPVBRQ12XXRV4Yg2g4kepgZqtguXgnqTotesWiKv+ya4/nvrjtuN6wDTNtDTCF6uTgyUIP3G2153aK3HVGbQrjmgBL8mcUJwFO1mWHgH/Z9lzuAGogADWYwZywUQpPlf/NciDuPW0KUISyK79/m34LD2/j8V7yqTdWTeAJHTsNtn22SRPwafvYEgOfr78+77e7pu6jHqB8f3T/MNVVRKMxRsOTfY2ez0YxlQAln9WacJExTONljGl0U2nJfTL2SQBUDChYx1gQuOzm10yMEt+0s4pCAF/MW9Qf8orhCWqECToXweISnhbWtesJZQjyF/mOV1uU1HeyzGwzApNcb5qXPx51jbpFrJGHJypP/rMq/LxK2QSZzl3nFKc9ASxlwUmoTgBseE4ITHHaAVQ0uAUVJFxBNMqF1LmG5AA7OOM1anhCB+8VoHDumeddqr52yXdLAErWo53fqayNon38zx7t5AxdPzDQNgz1k18/9zG0c1HvNfo/5r5Z2WPbqMbxdfIcwDEGoF4Vfcn0Kz8O1FNFOa74fimhSC7nwInHeGMz2QY4Nrw0wExr3GcMUBZ+8NwX4p0c8EQfAyYwIY1/WxZ1X2bbMZWfeImVJwQY63inuXqTb05+G7Kd0G5c7i2FfdCq3qKZ38kDlJhVvM7kmM5lZ75XB+VJwlK4vEuDGtQu/lygeMJlxz7AtAOoyACzYpBKY+wHTL4+P4AYmxoGoBSgWnDPoRNX/foBKOSdN7Aeeljfsj3qLLPNwolNy65Zsq8f2BnEuTX6R75uS+6ztXx9++XLsayOWdqljt44QR2nX9sfRrl6vcayqgKoOn1SH2P/GaMrufiMyTinsmewN+PUr3EbzPmEpVRa7z4ZB8X6xLhBl52Ld5o30ASwgaIAVQr9091TDE52HXnJ9gWUGdVJxjsZBcqAk3XZVX1suE/QcOUex3xQdz2Ui+5WuFkBpXTfIT6Jb8rViXsyqhNnEA/dc1lwsooTrsmYNfQh2fa55Q6gOoCqBCYOTkz7AqissfbG18BTs//s2cEJXjRUeUNeYlQHAT9t5pmtw5J7Gso5vg1T9X/s3Jo6eueJ6tiFjRKIHq97SAEU+xj7XFXqoL6W244KVA6iejNQvRi14ZyTgqd4W8k9W9jBcy5VJ8CTAagQnnAMxrHCvRGitpj6JzxtsfYhPUWBd99p1clNUZDIvweoKJRxivPQ7Tfnvxkov2tnAAqTXEYuPDERpv8Eyx43/YABJvPmnoenouKkwYlzO0Vv2VU92x1AlQJUqDZx4JSpMRTScAzWAEy8ApU05L7+TN32Ck8y/qmPdmgTdgaRV7IO+7jf1vLz7eifC5RrWR2zvHvMVadU2YsKFJ/9qoGV++vDE4GpAyj/CjxBqgSgrJuNqpMLFI+DxWvCDeAKbYb2A2whBYhp5UnEOEnXnYMn+329WQKfvu/VKlZ4rtCGUAgxw/f8SjxlgZkpPIh9SgSJE5TM+ciDAGXByc7nRHedU50wt1MNlx2fa6YdQLUKUKMzYhqsarjfqCL1k/aqQIVqUNFg4SGK51dhRy1NtXtEwJOdVye8Xo22GQTsDCrP1qCnRr3UvlaxTY+dW9WqE9x2jduj9nV7uYdiWT30+X1SgSI80cCW9sn4ZYbWnk0bqzM1agQhqW4awhTaLAVPdLURbtB2cBOVGXz0Tzn+AKDK5neC2864BFfVJvyTMDVtUl5PwX1W1GlwbFw/9ly+4Yh2RJ262Cc7bQFimGIViq46k8oYJwNKJg+/jHUqTYQnziiOPoJrVz3Pqf0dQE0BQDlVqrVBmv8Np9NeAKpoPL2RwuCj4amkLVKdV29z8CQAyrpKitesMLSDgp1B5TtQwKioK3dt344xgOhYp10nqeN0TAiPQ75Yrpt/28exHPVSAlQjeBIvn+h7bfm5LDVKsZEa+/W64BQfZ6YV0PA0Zz7HguBuBzwi3gltV/UmHNopgCfOKo439hLKE+EJ10dfnq42aQBQ/fQvAJSd4wxtBBgF3BCgoCZx6gEJUB6eTJA4joPihPP0uTblOsEJwOSWEewPAO5BdZK2qAOoEqPtB828K88bjbYH+nr5DVN5omrVFKDSxtIYMNax7JR1l417pBjs37OBHhToDDLf2iBi/gM/etO8Ouq4Heorx25TXzpqi/rilzepP/vycerPvnSc+tMvHav+5IvHqD/5s6PVn/zZMepPv3iM3ob9Xzpqs/rKMdvUUcdtV0cdu019+Zit5nf0FvWlo7eoLyM9Cr/NevnLx25XXzpuu17HNr1PH4fztqmjjt2uy3H0pjl1zOYFrQ74Z6k/wNq0bUnhZ/pdPVAKr+3POfXsi/QHz00/rXYt02WH49kP+dy0lVbBwOQZ8xiOytcZcKzhycY66XgnMas4jDH2ox3K6ovqhxxzarvscvFU/UDFrJxr4Qltg+dUx5hFb98ZgIohyqpR9s06QlIqRRyVVpn4/Tod5yQDxddM3JzoQ8ZtCzWq3q8DqAkGqFHAE4xAWwDVHjzF6lOPBniQoDOovB0oGGDQ4ID/6jAh4WbA0nb15aM2qy9qSDpWQxEA6U/tj8t/9sVj1Be/dKz60pePU1/+yiZ19NFb1DHHbFXHHrtNHXfcdrVt26KaX1xXi8s71fzShppbWNO/7fOrauuOZbVl+5LavG1Rbdq6oDZtW1THbZlXx2zaYWAL4KQharP64lc2BT8Nb18+TpfvS18x8HX0cTvUcfj+FeIi4NaFa0X8tiBgOPptxSCc+eFYnG+gimBTnrJveoBqCk+mPdqCpjCfISkEQzPm5cAkY6KOw6vuen6nVR2zAtjR8MQ4Jas8EZ5QbzmgxL7YHUsFS8Y4cRmKhXYJ6ikKVrL55q7XbRfuZwtQ+CcDbYV6Rz1TgWIM1IL7xIqfkoDTEszpmcK98kSI8rOHRwC1aL5jB6WS8I1l810748LrAKoEiOR/GXWWOYiWpf4/V/7HO/h0VODEQbwNgGKd1mmH+Jis8uT+658BgLLgtAn/wW2eV8dt2qGOOXabOuroLeorFlgctFhAwfrRx2zVx27ePKe2bNqhtm7aobZvmVdz2xazv5XlnWp9Y59a33m8/m3sPF6Z3wlqY6f/re86QemfPY7Hx+nK+l61hODOpQ21Y35VbduxrDZtmdewZdSqzRq4oGoddcw2dezmObVpy0IWkGJw2rZtSaV+OA4wVQVS7JtICVBxH4zXeY6ZPmNQ8GSmOihTVCbTSMcABUCMty1oNQkGDmoFwUnCk45Hsi4ZtAfHq1TsE1SPwGWHeKeqWcWt4cWYP5n1PELwFooT+i/h1YEM6x5uNvyTtszg7+JUBBqc9HEhPHE7gtDND29J+mXGwwGY2FeaAlOsTHUKVAlwcVAsS/18Q4MHJzz0o4YndPz2AMq43/RAZt98iQ1TYT2IeQrdd74tphCg7AzzcHfB7aVdYMdsdcAEcNK/Y7ZqkDpu85wGEyhFyyu71MauE8zPwo+EmrX1vWplZZdagsI0v6rmdyxrmJrfvqSwD8dqYGIeyfREf43E/vWdJ1gAY2pgTJYDy6vrexVULShYR8FNaN2DgD+A4bGb5hSgsUyRIlClIArbCFKxiy/1nFd9rzNw2YmXF7zxTscRNttvwEmDAAzR0JShYV2rCEshQIXxTjE8wRgaJQEuuxXnOtXjpY0/c9CJT7KUxDtRbZIpDC8UEhhb5Dl99T+kdrYQhb6PcZ3wpCFYxJo5FSqKZQJUMYaJkKW3cbuLVSM0GXcd2lIDk4iVw7VjGOplvQOoVgBqOPBkBvw2BuT+8ugPoIzrRBqelOGiykS44nox9fFpUwVQAKYti+qoTYxX2qzg4tIxRjbOCEBxzHHb1dbtS9qdtmSVIq8QUSmqn2qggdq0sc+qTMeXgpEBswieNCzFoBSvpwFqbeN4tbaxT/9W1/ephaWd2jWIe3X3/pVN6qijt6pjN89rY+hVYO+Wg8qEHxQnAFMKprCdalSqD2KQLwMo2YepPDUDo6rnMAKnqYQnGu80RAXGds646whQdLcRbtCGsv71eBkF8OMY+U8Z8gIg5QLFqVrgnJSS1cEU2y+Rsr9acGK8k4QntB2Vv+0Ldl4tG7MEWOIPEGTayG/zipOfj8uDr4EnBooT0pD2Akq5czqA6hOg8ECmBvBm2+oBmBwcRrncDkB58EkZr+K2/7+9c2mObEnyen+Q6b63blXpkZlSZuqVUupRkkpVt+Y2w/Q0YGBjzBeCwTDrLdYsZjUYi8GGBbBij7GBJQv2zJcI7O8e/wiPOBHnkZmSUiot0uI845wTL/+lu4cH/ZyodeJ+zCct835lykEWvhXP+vMaJjh5702OxbFbHLqNIze0MZPpiWiWYP4CKN1S20Mt0aZS5ltLYbqrnfPHoXWCiU+1T/0AKtFIGZjC8dPFjYNmbWfvUHy16K8lWikxadb7IjRWJZDCsamfBWrbHIVsDaB4bYR2bW+b65fGXEcB9Oo0T1boNgEKfRP+TlZTEeBpEc0wqCvUBwEHKesBeWAbYwPrlGlDcAcNBoS1Ri3Hs5G3gBKB4FXXg62TNbfZbn2q9RlNsCk8NaO7E5rE9wx1Y4BKNFGmviI40Wyn/mp8Bup6U1onC1NvAPUSACr7F8XB4bnS1QAqE24Azxw+832uM+gXbaXQKqWNvDLnagGl0jEZXDcDT0Pqg+8DYMKstPe7B+7dh5H78f1IUmxjhtwEPkqnV255dRc1QpuCJJOPBZcqGFlouh8KUNF/yj6r1/anr+7GwBTMfPCbglmPzu+7uwducnDc6uME0w00UiVtFJzgtV3RWVxV/P/4n/6VzMKLg2YK7grt2n6G1H/92qh1Cia770JwW4DyJruCv5NoEqC1gPP46bX4MUkMpqyMUL7sY6hXmN8gQJnWtE4itP1CwLgeeQR4IhC8AVS3GZNl5VP0E5Z9gGCEnfC+T4QkSeWYAlCoJwNPBKsUmqIWSrROfjJB1CBuxmQXxwHN7w2gXgBA1QfbLhPA45xfHaDioJZqizK4IjhlaQmceGxtgAJcraGF6lNHGIxxHaHp3cex++Gnffn9+H7fvd85cCOY5E6W7vLa+B4Z0FnHPMd726ClCk+Jtikz2eEcncn9dvR5Kpvq2t6h9ZyBKVx3trgR3y/MKgRMAaTgIK+aJZjomm3LaqOODVDJjD8ZD+JgawHKmuzQ7h4TnsRnxwqhVy+0CVCYfem1TpmzuIUnaoZQB0Uzmp8ejzoTcAI8+fworEsCOApcmOwyfyfUx6uvhzW/kWVk2i76CrR+LP9Qjx6eFIjikjsCTQQgapn8UittdSf5LNTfiXngmTn0bHL/DaCeHaAsVMTt0dWDmxylNv0+QvoprlkNoOK36T9DCqDhKaHJpilA5c/qsb8CPPUpa4Wmc7c7US0TQOmHn/bkB2BCmAFoP84v7xxmp13B/wez2BJgSR3ACUKS3vXzb2qFEs6uKz7TwxFn2AVAagcjmu4ErEr5+mN93gvap3CdByg5FnylHtzpyVLCLgCiAFMAqUNo74458y5tZ2g7NOkBonDdMY7JZIY46BKgLDzFtqbtqk876L6mYLKjEPpOhDbKKBe01FZQ6CLFNai/oB0KM/ai8EdeuAbCkpoPaDsSaPJCWQV4dDQ+PLlsjR3VH6IAhfGdXvV2AZzU56kCT2aBZ8IOU9STaKYIT97/qQ2e5BzvowaxZyyndYDqDaC2EaDwzwcLr958Dbb87gH4cbRNpec+DUBBOKVCj/sWnLjNcwpnPYBpTY0TtFWlssExGdjn527v4MS93z0UWPrNT3sO8PRxb+omszO3WHpgunkITtMCCS2wUdYO1QEqQEdHWAFc9+num/t0HzVLMRyBD01w9837MhmYuVWH7+X1Zw1LgOnHGPQQGwpxoRATanYmfkswRcJ/CSEJsI0YUXrsTGbc4drZ0bncu1jeusvrz2K2U1BSE15zW53d6XR+vrh2J0fnbjKeS0wrgBRiWwGkEMdKQxhEnznEmcJ7KjwxXbq50ULRByq0M6t58m2o1A7a2kfz+mi2+140T9JPpA8pYKD/EnQsNHFbTHaAJx/lHffHmXoppOCcwlNc0w7C2cKT9aGB8EX+0Fbgvs2BzncAUBVwEnjycbaoeWIdIiUkCSh58JFj3jwLh3L9UTOlTuSoK1uPAr9G64Q8HlvrZIHrDaCeFaCagj4ZXE8utxKi+gDUP/zvv3H/53/8B/d3/+nvgy9CCjclOGqWRwSj0vUD4Hh6AAAgAElEQVT2WOnelmMraJxo4kvqyIMUvg3HEYEbpjkAE8xz8G1CYEgIZdEyXT/IVH0K/RBfaTA41bVSQ8CpCE9eA6Zxnb655c2DzIZDSASN2bQIQTL3EErB/7C9N545TecS1wmzBAWWJJaTwhJASmDKgxSuGSGGVfaDORNgdbK4dheX96qF8r5QUm4yWzDO2kOZXkCrcHTujucL0UgBoKCV2tmdSFDQ+Xzh5tBMmNlY2LcQdSQ+Myp8/+yf/EsTiZztTdtVqR0MO9aidXql2ieUj8CND1tC0BEhWzDZUfOkcJM6i5dAB/0Q2kI6iuM+C08CTlbzZLQV8sdnIxojmiOZpoBXeu8XfYxt1aTw38PYXdIoBngSWFJtE+FK6ttokkQrlWmgqImi1omaK9z7lPAEkHoDqC0CqOLgC4i6/CwzTIrnWzQhj3V9F0ABnoYDVA12KLS60tr9leMrAlSzTM9lSRLVNO27d1gCZfdQjmFQgOCHPxOm5EPAq+D3GpU201kfoCr4RlXhyZrB8Fy/T80TTIchuOXiWsAFAMNgnDbFbECFJF2SZQQQmp5J9HMdOFVIQjjS3IVt/UG4qT8KygeD36ksIHrrjjEAwpkb8OOjmBPKNKjmXLRImIGIMiWE5iniXjEw6Gx66vYRBR3L0exMxLQ3Hs/dbHaWaJqaEIVAizGQpnyLaETb4akNskttp6FxMkJIzm1EoG+BAPcCFeUooUkkmjjXsFOHcGqbJDUhC6CZkrYjLg31b6HAzuEpaC0ATgV4wvWom81ADKHJpvV33swznyn/vK2a/QZAmfpM6tlHkleAZlT5inN5DlI+/ATGEORpNUNPsY13fgSAiv4DXR9B/4Ku657rvA74HPjraX8tSQ4B7YMxB9zx2Y2HqLrZiNc+RdoGUP/wv/7Gya+3BqoCOMmMubzcSvt98jHXrABQKFtq0UbTM/dxNJNZcz99nLid0VxMCoiSrCaoHJpiJG9CTtkk1z27LfGB8hDFPJNU/IU8tHlYA2xgORZok2C+ghkNkAJAYRRwCRPAAJbQLk2OHSAJ3wyziZZBqQ5iH2nrE337FQQtlnSRJWmw/h7fyaeALJgLae6zIHV5de9OER8LZkEsLYP7sUzN7oEA1d7eodvbn0pUdkyVxxgDiDqCSc87lsNHCosJ//Uf/n10GPeaxryfCTgZs3B+Pt1vMdkZIfSihasBP3y71jk0SKpFArQE841ZiywXrrgO96I9VcsDwTGNRlHybsR3ikEV1eyjQhfvU83XfEP7NRaWatvPBDm9v2HA+9k2WtgGPNk/UuhbCkgIYaCwjH3+UF9y3mukqFGSNIcm7BOc/DbufWpGwDPRfn+FBx+f38nvqV9i+wFKO2/XgN8mLNrP9Z/+PD6/dfilA/HzANXmACoCCcGknJaFdbNs++a32ow7DAow0f20M5EZc9jGwIoBAFoUCHJMsYcgD5omDy4WbFYGJ2qljObJ5ptv411k7brzG/EvgpksBKO0wMQFgMdHbvd46fZPr6SdafnWyrRcJ0lfqfiwId/kuqCdajt+KTPqwvp+2fsDprBWH8v/+uaLsxAFkII2CuAEiAJQWahCLCkAm0CUmZn3uwBQWg6l/pe0WQ/mpev0WA+zHYTSYwi+Z8gTZaN1TRDSfdE+egFozTcAKNkXoejH3xZ4Qpkif/RBEcSQZ352V6J58r4zEt/J+Dvh/vU1fTVossdfSZ0WgMlqUQlP0tZ93WvdRGd+aBRxjGMA9rXejeaJdUhYsvv+mPg7bcBRXHzvONmgR4p3JcS9AVRrBcRKZmWXUjFTBOfSsmBJhX19MNZBtgxGMOXBubztmqc41wZQ/6+XBgplVBPMpeO8vq1sS/d1HOujhTrSsAMf92fuAxa7FWiCFmYpJieY6ILQJjgZaGpoiwhBq6Yt8IT3WJzfuOPTS9EsBd8kvz6erJGHbfgaHZzIkjCiUYIZ+HjpRjdf3OTsumfdtNVFPMf+krZ/Pc9zq6ZYMBn+Zbv7Jkr5aCYmQEQwB8heXn0OmihAFHyjYNIDRMHZHNqpQ5gqYeITfzWNJcVYUQpQf9QyyczlxTacXZP2xx7w9AyQ8xiwBkGKEBKhbgHTmGUHSDUCCIII+/YnGgWvqUK7qb0f8kP+AZ68vxPyVEfjqHWivwyeA4Gp9WI0gSuXu4Wkru0XDFGE+haASuDJ94NQ//5Pko4DuiQZzlU1TxkwRb8pXbaHWqccfkpKoPyalff9oschYvr57ZsGqlTg8dhjAJQX6q0DbRmg0OllZl62ZEE6SNfv3dR1nQDVyweqA24CYEHY4toolMvbffMz17UAlJT14alA087oSP6l4j1g7jm7wCyxBwctR0nb1IAmQs+q0MT7Sua6T1/EHCfrxmG9OO/ETYds+DGND0/VR0lMkCxPXw5oh2d+xqfx8SnCQVInXfURz9tBFH827P5mti/F/wqmRjFD7h26j1juZXwkZaOaKF3fjya9kYcowBSg6gTfBg2dX3gZizPPj87d737/l+6v//BHWXtPyoRtJpSFaU/+WLmffU/wRK2T1jXLDX0HJm4CDtJc+wThBshCu8B9VXgSOIvO4gHKvHbCztQCPIm2Ip9ll8PAYIjqAqb8/AsGKJRNXl5+P4IT2niUP4Sl0liC+p15vyi0AdQP2kP+IzgFwEbw1OC3rKY7aTNeqxXPqVk+ynKvAeuhYSoCljfZBa0mNJoXbwDVYTsdCFCtWigdaG0DW2kbGpFnDm/QBlD0f0qcyEVwNwVNqWOVj0VhXIYnHWyL91Lgld7BnvPnUSc7iAy+cyBLqmAfz0THvriK2qYwC8xrm6rQBOghAK2TEp6sX9OnL255dS+z1wgOAKdiOVQE/hhazYu7QffEOtCyifvt9VSHJRWE6h+DPtfW7/R8faC8FFiEVgoQhR8c4KezhTs+Og/aKOsXBbPefHqqs/fEX+pYQGp3b+r+7M//ufs3f/ijwBQCcLaVbbk/Gy1HRQDVIOElHkf52HrW/oM/HrqEBwSi+CBJ6IBU+yR12gFPotkyWifcE4RvNsU91zrh3R6nTHNQatt/gRBVa7fe1ykClMJTWx/R9mF9nlpCGhjABmwpKEVoTseAruOrA1SAc7YvPxkBMzrfTHitJjxd3dsOCKXtYMKrApQfeA2dlwfbSO+t5585vEErQHntUwJQHYKnq8P1FdDFfAqQlFznwQmmLDiCM9AlUjhOn2LGFwJc3jT9mlqhaVNaJ0CXcQCnozRmzB3Mztx7TNOH1gQal4Njjabeo7zFZIdgrViuwpdBUi7VPAhJhAnu90ub/ccCUd0ZNP7LrF+T/NuEH9dsIQ7yWBLno9csjcZzdzRbuBNxML9w08MTMd/BhIdtgBV+x/NzNxrN3M+//N79q3/779x8fi6BN3XxYX577Ncow3Kf7QCowVqP7RTAEKLop6F+fRBg7IuZ5lR9m0TD4DVCQavgg2NCIOJ6lGMJdHAc5yk40SaYn9U4KaCpNgPPwPW1PEvPGX6sDZhK57azDhvfDXAaqHnqGkNQF9ZsRw1TIzWz89Rcp+ME/lyx/pHyT5c9Vt8eDlGEp9i+dCYn4OkNoDrgSQdk7dRhYCiYIBKASiAqDrTlwbU26HYfx8y88fK+Mmh337/O+9QAys7Aw3Z7HKhYNu2drp9gVsiq5NkCUQCnj/vTGOzyw0j8ajiTTk10JlilAE1lphyhiek6GifeC3gyEbeXV58lGCUA7937fYcFh7GWnggwfmcVftR5XmZ1Ip/eJrtKuQazKs/3r6tmf+LA2A+QLCzl2xCs/OEcngVfKUDUBwDnzkT8oOBUfopFhmdnbtc7lyPEQYCoo3P357/7FwJQMO0d+iViGu21CE8RnFA3RfPHq4GnVOuEvojxBYKMwpKCyGqFcIzCkcKwBjoocys8bX5RuGmQRUAVzELIG/c0wOBRyr0ESm3Hthiiau3VHI9ap2i2a/SLZBxS8IUJF3V35NfBawUnb5YjJDVTAnsEKV4DM3AJpDgudKY02S1M4E6jeXoDqF7wpIN5c7BnxcU0gahMMK0DK233AqDGZ0/vVF4FKKN9AkD93//5t+4//93ftpo9ujpdf+0ThDcFeZYSLJiKKn8h/k1cVgWL92ImF0xi1DYlGiYCTZ8UANXnuo5rMKsOjuGI9A2gO5gv3G/e7bpf/7gjwAd4QmgB+W5+G9JaOeC7L+7UZNdxXVse8RyBCc/kdv809qs4AAJ4Oge3Fa9B3vCTEpD6OJYAmwhlAICCVgqmPIDSeDQLEPUXv/9LMeFBG4WgnOOJOpmHMuiAp9cMTgATOnKzLlEuGLNQhxSWIjC9fwsEpkxl987cFHK4vw5PMXYUrgccCYhZk4rfTuCpxQF981DVBku1c1sIUQaSSm23BE6ot9AfimOPRplne6DPU4AnwJSZSIC2Q6Bmu9K0psyI4wcBCqlAVAOkuscXtM9Us+njh70B1Gr/brVSIiyllarHA0AZeGqDn02dU6dyVVFvKs+ufABQ/+W//jf3H//+v3f+6pHIuzvdcKFcyZNwYcCJpjqA0/ToXAJeirZpk9qjDkCqQRYigF/dfhVowsCCwQmhEwBO+AGi4KeFehLzW54WBjGY7ODvNDm57BjsKmW4AiD1qb+0L/lBb0VAagOvOCDrICwaKR+lHGAEQGKYA5mN5yHq9x6g4D81mRwJRO2PZuJU3uwnHVonmkM2qQGxAm+T+fbIC+3S1p+0RyzJAi2DCZwowOOjSzMOEMFJ62VZDCUAYY38qU1A/ULoIhRBdObVmXZWs4Xr8C6bh6Qu4KmBUtvxrjyf+LxtT9l2hCdj4SiMNQGmvMkV9ZG2B51JJ1oohq1oaCPb5a1td7pdhigBqeB0Dq1UO0BRsxm0mh6a4DBOrRNSDcj65gPV4URO4KqRb6zkKCyiAGoOsKbhFf+5rnAeTuWffpYB40meV3lvBBz813/4Y2+BHjpZsQP212LEcsc9sezzbXR++DjB7CXmL69xYkRraHtE47Qi9NRgaMhxAae7n93x9YN8C+pzb3IctE6AJ4AUjhfBicdtOaC+MMvu6kHvsec2tr1qfel9cTCMg2DXQNcGS/Yc8snhKT5v6UaYuQf/qJ2JRCqHCQ/mPEIUAUr8oo7OZXkYOTeeu8OkLzThCW0u+RffA0p6C32fdxRqTytokxAFXnuEcrUmOwgjCiRqnqzJTuqloiVCG7fCD/epVsDCU1wfTfPXupZy32RZ986rDZTazj1t3RXbGNoTvjNvs4V2ZuVMPs7afdRfE6b90i3GQRxtBH029tMoV21fbd+OY4cqPOI+ARz5V8cVCVFg21ZZ6yTgBIA619+zOpEvrh7c13/0z3pCDGHmeVKtlHrF2oZjt21je6zt8enVs87MgzA/Xd65L7/9fVmwDxLU6wjjJkBNZgCnmfgKQduE38H0zMGXaKs0TgCn+z9VLZH8e17ImnrUOr37OFFzHSGpLWV5Ix+Y7M5uWuHSttfNbBNm+9dlOjjSf6H936IFpdp216CsAK4R2QFOACnCFEAJUcl/+e1fBJMeQh4gftTe3tSNMeOxMRMpglQijHoL4RZh2iHMArBt4lmVPBRs4jgo5Vfwd6JJBim3KSRFkCHKfGVWHI5boScQlmidvK+TDcSZhyiovH8RHjZ6bRsotZ1rqfeNvl/hORVoQvu1gG7lF8cJHON2TNXfKYdp0R7SlEuTnYQlIDzFdpWOB35JqIL/cXpdhCYLUQpOZkwxUdBl3KC/E03CgKNM4xS0TgGeFN6fFaD03+HzANHwZ6NymhUspjtjtouNSBuWbXSPuT1efHLji6ePVA54SjqREezJcQr11rS/wE01T/a+WO5wriY0IUUk7gY4bchfaYimiddS43Rx981N73+R5XpQnonW6d2u7Eu7MmXbpYGCg7hMMvCCKm+XT7Nv66V7O/YvHQhViK4GUdK/ZUp8ud/iWYQnloWEKTg4djs7B+If9f7DSGDKOpZDEwWfKUAUYkgdzhaZkNF/8QFmKJxWEYK8txOcqLk2GoRVntdxD/pzrKNYfhBC1kRDzRNSgScjJAm0KPMSzKBOCE/IV012EFYMjpnCE7UXtfxKz3jcY22Q1HWuADcddbL2t2RtzEL/6vDkl27xkCQQLeCky7CwfVhtpG1Xdjt1jVmmwVkb8ng4QOFdoNnMTXbWXMdtmu1wLUzGaJtrAZTQW4dN8bVcgwE5Uq2CVBTiBQo3wu4xwcnmDTMNtFH22GNuJ0IcYFT4Zgqn7pQD8vrp3sGxw/p0P3mNE+IAYZmPbdM4Xd59c2f339zk/hcHAEZdYSHiX/+46/7kh49iugNMsQ5t+bZtT06v3Xh55yatsFpos49+fXfd2sET/U3/PQ6DKArpNK/0z08OT9o+MUBfuBmEyuRIIApt6P3Hsfg/cXYeUkQvl9/01B1m/9StEBos4AoCrSbI2C7seXn2IwhdlI8tT+7nJhoKR6ZWSLJe8N55ueAbkL/Wt5p+6Mgb/Z0IT2oGglMyri/ll+f/dPtdkNR1/gkhqtDWmlonaKEI6PHPKY7lYzrqT+R9mGkXYzxJXTLqPDRAmckOoGTbF7ajfE238+ua+ylIEcjRVvh+aJfwwUraVkHrlGqefPszszzfAGoAAOoAEFeYLw/CvmERJrxQso3w0bbhD3X7TaanP9ozqHHi99mOZI5JB7PnWoVz2kFqHafrOGakISYSZqfhh+2jk6W7QfDJLfFxuoaD+N3Pbnn3TUx2+/e/SCwmDPDwzQI4qa/TgddsmMHLlG8NoMaLG4ExOd9a5s0BMB8QH2e/u67jgOg1URz4evRV7aN1rVM6MNsysO914WYAqdmZQtT7fQdtFICJEIU4UdBMHc0XAlw05SXwhGuGwkwm1AAWZaGWmleS5w59Zsf16HexTlBO6p8k8ERTjE25YCyEZIBgrUuMC3mZ4BjyR93hBzASp3D/T5/aATlmhBfuyfPajv0uSOo6v0K76ajDpFyyNpa0nezPgJUjqHfu52MD6sLCNLQz+Q9aSlwT4ckrIgBLBqBax3lznW2T6XYLQIn5rjzLjpomm0afpwhP+HMg33F65X6Fj+FiwkJnPQap7/E6aqBi5drB12wXoIGN7klSWdPsa0P4bvLZofNQoENQczv7txKurQpzK7hW25YgmPszCSopgSV3JiIAsdTKs4LTrQ+CefezAzjhd3n3swsmu5uvMnDsHZyItulPfthxP7zfd/uHp2GgsvVmyzjfhrYJ/k6TZzXZmX5QrW9e017XcUDsB1FqkufAmQr8mBefyXdAymNM4zmY9ObzhQTa/On9vsCUDbaJ0AeAKPhFidbKCiYINOwPEWz2WpuXF2pW0BGs7LHits1z4LZohfySKSxDlBcgpwZPKkRVM0QgQor75Z2zd8D4YCEL5h7CE8GJJhNoMSi88B4rl232DpvPpwuQ9PwIazlmP4xlOIZ04++Vtam8vaB+9BdBCeNP+xietgea6wI8Eaw9PMV+msJTbqpr9ssu853t8xwH/NjhIR7cgvZj17IjIFlo4jbPwWGc8B4g0PtRvQFUD2DUAUAHAa3Yrkal563we8ptmIOw8PBjPDPRbBCaCgDV3uls+VFwrZJeSPRtaJr4QywnxE4KWqdNz6oDFHXl6bVdgDe8h4Wn87tv7gAmO8TwmmksKoYmwILFaF+1esuhifuAJlmOpXOws+W+Ddv1OqfAjmZz1U6U/rzJoNzh74RZY3FQ5rfnx7DPcypEUMZHR+cyMw8QBQdz+EBRE4X18wSiYNazAmodIW3z6bEtYFK7bsX3QJ6xDrxwQoiCLL4TTXUEGwCUBScZO3PYwbvOMpOdiSoOYaXwFEMUQCBvp8muBMkEoHKaQNN04Ub4ZSD1KBBVayMBnJoAZftDczuDJ6t1YmynROtEN5jh8IS+22iPVW1UBlB+9l1qsouz7AhMNo3wFP2dqHWy6RtAdQCUhSdUYC+AMlqYmjB87OMAKJhzNvWcpPMQnHxaekZyvRFK6XGW59D0wo0OT2X5EoITFs3F8iYCLc/lGG7ByUQQhybsEov+Xj+4CbRER0sJqfCbn/ZE8/Rhb1r852fLlbCUp2Kywyw71km1rCMYpHXwnMfb6z0dMBkjSrUfHMREWHfBU+i3eB6+t/TctBzSsscyLrq0CyAKs/NkORi/5AsCb04Pjt0RNUUrQkuuERi6vymQQhlp2cc/jdhXeNLQBBacwr9y79dCgAL8Iq9Ek+LLCPnxOtQl/Z1KWidoNXANNFVSJquW75PdVwYnapdKsGSPqfaJeZQAbYVjveBpgOZJ6k8nDwRtEwHqLGoKpd6Cv1OEoKBx8uY72S/2y74z8GLepT9deMcA5j6OkwUmuy3wJGEK4PT+KWg9OebY9A2gKgBVBicOvOlgmwskO/g+57bEh2rRaPR9t+T7KKiz1OaVXF8V6CzLYSkGl49706BxwiK6x2dXohV6NnNdA5zs8itf3OX1ZxEQKKP9gxMx0/363a7T0AQLETK2/ErbAZBY7hBM57caGJPHkFbLe9vO9av3CFHxXyX6JoR57KM8ZwfRuB2BiWWQP5vHNW2WPyJun4smCgE34Q+FqOUIrglNFPygRvtTdzQ7kzXzEmDoK7RbBNxQkKpe3+Nd9J9+LE/uQ2gUZ9oF0wwd/jUtwtNMHZJxjvCEPINgg+ZJponrv/5gsvPL8axUrj2++XHyJQBpagGpa1sBykOS19at/I68v9K+1GQ3TPMUYBqzLH1YAtSVgBRMdmgTXq7mJrvYn6PfUxWeoGEapHlCn2fb1T9caLd4rwDmFUdxAlQKTykIWnDi9htAFQAqDsw6CMcB2A686aBrBVdzAE7J/snOHy/d/h2cyld7vgjtXCB7YY1vaAh1Opjn9zT2bTn23J5fyJpv1DhhOY7pfPH8M+v8Qr/UfInpMFu7DqYH+DX9+GHkAE4/vh85+D0NaQe2rMVkh1l7KFdbD41yrrdR216fZ7tfvdsBV7fjABkHywhL+fXlvstnN8snrRMKFk0BUVhUGOELYMoDTNGUB98oaKLgXD6l0BoqvCtCzgJRKvAUSOI7833R37mtqc2jJIxxfVq+WqYCqxV4EiGSaZ107ET5Rs0T8sYzcSzCE2ZBZf5OBXiCAEYbL73zdh+LANUFTDwfNU9r+s+x3bW0p7x9sA3pWKD1VxoXUH8YzwSWCE0+pRlX2oxpF3mftPtVeKI2qmqmq/V5HR/wDgLnAZ7KsZ0ITkg1OKY12UVncQJTnr4BlAEo7fyoAF85rMRq2hyA2ejYIJ87HZ9er+wPxW8JqRXWte1OIU7h1T+FuY6LwAKg9kYzt7i4jQ7iz2Gyy8HJm+zswr/nl/fyD+r97oFfhmVXwhSgPIe2C4LS5ORKTLPcT9LOsq+311DHT5JH/7oPfZF9ckDaDk98h1gm5TqJIAIIgeARx3JEK0dU+MlRgCj4QsEnCpopwFYvAc/rKsKuLOjiOzXPt58TkKKA9Sm+G+UsztzyD17Hv+DvZJZlEdOd0TpFIIqaJ+QXvt1/H+qCzuLIFxoLOocH7YAExtT4OhB+GI/xfSGv7L23+/gwzVMCT/jOdb+70p7YhrXdxHEo9n/0i9gn7LZAidc6UfMUtE4mmniqHa6BTj6bnf0xTfv3//jHiu/JNiZg1KJ5SrROPr5TDkq1/TeAElK25gCt8KGDr21o5YE4NtanPj+6vHfjc40z1PVs+x2N7Ro08Xil48V80s7RVcYYVGCiE63TzoEsAjuXsARfdNmV5wAnOJBX4AlxpvDD8jBny1sJgInFiuEk/uOHcXV2XWed+PIVnzb/jzwBJ5zvLPttumZYO0A76T+QrtB/iz6LEUREmBmBBOEznZ2JL9TO7sQdHpwIRGE23mg0dfPpqZj71hL+fJ4Xpirw4jutu08BjXaUwxNAR0wwPp5P8HeS8ATpNHQIK/6QD9pyAJuCv5OEKAhaATqLN6eII6+Qz4sCJwJf2TGc2iamEZwAXI8HTrG9NOVQ99ihIQpKWqfgn+bbQV94Qv22jf843/9n4clrNtnGWsBJtE5W89Th71SCqO8eoND5c1NAW8XGc3WB1CUQn+O8xIc6bl90uLMj0URHYMrTViHe3mFiueI69RWCmY6/8cGxzq7z/kadM+G6Zsqtc94CFGJMGZMd4AlC4t3HsTiIA6Cw8C++b5V6h4CTqOJislumJjuWf2u519tpZ30/ar5D2sOQwbRvvlou5TqJoJLDE4U6BNLh4akDQMGpnDPzsCAxTHzwi4K5j9f3TglOpXszs1wUivF9u45ZDQTaJLVCSCGwMB5CUEADFMCJfi1+hp0KtghOOoZG4Inv4OGM8Z1ykx0ddf2SLGICwh8EY/7rXW5bBVn1mXUEJ6YBoEr1PfSbmIdtQ37b1olt811jwOHJpZhaG/DkwxMQmAjdbAtd8JOO91mfHQRPGBtUhqPdUjMmWs1B8NTt71QGKAladiexoEoXvNpjiRNqHKBbK1ZMeXWBZBvm1m0jPhSCbFoI6isgraDmdp625pV1kKpJdOnGU9U6EZwQRXxx8cmY63qEEVgHjrrubYGn5dW9Gx2cSEBMgNOHvcPO2XWsj1Iq8AQzxtl1GZxQB63lvu3n+7cL9MuuQRnnu/svr2n+E491oEBSgycKdTHTTY7ElId19KCBgk8UTHniD3XUwx+Kwm4VYZkJR74vhSX3CU3cx3mUFYSd/ODUzVg5PeCJ1/JeOPqyTFCGeA7apX1Gw9/JhyrALCcIPfzpQH54N+b1MlOveWoJTwB4UnDKvnXdb2dbylJtD832rmMH+kNpnPBaJ2OyCxDlgRr+aTThCkgZ829bX23to4PgKSo/APwCTwyB0QJPYrLzmidMYMB9M4Zb8PGdurlHn/crXBgCafa+Wde66X7Idl4XOr6p8NZKDQK/1ND8saIZoNlo4yD99OckPtTNl0qHaf82MRmhoxeHIdcAABF+SURBVOXg1CnEKbC60gu3PzkOGicA1OHszN3c+Sjid1+74y91wc+65xN4+pJons7OPzn4Or17P5Io6HAax8C0Vn2fXkuU8mKZsx6Kg19LXW7d9V3tIj1fG5ht/8U17c6p2o7LdePhqSfQIPbT/mgmEAXNE/yfAFKyTt7BsexjQesGDGRCrnG+dE/pmNdKEY66UnyzBRsZCxnpPTfZiaBUk53+yzcaK8CXhCkowZNqBZA3BCt9UexsO2zLzK0zCC8I4pjPymVRKp8nPWb8nghQhRhPDXh6YnBCG2iDJ9QFtIEBmIyzuGgJjSZSZ9ml8Z1wf/UXZGnar6W/tt1XPKd/APBOaEuhffWCJ+8s7tvfEJaR53lQ+74AaiNaJ1Q8G2CalgfkNYXoQDALwrb0jvh3iPhQ57fVb6h9W3Kcwjt0xLQc4rVZJ6l0nvH0zO3sHQZ42h/P3fnSO4mvCz2buj+Dp+jv9FlAD0vHvPswlvhOa7cDmDAQwwsgYMs63y7V8Ys9lrcVtqn8uO7n05stQNW3Nc96/QyDJwp6LCiMsAZwKof2CVqo2eGJmvJ8aAOBqBrsbELI50BW2Md3U2NAcBLIEa2TRmmGcOBPhIoPIQCBaO9RePL+Tsa0KNd5bRZnQVnBRsdxCDw8B8/AeMGyfLkptUrefGcBykNUMNexvh8VnNCWC7JHxgf0IfYvm3ZonbyjuMK0DSXSAkwF8Mn/3FRhq3CvvRZwLppN+jv5MBh2Zp3dTpzFV/B3EnDisy5u3eLy3n03AEV1I/9JoSLqA609lzYwvcceS7eLjbbUkB/pmAjcYufw7zn36+XJ96fvXu5UhWsoyNueU4GltMxTrdPOnoYmEP+m53IQLwFXBZ7OLj6JgzvgCUvIYLYgynCtNgBfKRsYk2VdSlvLv1BvW389+13+7jweUzuQxj4Zz6ftjMfb6mY1eKLAn2LCw+6BQBSXexmPZxLqAKENsNSLmKdysKEw3USa52320S7hz2IhiP+6G/5ODFwJ/1BvOrX3oezRxvHt2tY1xXFeJ8LGrmV3ER3FodmIJrvXAE/QMHYAVIAo4yi+DkCZus21jmqyY93ENq+yAX0h718K1qizktYJkML6Yh3T98n2wz7b1DSF/tkBSeU81U8P7zpU80TNJ+GdfaArpQkaM/oAZedXn93F9efvAKASrZM6SqJSQgVWBb1tZLzeHmvZfiQ4ahPMneBkOg3iCO3f/WmxI5U6V/9jLKfudOJn2NHXCaEJotZpC8x1BCnCU+YsjhhUgCbA08d9RBKPA9XK2ydXDmEKpLxLwGSPmfrsXz8tbXar80vbEwfVCE6177L31esnCKA1IUadyg/UqXx66qwpD8vBhKVe1nwOoa01NQIW5USwYUqBAUGS/EyIAtyXa6ywj/Zt4Qntj35RohXw5pSgefIgpSY71TqhDlvf/ynKaKPPaAGosL6dMeWuA094b1O/EZgU0kvjT32M8IsAl+DJRBRHu4ltYYDJzgBSgCcvf9mPh6R4D4JebF/1GE+J1mkFfyc8C+2WTulnyzsPTw9uefPwugFK7LPeQx+Vz4p6VHjygqjUiB/rWDDzDBCC0HKMrh7ERCRCG8J5wP2p8LKCqnt7dHgSzHX0dYpap+2Gp+X1Z7c/OQoLF+9NMMOuLpx71TnuP73ShYAtJLVtD6qroXW7jdfHdoV+HPtw17vi2rb6MRqBNQUqnMoRFwqmvN3dAweAiqY8nZUnWqg1n9MbPOAs3oAn9UuFRiEBJ9EyEG50CZYoMFVzhXKnFk3bNZzFo18UoCwIGzrzGnjC8wBYuKf3NzxVWa39nHaAUuDcQFsz4ESIigBVbuc6rms/sGM86ldgpAhPCtaoL7aDVbVOQe6i3wKoek4I4X1MCU+idVqYEBgVn6cGPA3yd7p2ce08BbQcni5vvrxSgEq0Tql9Ng68dhBu2+4aoNvP9xKgK2ovhmidbMeRbZjyrh4clnvZv/8laj46BXNbWdXOaRmhLHZH8wBPjRl21PpsQxo0T9FZHEvGwFcLcak+7h2K2j7A6wp1iHsRTXx8dtOMKl6Dp876aW+PjXbwYvLL21bzOyXifuF7an2QAkjSdQSoF2oQZLlTuczKG81kVh7WyoMp70ngIZ9p58MTAHJKJjsAFc5BWFkoosYKQo8QwPLEtdQ8yT91A00MjilaJzHZITDmVdBePUkZrFOng+6N8ARTniwOHEx2i0RbtFZbq8JTGZxQT6X+jnqTdgBw8vDEehITnjHhov4BTuvAEzVPBKFVUjxfgMY6i7f4PCXwZPzt8N1dP2nL1Dp5kx38nWCyu7hWzRPWNr2+/fn1AZTOCuD0xghPw8EJA0m5AQ49zgFn0+nKAAXBfXrt9j//1sOT/uPs/q5ciHXtx/KDE611FEdcJzhix/XrtlPzhHe8unmQZWMATYCnXUScRtuoQE5XPfM+OInTZNfpMM5nbahNdtd1rLvtuZbtrf5usrxNq8ZJhc3K8JQDkHGgpiYAkCRO5bsTNxnPRROFWXnwjYIpr3eU8kFCPIKZgJyBmyAEW5zFcQ3qWaDI+kpxpp18ZxTUcp13FocQJjDR1EFfEwhkCCyA1uuCpljeif+TByg9lpraQptbpV4L8IT8tM3FerFjT6nfop4BCKJ5MrPr6PuE41Jfvg0QnqCFWgV8eM/qmiddkkX9nXTmXGxr6o9kHcWxbeGJ7a8LmvR8ORSC+js9BHi6uv3qru9+djd3rwmgEq1TWtnPCU+2EdvGvc72yuDkhT5m4gGexst7MRshPlR3nhRefVIr4JbiXA0HW5jrkB4jmrjX8CCq97MGxcy1XT5QJ4Jj4re8vHejyZFonHb2pm40PWuCNeFmQDpBzBv4k8BpHH54Xfd+1+DE9oS2x22fes0fyq9fnyoItb4CjULMX09gKqWz2ULMeAi0OTs8FXgCRM1nKwbY7PmOKIMcgkQIVjRPFJYleILQxHF8n6Za5swf+SYmO4mtky0E/GpCFFhgyrdTDVQVnlCHWRvqBZW8x6SxzTXbvfaRtK+gzlDXbfAEEEadqlbRap1SeUooeuyUsKfwZBYERgDWgtlOwMm0QYUnBcIugEK5xLbcNNmp5umLi/D0zd3cfXsdGqhU65RW9rbAkzbqZmPvN+jH+7pBJxMwRuBAYAeT3em1CiM4hJ7fqj+UuZbvO7z87PMjPAGc9van7vziU1yGZdvgCTAFsPv0VbRjp4trBzMjwGl3NAuCJJaN+dYuAOJ5+jshFXNJXZOVQFWxbszzv6fzKEt87wBogsDhP/YgxHDMggn3bervC/d4IdgUYNQGaApT3uHhSeIPhcWHEWATpryVFxy275tto0xoUmMa4SkKTxGiwWRX1jwJPBFOvUYPYwGOi0Yr93cygguCSDQZryKqeNZGsjKP7cdClLaB0GZsG/LtJ97Xkr+9z283212UDZAlOjZZeNIJBAQnpAQS1BN/OI56lbpNTHapPO2GpqHXRyuRzZvwJO+XmIb7wZO0vx7mOgTQlPLgM7wGy/o7AZ7g7wSTHbROACf53b90gHoBWqeisPXCbgg8rQNOuBdr4e1//sWNrr+oxsMKXPhDXX9xCLQZ37db08QGHyGLHVhTOFvDbAd4kqVYrj+/AHjS9exmR+cCTViLb//gxJRL+o1SXoSjjlS0TXAWh0DyAJBAUul+W0/f+7YvHxEUveDJ/OMvCKOGECtdY45F4UVYovDifprClAdoglP5CEE2ZwiweaimPGh1kHdVIA87BxMJBaAVgqJ14LIsspad/0funbnRfglFvB/7HJtwHtvijM74Tn5JlmBKCfB0I8JIprxLHsO+YVNl8ez5mDYTIGoFcLLQr22P7a2cxnFYAQrjM0CCkBRnrfmQEmFWmkaBhyKCmhq0BR3fmZZBhzJg+LX1/PAOAfIINpK2wBOXBSK894Anlo2245g3/J1otlsCnvCHOgOnm/tvDr8XGwdKtE6FGXaoyLQh9d0vCMYnEFgcqNrSIGRXep+lwNH+/W8lOGMbiIkpr0/5+amp4hwYwkCY8ptfOIQlEHjaO3Tz4ws103nzmJjttk37JJon9Xc6mJ4KPEHrhCCfESrNN9q6KIFPdkzMdd7P5A2eKuVoyzTbbusf5XMtWgAKOAo17rek7QIsBScr+ObzhcMyLx93JgJOhwfHYa28TTiU41kY8wg/Ak8QHl4YBodxLgTso0izTTfhSWM8EZxQtpK/LDB8KYItgBOFWogqzll8r3GWXU8YrLUh29Y6oFnbGtpUGZRwnPWnaRNGAAenyzsHTQpiF6V1hijwn8SBHHIUbYDtRUx4AZ6a+Soo2eN9AavfdXV4+lQ32/mZnv1NdpnWyZgEE2fx6wcx2eVaJ8LTiwUopWNUSLNSXhI8pZ3Am3KoncgESOParvPQOi1uvNbpoal1aty/VMdyiQ9Vh04B1CJk+U4NB1oxex2K+evs/CY6iluAyn2PnnPf+2NhzT1ozQBOe+N5u8muUX51UxwcxcVh/M3XKRv4c0FQ3m8TJM1zPcCJQs4KNR4zaR9Bps9PASpoHfysPCw0/OHjWH6qhZpKuAOY8iQ2VIdArWlU8OwiPPl/3xGevGbBRxXHd2GcpJlP4MuPpfyDhbwx5gR46mmyw3219/1ujps2JN/M/a56Dk7hdXhqyAETZ4ltAbAEcBJ48iYpC1DQSAGwCN1R68T4Tk25mspanqcMZmrBym7zenss3ca74J1U89R0Fs99nqyjODRr4r+1itZJ4PJWYJPBMenvlJjsvMbJwtOLA6hWX6eiUK+DQASt8qDdaKglgbmlxyCsR9cPMsMOU+Q5KDa/qVk+k4s7cS6P5WOu6SjjyexMzHX4xw0N1MXlXRmetkn75DVPJ2dXQeuENfkEFEvatbY6z7ROKG+J70Qozs/n+215f6fnFFDq/8TT8wPgiUKtkio8DXsugcsCFLbnWC9vf+refxiJY/l8eiqz9ABWOLcKWECLmWuPKAiRCjwZkx0EFPo03oeClgIUIAUTHaGJgMX8kReELoWwzHQy//oZpVq+uwsSXvN525bwndzndu3bPTjherahtF3HP9d2DEc9WrARrdPFrYATtE+55klAw8+K1LrNTXYEIaY2fwtBPG/TFIj0vXg+P5fuE57U1DgQnnqa7NCGE18nr3UCiEV/Jw1TICEKKia7lwlQLb5OqaAzwj4Iv9qxbQen2nuXjsdvmUDrdP+LGyNIppRBPFeEokI5jW6+OuTT93oA2v74yH1AAEHERzo4dlc3mb+T1T5tC0BhOuqnLxKiAMAXTXalMrbHbJkWtqF6R4gCmWXnz7/B0mDtUy5E6vtR8AShReHVI41Ci/n0BSdex/s0zd8B+cOUBy0UIAoAhTXz4B+1ihYK/ZJwA+GTgpOFJxWQCk941zI8ST8P5iINvknIwj/7xHeG/k6YAu+nvOPaVSDwVd5j21sXOPF8CzgJ1GLsyP5AKTwpiECxYLVOBFwCL1LCU8NkFxYGJuyskqZAlMIT8tP2at+Z22i7xfhOMA977RnDFHCfYEhNGhzB234AS5gsQ3lQK+fXs7P+TphlF0x2Fa2Thait94Fqap1YIVppqR+OFXJt280GmTfQ592P794WtVW+3fgjjW6+aFynM8ywi3kM3sZSL/e/uAMfA6bt/vF04d578wRMd4fT09RRPAcn7j+nyc7PtkN8J8BeMNnNFj3Lrb39RH8n1EH7tW/ny+VThyVCi00jwOTwUtoHSNjjpWehXkrHm8fis/N8wzNmOutuengqAAWnckQpR6wozNQbooWC4LGmtxo8yXH/xxPvhfe20AWowj76dvwmBSwchy8MIzEHgLq4FUEcBddrWQh4NS1gEQBt26ppnMxxrRutH9YT6yOxHASIsrByKXVEX6e6v5Oa7Fj/oc00FBOPAU/MM31vvEvQCuXBMelbl4UqULNdhME2aMK5kL/kB4BSR3HkAyhLnMVvHtJZdj3gCSD1/wH832mBmZMvFwAAAABJRU5ErkJggg==;" vertex="1" parent="1">
          <mxGeometry x="460" y="148" width="592" height="452" as="geometry" />
        </mxCell>
        <mxCell id="EXXxjvqBuax8S38SZ-jd-13" value="通过ActivityConfigReq类，拿到对应的活动配置信息，&lt;br&gt;然后再存入活动仓储服务" style="text;html=1;align=center;verticalAlign=middle;resizable=0;points=[];autosize=1;strokeColor=none;fillColor=none;" vertex="1" parent="1">
          <mxGeometry x="80" y="30" width="310" height="40" as="geometry" />
        </mxCell>
      </root>
    </mxGraphModel>
  </diagram>
</mxfile>
